<?xml version="1.0" encoding="utf-8"?>
<!-- Generator: Adobe Illustrator 23.0.3, SVG Export Plug-In . SVG Version: 6.00 Build 0)  -->
<svg version="1.1" xmlns="http://www.w3.org/2000/svg" xmlns:xlink="http://www.w3.org/1999/xlink" x="0px" y="0px"
	 viewBox="0 0 1600 1200" style="enable-background:new 0 0 1600 1200;" xml:space="preserve">
<style type="text/css">
	.st0{fill:transparent;}
	.st1{stroke:#000000;stroke-miterlimit:10;}
</style>
<g id="tabs">
	<path id="XMLID_14_" class="st0" d="M308,225.5c0,112.5,0,224.9,0,337.4c34.5,0.6,69,1.2,103.5,1.8c0.3,70.8,0.6,141.6,0.9,212.3
		c156.2-0.9,312.5-1.8,468.7-2.7c47.1,0.9,94.2,1.8,141.3,2.7c-7.2-45.3-14.4-90.6-21.6-135.9c105.6,0.6,211.1,1.2,316.7,1.8
		c-0.8-77.7-1.4-155.4-1.8-233c-0.6-103.5-0.9-206.9-0.9-310.4c-224,0.3-448,0.6-672.1,0.9c0.3,42.3,0.6,84.6,0.9,126.9
		C531.7,226.7,419.9,226.1,308,225.5z"/>
	<g id="XMLID_555_">
		<g>
			<g>
				<path class="st1" d="M412.3,773.8c-0.9,0-1.6-102.5-1.6-228.8s0.7-228.8,1.6-228.8s1.6,102.5,1.6,228.8S413.2,773.8,412.3,773.8
					z"/>
			</g>
		</g>
	</g>
	<g id="XMLID_563_">
		<g>
			<g>
				<ellipse class="st1" cx="666.7" cy="775.1" rx="248.7" ry="1.6"/>
			</g>
		</g>
	</g>
	<g id="XMLID_571_">
		<g>
			<g>
				<path class="st1" d="M912.1,317c0,0.9-111.1,1.6-248.1,1.6s-248.1-0.7-248.1-1.6c0-0.9,111.1-1.6,248.1-1.6
					S912.1,316.1,912.1,317z"/>
			</g>
		</g>
	</g>
	<g id="XMLID_579_">
		<g>
			<g>
				<ellipse class="st1" cx="670.6" cy="357.8" rx="243.7" ry="1.6"/>
			</g>
		</g>
	</g>
	<g id="XMLID_587_">
		<g>
			<g>
				<ellipse class="st1" cx="455.3" cy="561" rx="1.6" ry="113.6"/>
			</g>
		</g>
	</g>
	<g id="XMLID_595_">
		<g>
			<g>
				<ellipse class="st1" cx="654.6" cy="673.6" rx="193.5" ry="1.6"/>
			</g>
		</g>
	</g>
	<g id="XMLID_603_">
		<g>
			<g>
				<path class="st1" d="M486.2,566.5c0.9,0,1.6,23.9,1.6,53.5s-0.7,53.5-1.6,53.5s-1.6-23.9-1.6-53.5S485.3,566.5,486.2,566.5z"/>
			</g>
		</g>
	</g>
	<g id="XMLID_611_">
		<g>
			<g>
				<ellipse class="st1" cx="505" cy="567.6" rx="18.7" ry="1.6"/>
			</g>
		</g>
	</g>
	<g id="XMLID_619_">
		<g>
			<g>
				<path class="st1" d="M522.7,674.6c-0.9,0-1.6-23.5-1.6-52.4c0-28.9,0.7-52.4,1.6-52.4s1.6,23.5,1.6,52.4
					C524.3,651.2,523.6,674.6,522.7,674.6z"/>
			</g>
		</g>
	</g>
	<g id="XMLID_627_">
		<g>
			<g>
				<path class="st1" d="M575.7,599.6c0.9,0,1.6,15.8,1.6,35.3c0,19.5-0.7,35.3-1.6,35.3s-1.6-15.8-1.6-35.3
					C574,615.4,574.8,599.6,575.7,599.6z"/>
			</g>
		</g>
	</g>
	<g id="XMLID_635_">
		<g>
			<g>
				<ellipse class="st1" cx="596.1" cy="600.7" rx="20.4" ry="1.6"/>
			</g>
		</g>
	</g>
	<g id="XMLID_643_">
		<g>
			<g>
				<path class="st1" d="M615.4,672.4c-0.9,0-1.6-15.8-1.6-35.3s0.7-35.3,1.6-35.3s1.6,15.8,1.6,35.3S616.3,672.4,615.4,672.4z"/>
			</g>
		</g>
	</g>
	<g id="XMLID_651_">
		<g>
			<g>
				<path class="st1" d="M683.9,542.3c0.9,0,1.6,28.6,1.6,64s-0.7,64-1.6,64s-1.6-28.6-1.6-64S683,542.3,683.9,542.3z"/>
			</g>
		</g>
	</g>
	<g id="XMLID_659_">
		<g>
			<g>
				<path class="st1" d="M725.8,542.2c0,0.9-9.1,1.6-20.4,1.6c-11.3,0-20.4-0.7-20.4-1.6s9.1-1.6,20.4-1.6
					C716.7,540.6,725.8,541.3,725.8,542.2z"/>
			</g>
		</g>
	</g>
	<g id="XMLID_667_">
		<g>
			<g>
				<path class="st1" d="M726.9,672.4c-0.9,0-1.6-28.1-1.6-62.9s0.7-62.9,1.6-62.9s1.6,28.1,1.6,62.9S727.8,672.4,726.9,672.4z"/>
			</g>
		</g>
	</g>
	<g id="XMLID_675_">
		<g>
			<g>
				<path class="st1" d="M765.6,617.3c0.9,0,1.6,11.9,1.6,26.5c0,14.6-0.7,26.5-1.6,26.5s-1.6-11.9-1.6-26.5
					C763.9,629.1,764.7,617.3,765.6,617.3z"/>
			</g>
		</g>
	</g>
	<g id="XMLID_683_">
		<g>
			<g>
				<path class="st1" d="M796.4,617.3c0,0.9-6.7,1.6-14.9,1.6s-14.9-0.7-14.9-1.6s6.7-1.6,14.9-1.6S796.4,616.4,796.4,617.3z"/>
			</g>
		</g>
	</g>
	<g id="XMLID_691_">
		<g>
			<g>
				<path class="st1" d="M796.5,671.3c-0.9,0-1.6-11.1-1.6-24.8s0.7-24.8,1.6-24.8s1.6,11.1,1.6,24.8S797.4,671.3,796.5,671.3z"/>
			</g>
		</g>
	</g>
	<g id="XMLID_699_">
		<g>
			<g>
				<path class="st1" d="M830.8,487.5c0,0-0.4-0.2-1.2-0.7c-0.4-0.3-0.9-0.6-1.4-1c-0.5-0.4-1.2-0.9-1.9-1.5c-0.7-0.6-1.4-1.3-2.2-2
					c-0.8-0.8-1.6-1.7-2.6-2.6c-1.7-2-3.7-4.3-5.6-7.2c-3.9-5.6-7.9-13-12.1-21.7c-2.1-4.3-4.4-9-7-13.8c-1.3-2.4-2.7-4.8-4.2-7.2
					c-1.6-2.4-3.2-4.8-5.1-7.1c-1.9-2.3-4-4.5-6.4-6.5c-2.4-2-5-3.7-7.9-5.2c-2.9-1.5-6-2.5-9.3-3.2c-3.3-0.7-6.7-0.9-10.2-0.7
					c-1.7,0-3.5,0.3-5.2,0.6c-1.7,0.4-3.5,0.7-5.2,1.2c-3.5,1-6.9,2.3-10.2,4c-3.3,1.7-6.5,3.7-9.5,6.1c-3,2.3-5.9,5-8.5,7.9
					c-5.4,5.8-10,12.5-14.2,19.8c-4.2,7.2-7.9,14.9-11.6,22.9c-3.7,7.9-7.5,16-12,24c-4.5,8-9.7,15.7-16.2,22.6
					c-3.3,3.4-6.9,6.5-10.9,9.1c-2,1.3-4.1,2.4-6.2,3.4c-2.2,0.9-4.4,1.8-6.7,2.4c-4.6,1.2-9.4,1.4-14,0.5c-4.6-0.9-8.9-2.8-12.8-5
					c-7.7-4.7-14-10.8-20.4-16.2c-3.2-2.7-6.4-5.2-9.8-7.5c-0.9-0.6-1.7-1.1-2.5-1.7l-1.3-0.8l-1.3-0.8c-0.9-0.5-1.7-1-2.6-1.5
					c-0.9-0.5-1.8-0.9-2.6-1.4c-3.5-1.9-7.1-3.4-10.7-4.7c-3.6-1.3-7.3-2.4-10.9-3.1c-7.3-1.5-14.6-2-21.6-1.2
					c-6.9,0.9-13.5,2.8-19.3,5.8c-5.9,2.9-11,6.6-15.5,10.5c-4.5,4-8.4,8.2-11.7,12.5c-3.3,4.3-6.1,8.6-8.5,12.8
					c-4.8,8.3-8,16-10.5,22.3c-2.5,6.3-4.2,11.3-5.5,14.7c-1.2,3.4-1.9,5.1-2,5.1c-0.1,0,0-0.5,0.3-1.4c0.2-0.9,0.6-2.2,1.1-3.9
					c1-3.4,2.6-8.5,4.9-14.9c2.3-6.4,5.4-14.2,10.1-22.7c2.3-4.3,5.1-8.7,8.4-13.2c3.3-4.4,7.2-8.8,11.8-13c4.6-4.1,9.9-8,15.9-11
					c6-3.1,12.9-5.3,20.1-6.2c7.3-1,14.9-0.5,22.5,1c3.8,0.7,7.6,1.9,11.4,3.2c3.7,1.4,7.5,2.9,11.1,4.8c0.9,0.5,1.8,0.9,2.7,1.4
					c0.9,0.5,1.8,1,2.7,1.5l1.3,0.8l1.3,0.8c0.9,0.6,1.7,1.1,2.6,1.7c3.4,2.4,6.8,4.9,10.1,7.7c6.5,5.5,12.7,11.4,20,15.8
					c3.7,2.1,7.6,3.9,11.7,4.6c4.1,0.7,8.5,0.6,12.6-0.5c2.1-0.5,4.1-1.3,6.1-2.2c2-0.9,3.9-2,5.8-3.2c3.7-2.4,7.1-5.4,10.3-8.6
					c6.2-6.6,11.3-14.2,15.7-22c4.4-7.8,8.2-15.9,11.9-23.8c3.7-7.9,7.5-15.7,11.8-23.1c4.3-7.3,9.1-14.3,14.7-20.2
					c11-12.2,26-19.7,40.8-20.4c7.3-0.4,14.6,1.2,20.7,4.3c3,1.6,5.8,3.5,8.3,5.6c2.5,2.1,4.6,4.5,6.6,6.9c1.9,2.4,3.6,4.9,5.2,7.4
					c1.5,2.5,3,5,4.2,7.4c2.6,4.9,4.8,9.6,6.8,13.9c4.1,8.8,7.8,16.2,11.5,21.8c1.8,2.8,3.7,5.2,5.3,7.2c0.9,1,1.6,1.9,2.4,2.7
					c0.8,0.8,1.4,1.5,2.1,2.1c0.7,0.6,1.2,1.1,1.7,1.6c0.5,0.5,1,0.8,1.3,1.1C830.5,487.1,830.8,487.5,830.8,487.5z"/>
			</g>
		</g>
	</g>
	<g id="XMLID_707_">
		<g>
			<g>
				<ellipse class="st1" cx="308.5" cy="398.4" rx="1.6" ry="168"/>
			</g>
		</g>
	</g>
	<g id="XMLID_715_">
		<g>
			<g>
				<ellipse class="st1" cx="358.7" cy="563.9" rx="48.9" ry="1.6"/>
			</g>
		</g>
	</g>
	<g id="XMLID_723_">
		<g>
			<g>
				<path class="st1" d="M891.2,227.5c0,0.9-129.5,1.6-289.2,1.6s-289.2-0.7-289.2-1.6s129.5-1.6,289.2-1.6S891.2,226.6,891.2,227.5
					z"/>
			</g>
		</g>
	</g>
	<g id="XMLID_731_">
		<g>
			<g>
				<path class="st1" d="M890.2,310.5c-0.9,0-1.6-18-1.6-40.2s0.7-40.2,1.6-40.2s1.6,18,1.6,40.2S891.1,310.5,890.2,310.5z"/>
			</g>
		</g>
	</g>
	<g id="XMLID_739_">
		<g>
			<g>
				<path class="st1" d="M868.4,259.8c0,0.9-121.2,1.6-270.8,1.6s-270.8-0.7-270.8-1.6s121.2-1.6,270.8-1.6S868.4,258.9,868.4,259.8
					z"/>
			</g>
		</g>
	</g>
	<g id="XMLID_747_">
		<g>
			<g>
				<path class="st1" d="M861.3,252.6c-0.5,0.8-6.2-2.1-12.9-5.9c-6.8-3.8-12.2-7.1-11.8-7.9c0.4-0.8,6.5,1.2,13.4,5.1
					C856.9,247.7,861.8,251.9,861.3,252.6z"/>
			</g>
		</g>
	</g>
	<g id="XMLID_755_">
		<g>
			<g>
				<path class="st1" d="M867.4,231.4c0.6,0.6-4.9,7-13.4,13.2c-8.4,6.2-16.2,9.6-16.6,8.8c-0.4-0.8,6.5-5.4,14.7-11.4
					C860.3,236,866.7,230.8,867.4,231.4z"/>
			</g>
		</g>
	</g>
	<g id="XMLID_763_">
		<g>
			<g>
				<path class="st1" d="M458.5,352.5c-0.8,0.5-4.9-4.6-10.3-10.6c-5.3-6-9.8-10.8-9.2-11.5c0.6-0.7,6.2,3.1,11.6,9.4
					C456.2,345.9,459.3,352,458.5,352.5z"/>
			</g>
		</g>
	</g>
	<g id="XMLID_771_">
		<g>
			<g>
				<path class="st1" d="M470.2,325.5c0.5,0.7-6.4,6.6-15.3,13.6c-8.8,6.9-16.2,12.3-16.8,11.6c-0.6-0.7,5.9-7.2,14.8-14.2
					C461.8,329.5,469.7,324.8,470.2,325.5z"/>
			</g>
		</g>
	</g>
	<g id="XMLID_779_">
		<g>
			<g>
				<path class="st1" d="M414.7,483.6c0,0.1-0.6,0.3-1.8,0.6c-0.6,0.1-1.4,0.3-2.3,0.4c-0.9,0.1-1.9,0.3-3.1,0.3
					c-1.2,0-2.5,0.1-3.9,0c-1.4,0-3-0.2-4.7-0.4c-3.3-0.5-7.1-1.4-11-3c-3.9-1.6-8.1-3.8-12.1-6.8c-2-1.5-3.9-3.2-5.8-5.1
					c-1.8-2-3.6-4-5.2-6.4c-6.5-9.2-10.5-21.6-10.3-34.7c0-1.6,0.1-3.2,0.2-4.8c0.2-1.6,0.3-3.2,0.6-4.8c0.5-3.1,1.3-6.2,2.2-9.1
					c0.9-2.9,2.1-5.7,3.3-8.4c1.3-2.6,2.7-5.2,4.2-7.5c6-9.5,13.6-16.5,20.5-21.3c6.9-4.8,13.4-7.4,18-8.6c4.6-1.1,7.2-1.1,7.2-0.9
					c0,0.3-2.5,0.6-6.9,2.1c-4.3,1.5-10.4,4.3-17,9.2c-6.5,4.9-13.6,11.8-19.3,21c-5.7,9.1-9.8,20.6-9.9,33
					c-0.2,12.4,3.5,24.1,9.6,32.9c1.5,2.2,3.1,4.2,4.8,6.1c1.8,1.8,3.5,3.5,5.4,5c3.7,3,7.6,5.2,11.3,6.8c3.7,1.6,7.3,2.7,10.4,3.4
					c1.6,0.3,3.1,0.6,4.5,0.7c1.4,0.2,2.7,0.2,3.8,0.3c1.1,0.1,2.2,0,3.1,0c0.9,0,1.6,0,2.2-0.1
					C414.1,483.5,414.7,483.5,414.7,483.6z"/>
			</g>
		</g>
	</g>
	<g id="XMLID_787_">
		<g>
			<g>
				<path class="st1" d="M339,421.6c-0.2,0-0.4-1.6-0.4-4.5c0-2.9,0.4-7.1,1.4-12.1c1-5.1,2.8-11,5.7-17.3c2.9-6.2,7-12.7,12.2-18.7
					c5.3-5.9,11.2-10.8,17-14.4c5.8-3.7,11.5-6.2,16.4-7.8c4.9-1.6,9-2.5,11.9-2.9c2.9-0.4,4.5-0.4,4.5-0.2c0,0.2-1.5,0.7-4.2,1.4
					c-2.7,0.7-6.7,1.9-11.3,3.8c-4.7,1.9-10.1,4.5-15.6,8.2c-5.5,3.6-11.1,8.4-16.2,14.1c-5,5.7-9,11.9-11.9,17.8
					c-2.9,5.9-4.9,11.6-6.2,16.5c-1.3,4.9-2,8.9-2.4,11.7C339.4,420,339.2,421.6,339,421.6z"/>
			</g>
		</g>
	</g>
	<g id="XMLID_795_">
		<g>
			<g>
				<path class="st1" d="M355,425.8c-0.2,0.9-3.9,0.9-8.2,0.1c-4.4-0.8-7.8-2.2-7.6-3.1c0.2-0.9,3.9-0.9,8.2-0.1
					C351.7,423.6,355.1,425,355,425.8z"/>
			</g>
		</g>
	</g>
	<g id="XMLID_803_">
		<g>
			<g>
				<path class="st1" d="M342.1,449c-0.4-0.2-0.2-1.2,0.5-2.5c0.8-1.3,2.3-2.8,4.3-3.9c2-1.1,4.1-1.5,5.6-1.4
					c1.5,0.1,2.4,0.5,2.4,0.9c0,0.9-3.2,1.5-6.5,3.4C345.2,447.1,342.9,449.4,342.1,449z"/>
			</g>
		</g>
	</g>
	<g id="XMLID_811_">
		<g>
			<g>
				<path class="st1" d="M415.2,501.8c0,0.1-0.2,0.3-0.8,0.6c-0.3,0.1-0.7,0.3-1.1,0.5c-0.2,0.1-0.5,0.2-0.7,0.3
					c-0.3,0.1-0.5,0.2-0.8,0.3c-2.4,0.8-6,1.6-10.5,1.6c-4.5,0.1-9.9-0.8-15.6-2.7c-2.8-1-5.7-2.3-8.5-3.9c-2.8-1.6-5.6-3.5-8.3-5.7
					c-5.3-4.4-9.6-9.3-13.1-14.1c-3.4-4.8-6.1-9.4-8.1-13.3c-4-7.9-5.8-13.1-5.4-13.2c0.4-0.2,3,4.6,7.4,12.1
					c2.2,3.7,5,8.1,8.5,12.7c3.5,4.6,7.7,9.2,12.7,13.4c2.5,2.1,5.2,3.9,7.8,5.4c2.6,1.6,5.4,2.8,8,3.8c5.3,2,10.3,3,14.6,3.2
					c4.3,0.2,7.8-0.1,10.1-0.6c0.3,0,0.6-0.1,0.9-0.1c0.3-0.1,0.5-0.1,0.7-0.2c0.5-0.1,0.9-0.2,1.2-0.2
					C414.8,501.7,415.2,501.7,415.2,501.8z"/>
			</g>
		</g>
	</g>
	<g id="XMLID_819_">
		<g>
			<g>
				<path class="st1" d="M349.8,298.2c0.9,0.1,0.7,14.2,0.4,31.6c-0.3,17.4-0.6,31.6-1.5,31.6c-0.9,0-2.1-14.1-1.8-31.7
					C347.2,312.3,349,298.2,349.8,298.2z"/>
			</g>
		</g>
	</g>
	<g id="XMLID_827_">
		<g>
			<g>
				<path class="st1" d="M425.6,276c0,0.9-16,1.6-35.8,1.6s-35.8-0.7-35.8-1.6s16-1.6,35.8-1.6S425.6,275.1,425.6,276z"/>
			</g>
		</g>
	</g>
	<g id="XMLID_835_">
		<g>
			<g>
				<path class="st1" d="M460.4,288.7c0,0.9-22.4,1.6-50.1,1.6c-27.7,0-50.1-0.7-50.1-1.6s22.4-1.6,50.1-1.6
					C438,287.1,460.4,287.8,460.4,288.7z"/>
			</g>
		</g>
	</g>
	<g id="XMLID_844_">
		<g>
			<g>
				<path class="st1" d="M411.9,305.6c0,0.9-7.1,1.6-15.8,1.6s-15.8-0.7-15.8-1.6s7.1-1.6,15.8-1.6S411.9,304.7,411.9,305.6z"/>
			</g>
		</g>
	</g>
	<g id="XMLID_855_">
		<g>
			<g>
				<path class="st1" d="M642.2,101.8c0.9,0,1.6,26.6,1.6,59.3s-0.7,59.3-1.6,59.3s-1.6-26.6-1.6-59.3S641.3,101.8,642.2,101.8z"/>
			</g>
		</g>
	</g>
	<g id="XMLID_864_">
		<g>
			<g>
				<path class="st1" d="M1311.7,100.3c0,0.9-149.8,1.6-334.6,1.6s-334.6-0.7-334.6-1.6s149.8-1.6,334.6-1.6
					S1311.7,99.4,1311.7,100.3z"/>
			</g>
		</g>
	</g>
	<g id="XMLID_873_">
		<g>
			<g>
				<path class="st1" d="M1315,644c-0.9,0-1.6-120.7-1.6-269.5s0.7-269.5,1.6-269.5s1.6,120.7,1.6,269.5S1315.9,644,1315,644z"/>
			</g>
		</g>
	</g>
	<g id="XMLID_881_">
		<g>
			<g>
				<ellipse class="st1" cx="1203.3" cy="642.8" rx="111.5" ry="1.6"/>
			</g>
		</g>
	</g>
	<g id="XMLID_889_">
		<g>
			<g>
				<path class="st1" d="M1284.2,144.3c0,0.9-138.7,1.6-309.9,1.6s-309.9-0.7-309.9-1.6s138.7-1.6,309.9-1.6
					S1284.2,143.4,1284.2,144.3z"/>
			</g>
		</g>
	</g>
	<g id="XMLID_897_">
		<g>
			<g>
				<ellipse class="st1" cx="1218.7" cy="350.6" rx="1.6" ry="122.8"/>
			</g>
		</g>
	</g>
	<g id="XMLID_905_">
		<g>
			<g>
				<path class="st1" d="M1241.4,227.7c0,0.9-5.1,1.6-11.4,1.6c-6.3,0-11.4-0.7-11.4-1.6s5.1-1.6,11.4-1.6
					C1236.4,226,1241.4,226.8,1241.4,227.7z"/>
			</g>
		</g>
	</g>
	<g id="XMLID_913_">
		<g>
			<g>
				<path class="st1" d="M1239.7,470.8c-0.9,0-1.6-54-1.6-120.6s0.7-120.6,1.6-120.6s1.6,54,1.6,120.6S1240.6,470.8,1239.7,470.8z"
					/>
			</g>
		</g>
	</g>
	<g id="XMLID_921_">
		<g>
			<g>
				<ellipse class="st1" cx="1229.2" cy="474.4" rx="10.5" ry="1.6"/>
			</g>
		</g>
	</g>
	<g id="XMLID_929_">
		<g>
			<g>
				<path class="st1" d="M1219.6,528.7c-0.9,0-1.6-8.6-1.6-19.2c0-10.6,0.7-19.2,1.6-19.2s1.6,8.6,1.6,19.2
					C1221.2,520.1,1220.5,528.7,1219.6,528.7z"/>
			</g>
		</g>
	</g>
	<g id="XMLID_937_">
		<g>
			<g>
				<ellipse class="st1" cx="1229.2" cy="490.2" rx="9.6" ry="1.6"/>
			</g>
		</g>
	</g>
	<g id="XMLID_945_">
		<g>
			<g>
				<ellipse class="st1" cx="1238" cy="509.9" rx="1.6" ry="19.7"/>
			</g>
		</g>
	</g>
	<g id="XMLID_953_">
		<g>
			<g>
				<path class="st1" d="M1237.9,529.6c0,0.9-4.1,1.6-9.2,1.6s-9.2-0.7-9.2-1.6s4.1-1.6,9.2-1.6S1237.9,528.7,1237.9,529.6z"/>
			</g>
		</g>
	</g>
	<g id="XMLID_961_">
		<g>
			<g>
				<path class="st1" d="M1155.7,444.6c-0.9,0-1.6-45.4-1.6-101.4c0-56,0.7-101.4,1.6-101.4s1.6,45.4,1.6,101.4
					C1157.3,399.2,1156.6,444.6,1155.7,444.6z"/>
			</g>
		</g>
	</g>
	<g id="XMLID_969_">
		<g>
			<g>
				<path class="st1" d="M1174.9,242.6c0,0.9-3.7,1.6-8.3,1.6c-4.6,0-8.3-0.7-8.3-1.6s3.7-1.6,8.3-1.6
					C1171.2,240.9,1174.9,241.7,1174.9,242.6z"/>
			</g>
		</g>
	</g>
	<g id="XMLID_977_">
		<g>
			<g>
				<path class="st1" d="M1174.1,443.7c-0.9,0-1.6-44.4-1.6-99.2c0-54.8,0.7-99.2,1.6-99.2s1.6,44.4,1.6,99.2
					C1175.7,399.3,1175,443.7,1174.1,443.7z"/>
			</g>
		</g>
	</g>
	<g id="XMLID_985_">
		<g>
			<g>
				<ellipse class="st1" cx="1164.4" cy="446.4" rx="7" ry="1.6"/>
			</g>
		</g>
	</g>
	<g id="XMLID_993_">
		<g>
			<g>
				<path class="st1" d="M1158.3,544.4c-0.9,0-1.6-15.8-1.6-35.4c0-19.6,0.7-35.4,1.6-35.4s1.6,15.8,1.6,35.4
					C1160,528.6,1159.2,544.4,1158.3,544.4z"/>
			</g>
		</g>
	</g>
	<g id="XMLID_1001_">
		<g>
			<g>
				<path class="st1" d="M1177.6,473.6c0,0.9-4.3,1.6-9.6,1.6c-5.3,0-9.6-0.7-9.6-1.6s4.3-1.6,9.6-1.6
					C1173.3,471.9,1177.6,472.7,1177.6,473.6z"/>
			</g>
		</g>
	</g>
	<g id="XMLID_1009_">
		<g>
			<g>
				<path class="st1" d="M1176.7,547.9c-0.9,0-1.6-16.6-1.6-37.2c0-20.5,0.7-37.2,1.6-37.2s1.6,16.6,1.6,37.2
					C1178.3,531.3,1177.6,547.9,1176.7,547.9z"/>
			</g>
		</g>
	</g>
	<g id="XMLID_1017_">
		<g>
			<g>
				<path class="st1" d="M1180.2,547.1c0,0.9-4.5,1.6-10.1,1.6s-10.1-0.7-10.1-1.6s4.5-1.6,10.1-1.6S1180.2,546.2,1180.2,547.1z"/>
			</g>
		</g>
	</g>
	<g id="XMLID_1025_">
		<g>
			<g>
				<path class="st1" d="M1083.1,391.2c-0.9,0-1.6-37.6-1.6-83.9s0.7-83.9,1.6-83.9s1.6,37.6,1.6,83.9S1084,391.2,1083.1,391.2z"/>
			</g>
		</g>
	</g>
	<g id="XMLID_1033_">
		<g>
			<g>
				<path class="st1" d="M1098.8,222.4c0,0.9-3.5,1.6-7.9,1.6s-7.9-0.7-7.9-1.6s3.5-1.6,7.9-1.6S1098.8,221.5,1098.8,222.4z"/>
			</g>
		</g>
	</g>
	<g id="XMLID_1041_">
		<g>
			<g>
				<ellipse class="st1" cx="1098.8" cy="325.7" rx="1.6" ry="103.1"/>
			</g>
		</g>
	</g>
	<g id="XMLID_1049_">
		<g>
			<g>
				<path class="st1" d="M1083.1,430.7c-0.9,0-1.6-9.2-1.6-20.5c0-11.3,0.7-20.5,1.6-20.5s1.6,9.2,1.6,20.5
					C1084.7,421.5,1084,430.7,1083.1,430.7z"/>
			</g>
		</g>
	</g>
	<g id="XMLID_1057_">
		<g>
			<g>
				<path class="st1" d="M1099.7,430.7c0,0.9-3.1,1.6-7,1.6c-3.9,0-7-0.7-7-1.6s3.1-1.6,7-1.6
					C1096.6,429.1,1099.7,429.8,1099.7,430.7z"/>
			</g>
		</g>
	</g>
	<g id="XMLID_1065_">
		<g>
			<g>
				<ellipse class="st1" cx="1098.8" cy="449.9" rx="4.4" ry="1.6"/>
			</g>
		</g>
	</g>
	<g id="XMLID_1073_">
		<g>
			<g>
				<ellipse class="st1" cx="1104.1" cy="464.8" rx="1.6" ry="14.9"/>
			</g>
		</g>
	</g>
	<g id="XMLID_1081_">
		<g>
			<g>
				<path class="st1" d="M949,171c0,0.9-25,1.6-55.8,1.6s-55.8-0.7-55.8-1.6s25-1.6,55.8-1.6S949,170.1,949,171z"/>
			</g>
		</g>
	</g>
	<g id="XMLID_1089_">
		<g>
			<g>
				<path class="st1" d="M1098.6,182.5c0,0.9-46.6,1.6-104,1.6c-57.5,0-104-0.7-104-1.6s46.6-1.6,104-1.6
					C1052,180.9,1098.6,181.6,1098.6,182.5z"/>
			</g>
		</g>
	</g>
	<g id="XMLID_1097_">
		<g>
			<g>
				<path class="st1" d="M1161.9,168.7c0,0.9-36.8,1.6-82.2,1.6c-45.4,0-82.2-0.7-82.2-1.6s36.8-1.6,82.2-1.6
					C1125.1,167.1,1161.9,167.8,1161.9,168.7z"/>
			</g>
		</g>
	</g>
	<g>
		<g>
			<g>
				<ellipse class="st1" cx="914.1" cy="548.6" rx="1.6" ry="225.3"/>
			</g>
		</g>
	</g>
	<g>
		<g>
			<g>
				<path class="st1" d="M1110.3,642.6c0,0.9-43,1.6-96,1.6s-96-0.7-96-1.6s43-1.6,96-1.6S1110.3,641.7,1110.3,642.6z"/>
			</g>
		</g>
	</g>
	<g>
		<g>
			<g>
				<path class="st1" d="M1104.1,473.5c0.3,0,0.4,2.9,0.3,7.9c0,2.5-0.1,5.5-0.3,8.9c-0.1,1.7-0.2,3.5-0.2,5.4c0,1-0.1,1.9-0.1,2.9
					c-0.1,1.6-0.2,3.3-0.3,5c-0.9-0.3-1.9-0.6-2.8-0.9c-0.5-0.1-0.9-0.3-1.4-0.4l-0.9-0.3c-1.1-0.3-2.3-0.6-3.4-0.9
					c-1.2-0.3-2.4-0.5-3.6-0.7c-0.6-0.1-1.2-0.2-1.9-0.3c-1.1-0.1-2.2-0.3-3.3-0.4c-0.1-2.4-0.1-4.8-0.2-7.2
					c-0.3-13.5-0.4-25.7-0.3-34.5c0-2.2,0.1-4.4,0.9-6.2c0.4-0.9,0.9-1.7,1.7-2.3c0.7-0.5,1.4-0.9,2.1-1c1.4-0.3,2.5,0.1,3.1,0.5
					c0.6,0.5,0.7,0.9,0.6,0.9c-0.1,0.1-0.4-0.2-0.9-0.3c-0.5-0.2-1.4-0.3-2.4,0.1c-0.5,0.2-1,0.5-1.4,1c-0.4,0.4-0.8,1-1,1.8
					c-0.5,1.5-0.4,3.3-0.3,5.5c0.5,8.8,1,21,1.3,34.5c0,1.5,0.1,3,0.1,4.4l0.6,0.1c0.7,0.1,1.3,0.2,1.9,0.3c1.3,0.2,2.5,0.5,3.8,0.8
					c1.2,0.3,2.4,0.6,3.6,1l0.8,0.2l0.3,0.1c0.2,0.1,0.3,0.1,0.5,0.2c0-0.1,0-0.3,0.1-0.4l0-0.2l0-0.1l0-0.3c0.1-1,0.2-2,0.3-2.9
					c0.2-1.9,0.4-3.7,0.5-5.4c0.3-3.4,0.7-6.4,1-8.9C1103.3,476.3,1103.8,473.5,1104.1,473.5z"/>
			</g>
		</g>
	</g>
</g>
<g id="guy">
	<g id="leg_right">
		<path id="XMLID_68_" class="st0" d="M934.3,735.7c-0.8,8.1-2,20.3-3.2,35c-3,35-4,54-5.5,75.7c-3.1,44.9-4.3,39.9-9.7,104.2
			c-4.3,51.4-5.2,74.4-5.5,83.5c-0.9,25.3-0.8,46.4-0.6,61.2c6.4,2.4,16.7,5.4,29.5,5.2c18.3-0.3,31.9-6.9,38.5-10.7
			c4.6-38.2,9-76.4,13.3-114.6c5.7-51.4,11.1-102.8,16.1-154.3c17.5-21.5,16.9-52.8-1.2-73.5C988.1,727.1,957.9,722.1,934.3,735.7z"
			/>
		<path id="XMLID_9_" d="M926.4,1102.1c-1.5,9-2.9,17.9-4.4,26.9c-7.6,3-14.1,4.8-18.5,5.8c-10.9,2.5-14.8,1.8-24,5.1
			c-4.9,1.7-9.8,3.5-14.9,7.6c-6.2,5-9.5,10.8-11.2,14.5c4.8,0,11.8-0.1,20.3-0.7c5.8-0.4,17.9-1.4,44.6-6.2
			c10.8-1.9,24.9-4.6,41.4-8.3c0-15.8,0-31.7,0-47.5c-4.5,1.4-10.3,2.7-17.1,3.3C936.4,1103,930.8,1102.7,926.4,1102.1z"/>
		<g id="XMLID_427_">
			<g>
				<g>
					<path class="st1" d="M910.3,1093c-0.1,0-0.3-1.2-0.4-3.6c-0.2-2.4-0.4-5.9-0.5-10.4c-0.3-9.1-0.4-22.2,0-38.4
						c0.4-16.2,1.4-35.5,2.9-56.9c1.5-21.4,3.4-44.8,5.4-69.5c4-49.3,7.8-93.8,10.7-126.1c1.5-16.1,2.7-29.2,3.6-38.2
						c0.5-4.5,0.8-8,1.1-10.4c0.3-2.4,0.5-3.6,0.6-3.6s0.1,1.3,0,3.7c-0.1,2.4-0.3,5.9-0.5,10.4c-0.5,9-1.4,22.1-2.6,38.3
						c-2.3,32.3-5.8,76.9-9.7,126.2c-2,24.6-3.9,48.1-5.7,69.4c-1.7,21.3-2.9,40.6-3.6,56.7c-0.7,16.2-0.9,29.3-1,38.3
						c0,4.5-0.1,8-0.1,10.4C910.5,1091.8,910.5,1093,910.3,1093z"/>
				</g>
			</g>
		</g>
		<g id="XMLID_475_">
			<g>
				<g>
					<path class="st1" d="M977.7,1084.3c-0.2,0,0-3.7,0.7-10.4c0.7-6.7,1.7-16.3,3.1-28.2c2.7-23.8,6.4-56.7,10.6-93
						c4-36.3,7.6-69.2,10.2-93c1.3-11.9,2.4-21.5,3.2-28.2c0.8-6.7,1.4-10.3,1.6-10.3c0.2,0,0.1,3.7-0.3,10.4
						c-0.4,6.7-1.2,16.4-2.2,28.3c-2,23.9-5.2,56.8-9.2,93.2c-4.1,36.3-8.2,69.2-11.5,92.9c-1.6,11.9-3.1,21.5-4.1,28.1
						C978.6,1080.7,977.9,1084.3,977.7,1084.3z"/>
				</g>
			</g>
		</g>
		<g id="XMLID_483_">
			<g>
				<g>
					<path class="st1" d="M979.2,1088.5c0.1,0.2-0.6,0.9-2,2.2c-0.4,0.3-0.8,0.6-1.2,1c-0.5,0.3-1,0.7-1.5,1.1
						c-1.1,0.7-2.3,1.7-3.8,2.4c-0.7,0.4-1.5,0.8-2.3,1.3c-0.8,0.4-1.7,0.8-2.6,1.2c-1.8,0.9-3.8,1.5-5.9,2.3
						c-4.2,1.3-9.1,2.4-14.2,2.9c-5.1,0.4-10.1,0.2-14.5-0.5c-2.2-0.4-4.3-0.7-6.2-1.3c-1-0.3-1.9-0.5-2.8-0.8
						c-0.9-0.3-1.7-0.6-2.5-0.9c-1.6-0.5-3-1.2-4.2-1.8c-0.6-0.3-1.2-0.5-1.7-0.8c-0.5-0.3-0.9-0.6-1.3-0.8c-1.6-1-2.4-1.6-2.3-1.8
						c0.1-0.2,1.1,0.1,2.8,0.7c0.4,0.2,0.9,0.3,1.4,0.5c0.5,0.2,1.1,0.3,1.7,0.5c1.2,0.4,2.6,0.9,4.2,1.2c0.8,0.2,1.6,0.4,2.5,0.6
						c0.9,0.2,1.8,0.4,2.7,0.5c1.8,0.4,3.9,0.6,6,0.9c4.2,0.4,8.9,0.6,13.8,0.2c4.9-0.4,9.5-1.4,13.6-2.5c2-0.6,4-1.2,5.7-1.9
						c0.9-0.3,1.8-0.6,2.6-1c0.8-0.4,1.6-0.7,2.3-1c1.5-0.6,2.8-1.4,3.9-1.9c0.6-0.3,1.1-0.6,1.6-0.8c0.5-0.3,0.9-0.5,1.3-0.8
						C978.1,1088.7,979.1,1088.3,979.2,1088.5z"/>
				</g>
			</g>
		</g>
		<g id="XMLID_491_">
			<g>
				<g>
					<path class="st1" d="M923,1132.8c-0.9-0.1-0.6-7.4-0.1-16.3c0.5-8.9,1-16.2,2-16.2c0.9,0,1.8,7.3,1.3,16.4
						C925.7,1125.7,923.9,1132.9,923,1132.8z"/>
				</g>
			</g>
		</g>
		<g id="XMLID_499_">
			<g>
				<g>
					<path class="st1" d="M960.4,1145.9c0,0.2-2.5,0.9-7,1.9c-4.5,1-11.1,2.3-19.3,3.9c-8.2,1.6-17.9,3.4-28.7,5.4
						c-5.4,1-11.1,2-17,3.1c-5.9,1-12,2.2-18.5,2.7c-3.2,0.3-6.4,0.3-9.6,0c-0.8-0.1-1.6-0.1-2.4-0.2c-0.4-0.1-0.8-0.1-1.2-0.2
						l-1.3-0.2c-1.3-0.2-2.6-0.6-3.8-0.8l-0.5-0.1l-0.2-0.1l-0.1,0c-0.1,0,0-0.1,0-0.1l0.5-0.9c0.3-0.6,0.6-1.1,0.9-1.7l1-1.7
						c0.1-0.1,0.2-0.3,0.2-0.4l0.2-0.2l0.3-0.5c0.4-0.6,0.9-1.2,1.4-1.9c1-1.2,2-2.3,3.1-3.3c2.2-2.1,4.5-3.8,7-5.3
						c4.8-3,9.9-4.9,14.6-6.3c4.8-1.4,9.2-2.3,13.3-3.2c8.1-1.7,14.7-3,19.3-3.8c4.6-0.8,7.1-1.2,7.2-1c0,0.2-2.4,1-6.9,2.2
						c-4.5,1.2-11,2.8-19.1,4.8c-4,1-8.4,2-13,3.5c-4.6,1.5-9.4,3.4-13.8,6.2c-2.2,1.4-4.4,3.1-6.4,5c-1,1-1.9,2-2.8,3.1
						c-0.4,0.6-0.9,1.1-1.2,1.7l-0.3,0.4l-0.1,0.2l-0.1,0.1l-0.1,0.2l-0.1,0.2l-0.1,0.1c0,0,0.1,0,0.1,0c0.2,0,0.4,0.1,0.6,0.1
						l0.9,0.2c0.4,0.1,0.7,0.1,1.1,0.1c0.7,0.1,1.5,0.2,2.2,0.2c3,0.2,6,0.2,9.1-0.1c6.2-0.5,12.3-1.6,18.1-2.6c5.9-1,11.6-2,17-2.9
						c10.8-1.8,20.6-3.4,28.8-4.7c8.2-1.3,14.9-2.3,19.5-2.9S960.3,1145.7,960.4,1145.9z"/>
				</g>
			</g>
		</g>
		<g id="XMLID_507_">
			<g>
				<g>
					<path class="st1" d="M959.2,1145.1c-0.9,0.1-2.2-10.3-2.3-23.2c-0.1-12.9,1-23.3,1.9-23.3c0.9,0,1.2,10.4,1.4,23.2
						C960.3,1134.6,960.1,1145,959.2,1145.1z"/>
				</g>
			</g>
		</g>
	</g>
	<g id="leg_left">
		<path id="XMLID_20_" class="st0" d="M1008.4,801.7c0.4,13.7,1,33.2,2,56.8c1.1,28.3,1.9,42.4,2.6,55c1.5,26.7,2.9,23.3,7.8,74.4
			c2.7,28.6,2.7,33.6,5.2,55.7c2.3,20.2,4.7,36.8,6.5,47.9c3.3,2.5,8.4,5.9,15.2,8.4c9.5,3.5,17.5,3.6,22.7,3.6
			c11.9,0,21.4-2.9,27.2-5.2c10.1-3.9,17.4-9.3,22-13.3c-1.8-11.9-4.2-27.8-6.8-46.6c-3.3-23.3-8.7-62.8-13.9-111.7
			c-2.4-22.5-4.7-49.4-9.4-103.3c-2.4-27.7-4.3-50.2-5.5-64.7c-2.4-5.1-11.4-22.4-29-27.3c-23.3-6.5-53.9,10.5-66.8,44.4
			C994.7,784.5,1001.5,793.1,1008.4,801.7z"/>
		<path id="XMLID_10_" d="M1055.2,1102c0.6,2.3,1.4,5.9,2.2,10.2c1.8,10.4,1.7,17.2,2.2,25.8c0.3,5.8,1,14,2.5,24
			c10.2,0.4,18.6,0.4,24.7,0.4c16.3-0.2,30.7-0.4,48.6-3.6c7-1.3,12.7-2.7,16.3-3.6c-1.3-3.2-3.8-8-8.7-11.6c-6-4.5-12.6-5-20.3-5.1
			c-9.6-0.1-23.5,0.6-40.6,4c-0.5-13.5-1-27.1-1.5-40.6C1072.1,1101.7,1063.6,1101.9,1055.2,1102z"/>
		<g id="XMLID_435_">
			<g>
				<g>
					<path class="st1" d="M1012.5,801.3c-0.6,0.6-6.7-4.6-13.4-11.6c-6.8-7-11.7-13.2-11.1-13.9c0.6-0.6,6.7,4.6,13.4,11.6
						S1013.1,800.7,1012.5,801.3z"/>
				</g>
			</g>
		</g>
		<g id="XMLID_443_">
			<g>
				<g>
					<path class="st1" d="M1032.1,1088.4c-0.1,0-0.4-1-0.8-2.9s-0.9-4.7-1.6-8.4c-0.6-3.6-1.4-8.1-2.2-13.3
						c-0.8-5.2-1.7-11.1-2.6-17.7c-0.9-6.6-1.9-13.7-2.9-21.5c-1-7.7-2-16-3-24.7c-2-17.4-3.9-36.6-5.6-56.7
						c-1.6-20.1-2.8-39.4-3.7-56.9c-0.4-8.7-0.8-17.1-1-24.8c-0.3-7.8-0.5-15-0.6-21.7c-0.2-6.6-0.2-12.6-0.3-17.9
						c-0.1-5.3,0-9.8,0-13.5c0-3.7,0.1-6.6,0.2-8.5c0.1-2,0.2-3,0.3-3c0.1,0,0.2,1,0.4,3s0.3,4.8,0.4,8.5c0.3,7.4,0.7,18.1,1.3,31.3
						c0.3,6.6,0.6,13.8,1,21.6c0.4,7.8,0.9,16.1,1.3,24.8c1.1,17.5,2.4,36.6,4,56.8c1.7,20.1,3.5,39.3,5.3,56.6
						c0.9,8.7,1.8,17,2.7,24.7c0.9,7.7,1.7,14.9,2.5,21.5c1.6,13.1,2.9,23.8,3.8,31.1c0.4,3.7,0.8,6.5,0.9,8.5
						C1032.2,1087.3,1032.2,1088.4,1032.1,1088.4z"/>
				</g>
			</g>
		</g>
		<g id="XMLID_467_">
			<g>
				<g>
					<path class="st1" d="M1118.9,1085.6c-0.1,0-0.4-1.1-0.8-3.2s-1-5.3-1.6-9.3c-0.7-4.1-1.5-9-2.4-14.8
						c-0.9-5.8-1.9-12.4-2.9-19.7c-2.1-14.6-4.4-32-6.9-51.3c-2.4-19.3-4.9-40.6-7.2-63c-2.3-22.4-4.3-43.7-6-63.1
						c-1.6-19.4-2.9-36.9-3.9-51.6c-0.5-7.3-0.9-14-1.2-19.8c-0.3-5.8-0.6-10.9-0.8-15c-0.2-4.1-0.3-7.3-0.3-9.5
						c0-2.2,0-3.3,0.1-3.3s0.3,1.1,0.5,3.3c0.2,2.2,0.6,5.3,0.9,9.4c0.7,8.2,1.7,20.1,3,34.8c1.2,14.7,2.8,32.1,4.6,51.5
						c1.8,19.4,3.9,40.7,6.2,63c2.3,22.3,4.7,43.6,7,63c2.3,19.3,4.4,36.7,6.2,51.4c1.8,14.6,3.3,26.4,4.3,34.6
						c0.5,4.1,0.8,7.3,1,9.4S1119,1085.6,1118.9,1085.6z"/>
				</g>
			</g>
		</g>
		<g id="XMLID_515_">
			<g>
				<g>
					<path class="st1" d="M1113.8,1086.8c0.2,0.2-0.6,1.2-2.3,2.8c-0.8,0.8-1.9,1.7-3.2,2.8c-1.4,0.9-2.9,2.1-4.7,3.1
						c-3.6,2.1-8.2,4.1-13.5,5.5c-5.3,1.4-11.3,2.3-17.7,2.6c-6.3,0.2-12.3-0.2-17.8-1c-5.4-0.8-10.3-2.1-14.1-3.9
						c-3.8-1.8-6.5-4.2-7.9-6c-0.7-1-1.2-1.7-1.4-2.3c-0.3-0.6-0.3-0.9-0.3-0.9s0.4,0.1,0.8,0.6c0.4,0.4,1,1,1.8,1.8
						c1.6,1.5,4.2,3.4,7.9,4.8c3.7,1.5,8.3,2.5,13.6,3.1c5.3,0.6,11.2,0.9,17.3,0.7c6.1-0.2,11.9-1,17-2.2c5.1-1.2,9.6-2.9,13.2-4.7
						C1109.7,1090,1113.4,1086.4,1113.8,1086.8z"/>
				</g>
			</g>
		</g>
		<g id="XMLID_523_">
			<g>
				<g>
					<path class="st1" d="M1060.9,1146.4c-0.9,0.1-2.7-9.1-4-20.5c-1.3-11.4-1.7-20.7-0.8-20.8s2.7,9,4,20.5
						C1061.5,1137,1061.8,1146.3,1060.9,1146.4z"/>
				</g>
			</g>
		</g>
		<g id="XMLID_531_">
			<g>
				<g>
					<path class="st1" d="M1082.8,1142.9c-0.9,0.1-2.8-9-3.6-20.5c-0.8-11.5,0-20.8,0.9-20.8c0.9,0,1.6,9.2,2.3,20.6
						C1083.2,1133.5,1083.7,1142.7,1082.8,1142.9z"/>
				</g>
			</g>
		</g>
		<g id="XMLID_539_">
			<g>
				<g>
					<path class="st1" d="M1151.1,1153.4c-0.2,0.1-0.6-0.9-1.6-2.5c-1-1.5-2.8-3.5-5.5-5.2c-2.7-1.7-6.4-2.8-10.8-3.3
						c-4.3-0.5-9.3-0.4-14.4-0.4c-10.3,0.2-19.7,0.9-26.5,1.1c-6.8,0.2-11,0.1-11.1-0.3c0-0.4,4.1-1.2,10.9-2
						c6.8-0.8,16.1-1.8,26.6-2c5.2-0.1,10.2,0,14.9,0.7c4.6,0.7,8.8,2.2,11.7,4.4c2.9,2.1,4.6,4.7,5.3,6.5
						C1151.3,1152.3,1151.2,1153.4,1151.1,1153.4z"/>
				</g>
			</g>
		</g>
		<g id="XMLID_547_">
			<g>
				<g>
					<path class="st1" d="M1150,1155.2c0.1,0.4-6.1,1.8-16,3.4c-10,1.6-23.8,3.7-39.3,4.6c-7.7,0.5-15.1,0.6-21.8,0.4
						c-1.7,0-3.3-0.1-4.9-0.2c-1.5-0.1-3.3,0-5.1-1c-0.9-0.5-1.6-1.3-2-2.1c-0.4-0.8-0.6-1.6-0.8-2.3c-0.3-1.4-0.5-2.7-0.6-4
						c-0.6-5.1-0.5-9.3-0.3-12.1c0.3-2.8,0.7-4.4,0.9-4.4c0.2,0,0.3,1.6,0.4,4.4c0.1,2.8,0.4,6.8,1.3,11.7c0.2,1.2,0.5,2.5,0.8,3.8
						c0.2,0.6,0.4,1.2,0.6,1.6c0.3,0.5,0.6,0.7,1,1c0.9,0.5,2.3,0.5,3.9,0.5c1.6,0,3.2,0,4.8,0.1c6.6,0,13.9-0.2,21.6-0.7
						c15.3-1,29.1-2.6,39.2-3.7C1143.7,1155.3,1149.9,1154.7,1150,1155.2z"/>
				</g>
			</g>
		</g>
	</g>
	<g id="torso">
		<path id="XMLID_66_" class="st0" d="M1081.9,761.2c5.2-1.7,10.4-3.5,15.5-5.2c-1.6-19.3-3.2-38.6-4.9-57.9
			c6-9.8,13.2-23.4,18.8-40.5c2-6.1,5.9-19.1,8.1-36.3c1-8.2,3.6-32.7-2.3-64.1c-1.9-10.2-3.8-20.3-9.1-33.3
			c-12.2-30.2-31.3-47.8-36.6-52.4c-9.3-8.2-18.2-13.7-24.6-17.2c-1.5,1.6-4.2,4.3-8.4,6.1c-3.1,1.3-5.8,1.8-7.8,1.9
			c-10.6,20.9-20.7,45.6-28.1,74c-25.9,98.8-4.5,184.9,10.8,230c5,1.5,10.7,2.9,17.1,3.6C1053,772.4,1071.4,766,1081.9,761.2z"/>
		<path id="XMLID_11_" class="st0" d="M991.6,468.2c-6.3,0-14.5,0.9-24,1.9c-21.4,2.4-27,4.9-30.4,6.8c-7.5,4.2-12.7,10-16.2,15.2
			c-5.7,0.7-13.7,2.2-22.7,5.8c-3.5,1.4-19.8,8.4-34.3,25.2c-14.7,17.1-19.1,34.6-21,42.4c-4.7,19.2-3.1,35.5-1.3,45.3
			c1,18.3,1.9,36.7,2.9,55c-2.9,0-5.5,1.3-6.8,3.6c-1.8,3.2-0.6,7.9,3.2,10.4c-0.5,4.3-0.6,7.8-0.6,10.4c-0.1,8.6-0.1,15,3.2,21.7
			c1.3,2.7,2.9,4.6,3.9,5.8c0.1,1.9,0.5,5.4,2.6,9.1c2.8,5.1,7,7.5,8.7,8.4c-0.4,1.2-1.4,5.1,0.6,8.4c1.7,2.7,4.6,3.8,7.4,4.5
			c11.4,2.9,21.7,0.3,21.7,0.3c8.6-2.1,22.1-4,44-2.9c38.1-0.1,76.1-0.2,114.2-0.3c15.3-33.5,45.7-108.8,37.6-181.6
			c-2-18.4-6.3-35-16.9-50.8C1049.7,486.3,1018.2,468.4,991.6,468.2z"/>
		<path id="XMLID_8_" d="M920.5,668.3c-3.1-2.2-4.8-5.9-4.4-9.6c0.7-5.8,6.5-8.1,7.2-8.4c4-1.5,9.1-0.8,12.4,2.8
			c2.7,3,3.8,7.6,2,11.6c-1.6,3.4-4.7,4.8-5.6,5.2c0.1,8.2,0.3,16.5,0.4,24.7c-2.9-0.1-5.8-0.3-8.8-0.4
			C922.6,685.5,921.5,676.9,920.5,668.3z"/>
		<g id="XMLID_147_">
			<g id="XMLID_220_">
				<g id="XMLID_224_">
					<path id="XMLID_225_" class="st1" d="M1047,732.3c-0.1-0.3,4.5-1.5,11.9-5.3c3.7-2,8-4.7,12.7-8.3c4.6-3.7,9.5-8.4,14.2-14.2
						c4.7-5.8,9.1-12.7,13-20.5c3.9-7.8,7.3-16.6,10.2-26c2.8-9.5,5.3-19.6,6.9-30.2c1.7-10.6,2.6-21.7,2.8-33.1
						c0.3-22.8-3-44.5-8.3-63.5c-2.7-9.5-6.7-18-11.2-25.4c-4.6-7.5-9.8-13.8-14.8-19.3c-10.2-10.9-19.9-18.4-26.5-23.5
						c-1.7-1.3-3.2-2.4-4.5-3.4c-1.3-1-2.4-1.8-3.3-2.4c-1.8-1.3-2.7-2.1-2.6-2.2s1.1,0.5,3,1.6c1,0.6,2.1,1.3,3.5,2.2
						c1.4,0.9,2.9,1.9,4.7,3.1c6.9,4.8,16.8,12,27.4,22.9c5.3,5.5,10.7,11.8,15.5,19.4c4.8,7.5,9,16.3,11.8,26
						c5.6,19.2,9.1,41.2,8.7,64.4c-0.1,11.6-1.1,22.8-2.9,33.6c-1.8,10.8-4.3,21-7.2,30.6c-3,9.6-6.6,18.4-10.7,26.4
						c-4.1,7.9-8.8,14.9-13.6,20.7c-4.9,5.8-10,10.5-14.8,14.1c-4.8,3.6-9.4,6.2-13.2,8c-3.8,1.8-7,2.8-9.1,3.5
						C1048.2,732.2,1047.1,732.4,1047,732.3z"/>
				</g>
			</g>
		</g>
		<g id="XMLID_155_">
			<g id="XMLID_228_">
				<g id="XMLID_232_">
					<path id="XMLID_233_" class="st1" d="M1024.6,686.5c-0.2-0.2,1.1-1.7,3.5-4.5c0.6-0.7,1.3-1.4,2-2.2c0.7-0.8,1.4-1.8,2.3-2.8
						c1.6-2,3.5-4.2,5.3-6.9c0.9-1.3,1.9-2.7,2.9-4.1c1-1.4,1.9-3.1,2.9-4.7c1-1.6,2.1-3.2,3-5.1c0.9-1.8,1.9-3.6,2.9-5.5
						c3.7-7.7,7.2-16.4,9.9-25.9c2.5-9.5,3.9-18.8,4.5-27.3c0.1-2.1,0.2-4.2,0.3-6.2c0.2-2,0-4,0-5.9c-0.1-1.9,0-3.7-0.2-5.5
						c-0.2-1.8-0.3-3.4-0.5-5.1c-0.2-3.2-0.8-6.1-1.1-8.7c-0.2-1.3-0.3-2.5-0.5-3.6c-0.2-1.1-0.4-2.1-0.6-3c-0.7-3.6-1-5.6-0.8-5.6
						s0.9,1.8,2.1,5.3c0.3,0.9,0.6,1.9,0.9,2.9c0.3,1.1,0.5,2.3,0.8,3.5c0.5,2.6,1.3,5.5,1.6,8.7c0.2,1.6,0.4,3.3,0.7,5.1
						c0.2,1.8,0.2,3.7,0.4,5.6c0.1,1.9,0.3,3.9,0.2,6c0,2.1-0.1,4.2-0.1,6.4c-0.5,8.7-1.8,18.3-4.4,28c-2.7,9.7-6.4,18.6-10.3,26.4
						c-1.1,1.9-2.1,3.8-3.1,5.6c-1,1.8-2.2,3.5-3.2,5.1c-1.1,1.6-2.1,3.2-3.1,4.6c-1.1,1.4-2.2,2.8-3.2,4.1
						c-1.9,2.7-4.1,4.8-5.8,6.7c-0.9,1-1.7,1.9-2.5,2.7c-0.8,0.8-1.6,1.4-2.3,2.1C1026.3,685.4,1024.7,686.6,1024.6,686.5z"/>
				</g>
			</g>
		</g>
		<g id="XMLID_163_">
			<g id="XMLID_236_">
				<g id="XMLID_240_">
					<path id="XMLID_241_" class="st1" d="M1047.5,733.3c-1,0.2-3.8-11.4-10.5-24.5c-6.6-13.1-14.3-22.3-13.5-22.9
						c0.3-0.3,2.7,1.7,5.9,5.4c1.6,1.9,3.4,4.2,5.2,6.9c1.8,2.7,3.6,5.8,5.4,9.1c1.7,3.4,3.1,6.7,4.2,9.7c1.1,3.1,1.9,5.9,2.5,8.3
						C1047.8,730.2,1048,733.3,1047.5,733.3z"/>
				</g>
			</g>
		</g>
		<g id="XMLID_171_">
			<g id="XMLID_244_">
				<g id="XMLID_248_">
					<path id="XMLID_249_" class="st1" d="M992,468.2c0.1,0.9-17.6,4-39.4,7.1c-5.4,0.8-10.4,1.9-14.8,3.6
						c-4.3,1.6-7.9,3.8-10.6,6.1c-2.7,2.2-4.4,4.5-5.5,6.1c-1.1,1.6-1.6,2.7-1.9,2.6c-0.2-0.1-0.1-1.2,0.7-3.2
						c0.8-1.9,2.4-4.6,5.1-7.2c2.7-2.7,6.4-5.3,11-7.2c4.6-1.9,9.9-3.2,15.4-4C974,469,991.8,467.3,992,468.2z"/>
				</g>
			</g>
		</g>
		<g id="XMLID_179_">
			<g id="XMLID_252_">
				<g id="XMLID_256_">
					<path id="XMLID_257_" class="st1" d="M1017.6,650c-0.2,0-0.4-2.8-0.5-7.9c-0.1-5.1-0.1-12.5,0-21.7c0.3-18.3,1.4-43.6,3.9-71.4
						c1.2-13.9,2.7-27.1,4.3-39.1c1.6-12,3-22.8,5.4-31.8c1.2-4.5,2.6-8.4,4.1-11.8c1.5-3.4,3.3-6.2,5.2-8c1.9-1.9,3.9-2.8,5.2-3.1
						c1.4-0.3,2.1-0.2,2.1-0.1c0,0.1-0.7,0.2-1.9,0.7c-1.2,0.5-2.9,1.5-4.5,3.3c-1.6,1.9-3.1,4.5-4.4,7.9c-1.3,3.3-2.5,7.2-3.5,11.7
						c-2.1,8.8-3.2,19.6-4.6,31.6c-1.4,12-2.8,25.2-4,39.1c-2.5,27.7-4,52.9-4.8,71.2c-0.4,9.1-0.8,16.5-1,21.6
						C1018.1,647.2,1017.8,650,1017.6,650z"/>
				</g>
			</g>
		</g>
		<g id="XMLID_187_">
			<g id="XMLID_260_">
				<g id="XMLID_264_">
					<path id="XMLID_265_" class="st1" d="M1017.8,656.9c-0.2,0,0-2.9,0.6-8.2c0.6-5.2,1.7-12.8,3.3-22.1c1.7-9.3,3.9-20.3,6.9-32.4
						c1.5-6,3.2-12.4,5.1-18.9c0.9-3.3,1.9-6.6,2.9-9.9c1-3.3,2.1-6.7,3-10.1c0.9-3.4,1.6-6.8,1.9-10.2c0.3-3.4,0.2-6.7-0.3-9.9
						c-0.9-6.5-3-12.6-4.5-18.8c-0.3-1.6-0.6-3.2-0.6-4.9c0-1.7,0.4-3.4,1-4.8c0.5-1.5,1.2-2.8,1.9-4.1c0.7-1.3,1.4-2.5,2.1-3.7
						c2.9-4.8,5.8-9,8-13.1c4.7-8,5.7-15.7,4.7-20.7c-0.4-2.5-1.2-4.4-1.8-5.6c-0.6-1.2-1-1.8-0.9-1.9c0,0,0.2,0.1,0.4,0.3
						c0.2,0.3,0.6,0.6,1,1.2c0.8,1.1,1.9,3,2.5,5.7c0.3,1.3,0.5,2.8,0.6,4.5c0.1,1.6,0,3.4-0.3,5.3c-0.5,3.8-2,8-4.2,12.2
						c-2.2,4.3-5,8.6-7.7,13.3c-0.7,1.2-1.3,2.4-1.9,3.7c-0.6,1.3-1.2,2.5-1.7,3.8c-0.4,1.3-0.7,2.6-0.7,3.9c0,1.3,0.2,2.8,0.5,4.2
						c1.5,5.9,3.7,12.2,4.7,19c0.5,3.4,0.7,7.1,0.3,10.7c-0.3,3.6-1.1,7.2-2,10.7c-0.9,3.5-2,6.9-3,10.3c-1,3.3-2,6.6-3,9.9
						c-1.9,6.5-3.6,12.7-5.2,18.7c-3.1,12-5.6,22.9-7.5,32.1c-1.9,9.2-3.3,16.7-4.3,21.8C1018.6,654,1018,656.9,1017.8,656.9z"/>
				</g>
			</g>
		</g>
		<g id="XMLID_195_">
			<g id="XMLID_268_">
				<g id="XMLID_272_">
					<path id="XMLID_273_" class="st1" d="M986.7,515.8c-0.9,0-1.6-10.6-0.5-23.7c1-13.1,3.4-23.4,4.3-23.3c0.9,0.1,0,10.6-1,23.5
						C988.4,505.3,987.6,515.8,986.7,515.8z"/>
				</g>
			</g>
		</g>
		<g id="XMLID_203_">
			<g id="XMLID_276_">
				<g id="XMLID_280_">
					<path id="XMLID_281_" class="st1" d="M860.3,687c-0.3,0.3-2-0.9-4.3-3.4c-1.1-1.2-2.4-2.8-3.6-4.6c-1.3-1.8-2.5-4-3.8-5.9
						c-1.3-1.9-2.8-3.3-4.5-3.9c-0.8-0.3-1.6-0.4-2.3-0.3c-0.4,0.1-0.7,0.1-0.9,0.3c-0.3,0.1-0.6,0.3-0.8,0.5
						c-1,0.8-1.4,1.9-1.4,2.7c-0.1,0.8,0.1,1.3-0.1,1.4c-0.1,0.1-0.8-0.1-1.2-1.2c-0.4-1-0.3-2.8,1-4.4c0.3-0.4,0.7-0.8,1.2-1.1
						c0.5-0.3,1.1-0.6,1.6-0.7c1.2-0.3,2.5-0.3,3.8,0.1c1.3,0.3,2.5,1,3.5,1.8c1.1,0.9,1.9,1.9,2.7,3c0.8,1.1,1.4,2.2,2,3.2
						c0.6,1,1.1,2,1.7,2.9c1.1,1.8,2.1,3.4,3,4.8C859.6,684.9,860.6,686.7,860.3,687z"/>
				</g>
			</g>
		</g>
		<g id="XMLID_211_">
			<g id="XMLID_284_">
				<g id="XMLID_288_">
					<path id="XMLID_289_" class="st1" d="M857.3,689.5c-0.1,0.4-1.8,0.5-4.6-0.2c-2.7-0.7-6.4-2.1-9.7-5.1c-3.3-3-5-6.9-5.3-9.8
						c-0.3-2.9,0.4-4.7,0.8-4.6c0.5,0,0.6,1.7,1.4,4.1c0.8,2.3,2.5,5.4,5.3,7.9c2.8,2.6,6,4.2,8.3,5.4
						C855.9,688.3,857.4,689,857.3,689.5z"/>
				</g>
			</g>
		</g>
		<g id="XMLID_219_">
			<g id="XMLID_292_">
				<g id="XMLID_296_">
					<path id="XMLID_297_" class="st1" d="M861.5,723.4c-0.1,0.2-0.8,0.3-2.2,0c-1.3-0.2-3.2-0.7-5.5-1.6c-2.3-0.9-4.9-2.4-7.3-4.8
						c-1.2-1.2-2.3-2.7-3.1-4.3c-0.9-1.6-1.5-3.4-2-5.2c-0.9-3.7-1.3-7.1-1.6-10.2c-0.3-3.1-0.5-5.9-0.5-8.3
						c-0.1-4.7,0.2-7.7,0.7-7.7c0.5,0,1,2.9,1.6,7.5c0.3,2.3,0.7,5.1,1.2,8.1c0.5,3,0.9,6.4,1.8,9.8c0.8,3.3,2.2,6.2,4.1,8.3
						c1.9,2.1,4.1,3.7,6.1,4.8c2,1.1,3.7,1.9,4.9,2.5C860.9,722.8,861.6,723.2,861.5,723.4z"/>
				</g>
			</g>
		</g>
		<g id="XMLID_227_">
			<g id="XMLID_300_">
				<g id="XMLID_304_">
					<path id="XMLID_305_" class="st1" d="M862.7,715.2c-0.1,0.4-2,0.3-4.9-0.8c-1.4-0.5-3.1-1.4-4.8-2.4c-1.7-1.1-3.5-2.5-5.1-4.2
						c-1.6-1.7-3-3.5-4.1-5.3c-1-1.8-1.8-3.4-2.3-4.9c-1-2.9-1-4.9-0.6-5c0.5-0.1,1.3,1.5,2.7,4c0.7,1.2,1.6,2.7,2.7,4.2
						c1.1,1.5,2.4,3.1,3.9,4.7c1.5,1.5,3.1,2.9,4.5,4c1.5,1.1,2.9,2.1,4.1,2.8C861.2,713.9,862.9,714.7,862.7,715.2z"/>
				</g>
			</g>
		</g>
		<g id="XMLID_235_">
			<g id="XMLID_308_">
				<g id="XMLID_312_">
					<path id="XMLID_313_" class="st1" d="M861.8,714.9c-0.9,0.3-3.8-6.6-8.7-14.2c-4.8-7.7-9.8-13.2-9.1-13.9
						c0.3-0.3,2,0.7,4.2,2.8c2.3,2.1,5.1,5.4,7.6,9.4c2.5,4,4.3,8,5.2,10.9C862.1,712.8,862.3,714.7,861.8,714.9z"/>
				</g>
			</g>
		</g>
		<g id="XMLID_243_">
			<g id="XMLID_316_">
				<g id="XMLID_320_">
					<path id="XMLID_321_" class="st1" d="M861.5,724.5c-0.9-0.1-1.3-2.2-2-4.6c-0.6-2.3-1.3-4.3-0.6-4.9c0.4-0.3,1-0.1,1.8,0.6
						c0.8,0.7,1.5,1.9,1.9,3.4c0.4,1.5,0.4,2.9,0.1,3.9C862.5,724,862,724.6,861.5,724.5z"/>
				</g>
			</g>
		</g>
		<g id="XMLID_251_">
			<g id="XMLID_324_">
				<g id="XMLID_328_">
					<path id="XMLID_329_" class="st1" d="M862,736.5c-0.1,0.4-1.7,0.5-4.1-0.3c-0.6-0.2-1.3-0.5-1.9-0.9c-0.7-0.3-1.3-0.8-2-1.3
						c-1.4-1-2.7-2.3-3.9-3.9c-1.2-1.6-2.1-3.2-2.7-4.8c-0.3-0.8-0.5-1.6-0.7-2.3c-0.2-0.7-0.3-1.4-0.3-2.1
						c-0.2-2.6,0.4-4.1,0.8-4.1c0.5,0,0.8,1.5,1.5,3.6c0.2,0.5,0.4,1.1,0.6,1.7c0.2,0.6,0.5,1.2,0.8,1.9c0.7,1.3,1.5,2.7,2.5,4
						c1,1.3,2.1,2.5,3.2,3.5c0.6,0.5,1.1,0.9,1.6,1.3c0.5,0.4,1,0.8,1.5,1.1C860.8,735.4,862.1,736,862,736.5z"/>
				</g>
			</g>
		</g>
		<g id="XMLID_259_">
			<g id="XMLID_332_">
				<g id="XMLID_336_">
					<path id="XMLID_337_" class="st1" d="M862.7,736c-0.9,0.3-2.6-3-4.6-6.9c-2-3.9-3.5-7.3-2.8-7.8c0.7-0.5,3.6,2.1,5.7,6.3
						C863.1,731.9,863.5,735.8,862.7,736z"/>
				</g>
			</g>
		</g>
		<g id="XMLID_267_">
			<g id="XMLID_340_">
				<g id="XMLID_344_">
					<path id="XMLID_345_" class="st1" d="M841.2,608.4c0.9,0,2.4,13.5,3.6,30.4c1.3,16.8,1.8,30.5,0.9,30.6
						c-0.9,0.1-2.9-13.5-4.2-30.3C840.3,622.1,840.3,608.4,841.2,608.4z"/>
				</g>
			</g>
		</g>
		<g id="XMLID_275_">
			<g id="XMLID_348_">
				<g id="XMLID_352_">
					<path id="XMLID_353_" class="st1" d="M998.2,585.4c-0.2,0-0.7-4.1-1.7-11.5c-0.5-3.7-1.2-8.2-2.2-13.4
						c-1-5.2-2.2-11.1-4.1-17.4c-1.9-6.3-4.4-13.1-8.4-19.7c-1-1.6-2.2-3.2-3.3-4.8c-0.6-0.8-1.2-1.5-1.9-2.3
						c-0.7-0.7-1.3-1.5-2-2.3c-1.5-1.4-2.9-2.9-4.5-4.2c-0.8-0.7-1.6-1.4-2.4-2c-0.9-0.6-1.7-1.2-2.6-1.9
						c-7.1-4.8-15.6-8.5-24.8-10.3c-9.2-1.9-19.1-1.9-28.8,0.2c-4.8,1.1-9.5,2.7-14,4.6c-4.4,2-8.6,4.3-12.5,6.9
						c-3.9,2.6-7.5,5.6-10.9,8.6c-3.4,3.1-6.3,6.4-9.1,9.7c-5.4,6.8-9.7,13.9-12.9,20.9c-3.2,7-5.5,13.9-7,20.3
						c-1.6,6.4-2.5,12.3-3,17.6c-0.5,5.2-0.8,9.8-0.8,13.5c-0.1,7.4,0.1,11.5-0.1,11.6c-0.1,0-0.3-1-0.5-3c-0.1-1-0.3-2.2-0.3-3.6
						c-0.1-1.4-0.2-3.1-0.3-5c-0.2-3.7-0.1-8.3,0.3-13.6c0.4-5.3,1.2-11.4,2.6-17.9c1.5-6.6,3.6-13.7,6.8-20.9
						c3.1-7.3,7.5-14.7,13-21.7c2.8-3.5,5.9-6.9,9.3-10.1c3.5-3.2,7.1-6.3,11.2-9c4.1-2.7,8.4-5.2,13-7.3c4.6-2,9.5-3.7,14.6-4.9
						c10.2-2.3,20.6-2.2,30.1-0.2c9.6,2,18.4,5.9,25.8,11c0.9,0.7,1.8,1.3,2.7,2c0.9,0.7,1.7,1.4,2.5,2.1c1.7,1.4,3.2,3,4.7,4.5
						c0.7,0.8,1.4,1.6,2.1,2.4c0.7,0.8,1.4,1.6,2,2.5c1.2,1.7,2.4,3.3,3.4,5.1c4.1,6.9,6.6,14,8.3,20.4c1.7,6.5,2.8,12.5,3.7,17.7
						c0.8,5.3,1.3,9.8,1.7,13.5c0.3,3.7,0.5,6.6,0.5,8.6C998.4,584.4,998.3,585.4,998.2,585.4z"/>
				</g>
			</g>
		</g>
		<g id="XMLID_283_">
			<g id="XMLID_356_">
				<g id="XMLID_360_">
					<path id="XMLID_361_" class="st1" d="M983.4,581.9c-0.2,0-0.8-3.1-1.6-8.6c-0.5-2.8-1-6.2-1.8-10.1c-0.8-3.9-1.8-8.3-3.4-13
						c-1.6-4.7-3.7-9.7-6.9-14.6c-3.2-4.8-7.3-9.6-12.6-13.2c-2.7-1.8-5.6-3.3-8.8-4.3c-3.2-1.1-6.6-1.7-10.1-2.2
						c-0.9-0.2-1.8-0.2-2.7-0.3c-0.9-0.1-1.8-0.1-2.7-0.2c-0.9,0-1.8,0-2.7,0l-1.4,0l-1.4,0.1c-0.9,0.1-1.8,0.1-2.8,0.2
						c-0.9,0.1-1.8,0.2-2.8,0.3l-1.4,0.2l-1.4,0.3c-0.9,0.2-1.8,0.3-2.8,0.5c-0.9,0.2-1.8,0.5-2.7,0.7l-1.4,0.3l-1.3,0.4
						c-0.9,0.3-1.8,0.6-2.7,0.8c-0.9,0.3-1.7,0.7-2.6,1l-1.3,0.5l-1.2,0.6c-0.8,0.4-1.7,0.7-2.5,1.1c-0.8,0.4-1.6,0.8-2.4,1.2
						c-0.8,0.4-1.6,0.8-2.3,1.3c-6.1,3.6-11.5,7.9-15.9,12.7c-4.4,4.8-7.9,10-10.6,15.2c-2.7,5.2-4.6,10.3-5.9,15.1
						c-0.7,2.4-1.2,4.7-1.6,6.9c-0.4,2.2-0.7,4.3-0.9,6.3c-0.3,2-0.3,3.8-0.4,5.5c-0.1,1.7,0,3.3-0.1,4.7c0.1,2.8,0.2,5,0.3,6.5
						c0.1,1.5,0.1,2.3,0,2.3c-0.1,0-0.3-0.7-0.6-2.2c-0.4-1.5-0.6-3.6-0.9-6.5c-0.1-1.4-0.2-3-0.2-4.7c0-1.7,0-3.6,0.1-5.6
						c0.1-2,0.4-4.2,0.6-6.5c0.4-2.3,0.8-4.7,1.4-7.2c1.2-5,3.1-10.3,5.8-15.7c2.7-5.4,6.2-10.9,10.8-16c4.5-5.1,10.2-9.7,16.5-13.5
						c0.8-0.5,1.6-0.9,2.4-1.4c0.8-0.4,1.7-0.9,2.5-1.3c0.9-0.4,1.7-0.8,2.6-1.2l1.3-0.6l1.3-0.5c0.9-0.3,1.8-0.7,2.7-1
						c0.9-0.3,1.8-0.6,2.8-0.9l1.4-0.4l1.4-0.4c1-0.2,1.9-0.5,2.9-0.7c1-0.2,1.9-0.4,2.9-0.5l1.4-0.3l1.5-0.2c1-0.1,1.9-0.2,2.9-0.3
						c1-0.1,1.9-0.1,2.9-0.2l1.4-0.1l1.4,0c1,0,1.9,0,2.9,0c0.9,0,1.9,0.1,2.8,0.2c0.9,0.1,1.9,0.1,2.8,0.3
						c3.7,0.5,7.3,1.2,10.7,2.4c3.4,1.2,6.7,2.8,9.5,4.8c5.7,4,10,9.1,13.2,14.2c3.2,5.2,5.3,10.5,6.8,15.3c1.5,4.9,2.4,9.4,3,13.4
						c0.6,4,1,7.4,1.3,10.3C983.5,578.7,983.6,581.8,983.4,581.9z"/>
				</g>
			</g>
		</g>
		<g id="XMLID_291_">
			<g id="XMLID_364_">
				<g id="XMLID_368_">
					<path id="XMLID_369_" class="st1" d="M1025.3,695c-0.4,0.1-2-6.5-4.2-17.2c-2.2-10.7-4.9-25.6-7.8-42
						c-1.9-10.8-3.5-20.9-4.9-29.6c-0.7-4.4-1.3-8.4-1.8-12c-0.3-1.8-0.5-3.5-0.7-5c-0.1-0.8-0.2-1.5-0.3-2.3c0-0.2,0-0.4-0.1-0.5
						l0-0.3c0-0.2,0-0.4-0.1-0.6c-0.2-0.1-0.4-0.1-0.6-0.2l-0.3-0.1c-0.2,0-0.3-0.1-0.5-0.1c-0.6-0.1-1.2-0.3-1.7-0.4
						c-1.1-0.3-2-0.5-2.7-0.7c-1.5-0.4-2.2-0.7-2.2-0.9c0-0.2,0.8-0.2,2.4,0c0.8,0.1,1.7,0.2,2.8,0.3c0.5,0.1,1.1,0.1,1.7,0.2
						c0.4,0.1,0.7,0.1,1.1,0.2c0.5,0.1,0.9,0.1,1.4,0.2c0.6,2.8,1.3,6.1,2,9.8c0.7,3.6,1.5,7.6,2.3,11.9c1.6,8.7,3.5,18.8,5.3,29.5
						c2.8,16.4,5.2,31.3,6.8,42.2S1025.7,694.9,1025.3,695z"/>
				</g>
			</g>
		</g>
		<g id="XMLID_299_">
			<g id="XMLID_372_">
				<g id="XMLID_376_">
					<path id="XMLID_377_" class="st1" d="M863.2,599.6c0.4,0,0.7,1.9-0.4,4.8c-1,2.8-3.7,6.3-8,8.3c-2.1,1-4.4,1.5-6.4,1.4
						c-2.1,0-3.9-0.6-5.3-1.4c-1.4-0.8-2.2-2-2.4-2.9c-0.2-0.9,0-1.4,0.2-1.4c0.5-0.1,1,1.5,3.3,2.3c1.1,0.4,2.6,0.6,4.1,0.5
						c1.6-0.1,3.4-0.6,5.1-1.4c3.5-1.6,6-4.3,7.3-6.4C862.2,601.2,862.7,599.5,863.2,599.6z"/>
				</g>
			</g>
		</g>
		<g id="XMLID_307_">
			<g id="XMLID_380_">
				<g id="XMLID_384_">
					<path id="XMLID_385_" class="st1" d="M997.1,584.6c0.2,0,0.5,0.4,0.6,1.2c0.1,0.8-0.1,2-0.8,3.3c-0.7,1.3-2,2.7-3.9,3.4
						c-1.9,0.8-4.3,0.7-6.4-0.2c-2.1-0.9-3.8-2.6-4.6-4.4c-0.9-1.8-1.1-3.5-1-4.9c0.1-1.4,0.5-2.5,0.9-3.2c0.4-0.7,0.8-1,1-0.9
						c0.5,0.2,0.1,1.7,0.5,4c0.2,1.1,0.6,2.4,1.3,3.6c0.7,1.2,1.9,2.2,3.3,2.8c1.4,0.6,2.9,0.7,4.2,0.4c1.2-0.3,2.3-1.1,3-1.9
						C996.5,586.2,996.7,584.6,997.1,584.6z"/>
				</g>
			</g>
		</g>
		<g id="XMLID_315_">
			<g id="XMLID_388_">
				<g id="XMLID_392_">
					<path id="XMLID_393_" class="st1" d="M980.8,584.6c0.1,0.5-6.6,1.6-17.3,3.2c-10.8,1.6-25.6,3.7-42.1,6
						c-16.4,2.3-31.3,4.3-42.1,5.7c-10.8,1.4-17.5,2.1-17.6,1.6c-0.1-0.4,6.5-1.9,17.2-3.9c10.7-2,25.6-4.4,42-6.6
						c16.5-2.3,31.4-4,42.2-5C974,584.5,980.7,584.1,980.8,584.6z"/>
				</g>
			</g>
		</g>
		<g id="XMLID_323_">
			<g id="XMLID_396_">
				<g id="XMLID_400_">
					<path id="XMLID_401_" class="st1" d="M972.9,593.3c0.1,0.9-23.6,5-53,9.1c-29.4,4.2-53.3,6.8-53.5,5.9c-0.1-0.9,23.6-5,53-9.1
						S972.8,592.4,972.9,593.3z"/>
				</g>
			</g>
		</g>
		<g id="XMLID_331_">
			<g id="XMLID_404_">
				<g id="XMLID_408_">
					<path id="XMLID_409_" class="st1" d="M949.1,744.3c0,0.4-5.4,1.2-14.3,2c-8.9,0.8-21.1,1.7-34.6,2.5c-6.8,0.4-13.2,0.7-19.1,1
						c-2.9,0.1-5.7,0.2-8.4,0.3c-2.6,0.1-5.2,0-7.6-0.7c-1.2-0.3-2.2-0.8-3.2-1.4c-1-0.6-1.7-1.4-2.3-2.2c-1.1-1.6-1.6-3.3-1.5-4.7
						c0-1.4,0.5-2.4,0.9-3c0.4-0.6,0.8-0.7,0.8-0.7c0.1,0.1-0.1,0.4-0.3,1c-0.2,0.6-0.4,1.5-0.2,2.6c0.2,1.1,0.7,2.4,1.7,3.6
						c0.5,0.6,1.1,1.1,1.9,1.5c0.8,0.4,1.7,0.8,2.7,1c2,0.5,4.3,0.4,6.9,0.3c2.6-0.2,5.4-0.4,8.3-0.6c5.9-0.4,12.3-0.8,19.1-1.2
						c13.5-0.8,25.8-1.3,34.7-1.5C943.6,743.7,949.1,743.8,949.1,744.3z"/>
				</g>
			</g>
		</g>
		<g id="XMLID_339_">
			<g id="XMLID_412_">
				<g id="XMLID_416_">
					<path id="XMLID_417_" class="st1" d="M1010.2,718.9c-0.1,0.4-3.7,0.2-9.5-0.6c-1.5-0.2-3-0.4-4.8-0.7c-0.9-0.2-1.9-0.4-2.9-0.8
						c-1-0.4-2.1-1.2-2.8-2.3c-0.4-0.5-0.6-1.2-0.8-1.9c-0.1-0.7-0.1-1.5,0.1-2.3c0.2-0.7,0.7-1.4,1.2-1.9c0.5-0.5,1.1-0.9,1.7-1.2
						c1.1-0.6,2.3-0.9,3.4-1.2c1.1-0.3,2.1-0.5,3.2-0.8c8.7-2.1,16.6-3.8,22.3-4.8c0.7-0.1,1.4-0.3,2.1-0.4c0.7-0.1,1.3-0.2,1.8-0.3
						c1-0.2,1.9-0.6,2.5-1c1.2-0.8,1.1-1.7,1.3-1.8c0.1,0,0.3,0.2,0.3,0.7c0.1,0.5-0.2,1.3-0.8,2c-0.6,0.7-1.6,1.3-2.8,1.8
						c-0.6,0.2-1.2,0.4-1.8,0.6c-0.6,0.2-1.3,0.4-2,0.6c-5.6,1.6-13.4,3.7-22.1,5.8c-1.1,0.3-2.2,0.5-3.2,0.8
						c-1,0.2-1.9,0.5-2.7,0.9c-0.8,0.4-1.2,0.8-1.4,1.2c-0.2,0.4-0.1,1,0.2,1.5c0.6,1.1,2.1,1.7,3.7,2.1c1.7,0.4,3.2,0.7,4.6,1.1
						C1006.8,717.4,1010.3,718.5,1010.2,718.9z"/>
				</g>
			</g>
		</g>
		<g id="XMLID_347_">
			<g id="XMLID_420_">
				<g id="XMLID_424_">
					<path id="XMLID_425_" class="st1" d="M989,743.6c0,0.4-4.9,1.3-13,1.5c-4,0.1-8.8,0-14.2-0.6c-0.3,0-0.7-0.1-1-0.1
						c-0.3,0-1-0.1-1.5-0.3c-1.1-0.3-2-1.2-2.3-2.2c-0.3-1.1,0-2.3,0.8-3.2c0.4-0.5,0.9-0.9,1.4-1.1c0.4-0.2,0.9-0.4,1.3-0.5
						c0.8-0.3,1.5-0.4,2.2-0.6c0.7-0.2,1.4-0.4,2.2-0.6c1.4-0.4,2.9-0.7,4.4-1.1c3-0.7,6-1.2,9-1.4c2.9-0.3,5.7-0.3,8.2-0.7
						c5-0.6,9-2.9,12.3-5c1.6-1.1,3.2-2.1,4.4-3c1.2-0.9,2.2-1.8,2.8-2.6c1.3-1.6,1.2-2.9,1.4-2.9c0.1,0,0.3,0.3,0.3,0.9
						c0,0.6-0.1,1.6-0.7,2.7c-0.6,1.1-1.5,2.2-2.7,3.3c-1.2,1.1-2.6,2.2-4.2,3.5c-1.6,1.2-3.5,2.5-5.7,3.6c-2.2,1.1-4.8,2-7.5,2.5
						c-2.7,0.5-5.5,0.6-8.3,0.9c-2.8,0.3-5.6,0.8-8.6,1.4c-1.5,0.3-2.9,0.7-4.4,1c-0.7,0.2-1.4,0.4-2.1,0.5c-0.7,0.2-1.5,0.3-2,0.5
						c-0.3,0.1-0.5,0.2-0.7,0.3c-0.1,0-0.2,0.1-0.2,0.2c-0.1,0.1-0.2,0.3-0.2,0.5c0,0.2,0.2,0.3,0.4,0.4c0.1,0,0.1,0,0.5,0.1
						c0.3,0,0.7,0.1,1,0.1c5.2,0.7,9.9,1,13.9,1.2C984,743.2,989,743.1,989,743.6z"/>
				</g>
			</g>
		</g>
		<g id="XMLID_355_">
			<g id="XMLID_428_">
				<g id="XMLID_432_">
					<path id="XMLID_433_" class="st1" d="M986.3,750.8c0,0.4-1.5,1-4.1,1.2c-2.6,0.2-6.2,0.1-10-0.7c-1.9-0.4-3.7-1-5.3-1.6
						c-1.6-0.6-3-1.3-4.1-2.1c-1.1-0.8-1.9-1.8-2.1-2.6c-0.3-0.8-0.1-1.3,0.1-1.3c0.2-0.1,0.5,0.2,1,0.6c0.5,0.4,1.2,0.9,2.2,1.3
						c1,0.4,2.4,0.8,4,1.3c1.5,0.4,3.3,0.9,5.1,1.3C980.1,749.7,986.2,749.8,986.3,750.8z"/>
				</g>
			</g>
		</g>
		<g id="XMLID_363_">
			<g id="XMLID_436_">
				<g id="XMLID_440_">
					<path id="XMLID_441_" class="st1" d="M987.5,755.5c0,0.4-1.5,0.9-4.1,1.1c-2.5,0.2-6.1,0.1-10-1c-1.9-0.5-3.7-1.3-5.3-2.1
						c-1.5-0.9-2.8-1.9-3.7-2.8c-1.9-1.9-2.4-3.5-2.1-3.8c0.4-0.3,1.6,0.7,3.6,2c1,0.7,2.2,1.3,3.6,1.9c1.4,0.6,3,1.2,4.8,1.7
						c3.5,1,6.8,1.4,9.2,1.8C985.9,754.7,987.5,755,987.5,755.5z"/>
				</g>
			</g>
		</g>
		<g id="XMLID_371_">
			<g id="XMLID_444_">
				<g id="XMLID_448_">
					<path id="XMLID_449_" class="st1" d="M1038.8,712.8c0.4,0.2-2,4.8-6.6,11.8c-4.5,7-11.3,16.3-19.6,26c-1,1.2-2.1,2.4-3.1,3.5
						c-1,1.2-2,2.3-3.1,3.4c-1.1,1.1-2.4,2.2-3.8,3c-1.5,0.8-3.1,1.2-4.5,1.3c-1.5,0.2-2.9,0.2-4.2,0.2c-1.3,0-2.6-0.1-3.9-0.2
						c-2.5-0.3-4.8-0.7-6.8-1.2c-4.1-1-7.3-2.4-9.3-3.6c-2.1-1.1-3.1-1.9-3-2.1c0.1-0.2,1.3,0.2,3.5,1c2.2,0.7,5.3,1.8,9.3,2.5
						c2,0.4,4.2,0.6,6.6,0.8c1.2,0.1,2.4,0.1,3.7,0.1c1.3,0,2.5-0.1,3.8-0.3c1.2-0.2,2.4-0.5,3.5-1.1c1.1-0.6,2-1.4,3-2.5
						c1-1,2-2.2,3-3.3c1-1.2,2-2.3,3.1-3.5C1026.7,729.3,1038,712.3,1038.8,712.8z"/>
				</g>
			</g>
		</g>
		<g id="XMLID_379_">
			<g id="XMLID_452_">
				<g id="XMLID_456_">
					<path id="XMLID_457_" class="st1" d="M931.9,669.2c-0.1-0.2,0.6-0.7,1.8-1.4c1.2-0.8,2.8-1.9,3.2-4c0.4-2.2,0.1-5.1-1.5-7.7
						c-1.5-2.6-4.2-4.9-7.5-4.7c-1.6,0-3.4,0.5-4.9,1.2c-1.5,0.7-2.8,1.6-3.8,2.7c-2,2.1-2.4,5-2,7.3c0.2,1.1,0.5,2.2,0.9,3
						c0.4,0.8,0.9,1.5,1.3,2.1c0.8,1.1,1.5,1.6,1.3,1.8c-0.1,0.2-1,0-2.2-0.9c-0.6-0.5-1.3-1.1-2-2c-0.6-0.9-1.2-2.1-1.6-3.4
						c-0.4-1.4-0.5-3-0.3-4.7c0.2-1.7,1-3.5,2.3-5c1.2-1.5,2.9-2.7,4.7-3.6c1.9-0.9,3.9-1.5,6.2-1.6c0.6,0,1.1,0,1.7,0.1
						c0.6,0.1,1.1,0.2,1.7,0.4c1.1,0.4,2.1,0.9,2.9,1.5c1.8,1.2,3,2.9,3.9,4.6c0.9,1.7,1.4,3.4,1.5,5.1c0.1,1.7,0,3.2-0.5,4.7
						c-0.5,1.4-1.4,2.6-2.4,3.3c-0.9,0.7-1.8,1-2.6,1.2C932.8,669.4,932,669.4,931.9,669.2z"/>
				</g>
			</g>
		</g>
		<g id="XMLID_387_">
			<g id="XMLID_460_">
				<g id="XMLID_464_">
					<path id="XMLID_465_" class="st1" d="M931.6,669c0.4,0,1,3.3,1.5,8.6c0.2,2.7,0.5,5.8,0.7,9.3c0.1,0.9,0.1,1.8,0.2,2.7
						c0,0.5,0,0.9,0.1,1.4c0,0.5,0.1,0.8,0.1,1.8c0,0.8-0.3,1.6-1,2.2c-0.3,0.3-0.7,0.5-1.1,0.6c-0.4,0.1-0.9,0.2-1.2,0.3
						c-1.1,0.2-2.2,0.3-3.3,0.3c-0.6,0-1.1,0-1.7-0.1c-0.5-0.1-1.1-0.1-1.8-0.4c-0.8-0.3-1.6-0.8-2-1.5c-0.2-0.4-0.4-0.8-0.4-1.2
						c-0.1-0.4-0.1-0.7-0.1-1c-0.1-1.9-0.2-3.7-0.3-5.5c-0.2-3.5-0.5-6.6-0.7-9.3c-0.4-5.3-0.7-8.6-0.2-8.7c0.4-0.1,1.5,3.1,2.5,8.4
						c0.5,2.6,1,5.8,1.4,9.3c0.2,1.8,0.4,3.7,0.5,5.5c0,0.2,0,0.4,0.1,0.5c0,0.1,0,0.1,0.1,0.2c0.1,0.1,0.2,0.2,0.3,0.2
						c0.2,0.1,0.6,0.1,1.1,0.2c0.5,0,0.9,0.1,1.4,0.1c0.9,0,1.8-0.1,2.7-0.2l0.3,0c0.1,0,0.1,0,0.2-0.1c0.1-0.1,0.1-0.2,0.1-0.3
						c0-1.8-0.1-3.5-0.1-5.2c0-3.5,0-6.7,0-9.4C930.8,672.4,931.1,669,931.6,669z"/>
				</g>
			</g>
		</g>
		<g id="XMLID_395_">
			<g id="XMLID_468_">
				<g id="XMLID_472_">
					<path id="XMLID_473_" class="st1" d="M891.6,598c-0.4-0.4,3.4-3.6,6.7-10.6c1.6-3.5,3.1-7.9,4.4-12.9c1.3-5,2.5-10.6,3.9-16.5
						c5.6-23.5,10.9-42.3,11.8-42.1s-3,19.4-8.6,42.9c-1.4,5.9-2.7,11.4-4.2,16.5c-1.5,5.1-3.2,9.6-5.2,13.1c-2,3.6-4.2,6.1-5.8,7.6
						c-0.4,0.4-0.8,0.7-1.1,1c-0.4,0.3-0.7,0.5-0.9,0.6C891.9,598,891.6,598.1,891.6,598z"/>
				</g>
			</g>
		</g>
		<g id="XMLID_403_">
			<g id="XMLID_476_">
				<g id="XMLID_480_">
					<path id="XMLID_481_" class="st1" d="M929.1,593.5c-0.9-0.1,0.5-12.6,3-27.9c2.5-15.2,5.3-27.5,6.2-27.3s-0.5,12.6-3,27.9
						S930,593.6,929.1,593.5z"/>
				</g>
			</g>
		</g>
		<g id="XMLID_411_">
			<g id="XMLID_484_">
				<g id="XMLID_488_">
					<path id="XMLID_489_" class="st1" d="M976.8,505.7c-0.4,0.1-1.4-1.8-2.5-5.1c-1.1-3.3-2.4-8.1-2.7-13.5
						c-0.3-5.5,0.9-10.5,2.5-13.8c1.6-3.3,3.4-4.8,3.7-4.5c0.4,0.3-0.6,2.2-1.5,5.4c-1,3.2-1.7,7.7-1.4,12.8
						c0.2,5.1,1.1,9.7,1.7,13.1C977,503.4,977.2,505.6,976.8,505.7z"/>
				</g>
			</g>
		</g>
		<g id="XMLID_419_">
			<g id="XMLID_492_">
				<g id="XMLID_496_">
					<path id="XMLID_497_" class="st1" d="M968.7,587.1c-0.5-0.1-0.3-2.9-0.7-7.4c-0.2-2.2-0.6-4.9-1-7.8c-0.5-3-1.1-6.2-1.6-9.7
						c-1.1-6.9-1.2-13.7,0.3-18.3c0.4-1.1,0.7-2.2,1.1-3c0.2-0.4,0.4-0.8,0.6-1.2c0.2-0.4,0.4-0.7,0.5-0.9c0.1-0.2,0.2-0.4,0.1-0.6
						c-0.1-0.2-0.2-0.2-0.3-0.2c-0.2,0-0.2,0.2-0.1,0.2c0.2,0,0.3-0.4,0.8-0.4c0.2,0,0.5,0.1,0.6,0.3c0.2,0.3,0.2,0.7,0.1,1.1
						c-0.2,0.6-0.3,1.4-0.6,2.3c-0.3,0.8-0.4,1.8-0.6,2.9c-0.8,4.3-0.4,10.5,0.7,17.3c0.5,3.4,1.1,6.7,1.4,9.8
						c0.3,3.1,0.5,5.8,0.4,8.2C970.1,584.4,969.1,587.2,968.7,587.1z"/>
				</g>
			</g>
		</g>
		<g id="XMLID_451_">
			<g id="XMLID_524_">
				<g id="XMLID_528_">
					<path id="XMLID_529_" class="st1" d="M1096.9,751.8c-0.9,0.1-2.5-11.5-3.7-25.8c-1.1-14.3-1.3-25.9-0.4-26s2.5,11.5,3.7,25.8
						C1097.7,740.1,1097.8,751.7,1096.9,751.8z"/>
				</g>
			</g>
		</g>
		<g id="XMLID_459_">
			<g id="XMLID_532_">
				<g id="XMLID_536_">
					<path id="XMLID_537_" class="st1" d="M1093.4,756.7c0.2,0.3-4.4,3.6-12.9,6.6c-4.2,1.5-9.4,2.8-15.3,3.9
						c-5.8,1.1-12.3,1.9-19,2.6c-3.4,0.4-6.7,0.7-9.8,1.1c-3.2,0.3-6.2,0.7-9.2,0.9c-3,0.1-6,0-8.7-0.8c-2.7-0.8-5.1-2.5-6.5-4.5
						c-1.4-2-2-4.2-2.2-6c-0.2-1.8-0.1-3.4,0-4.7c0.2-2.5,0.6-3.9,0.8-3.8c0.2,0,0.3,1.4,0.4,3.9c0.1,1.2,0.2,2.7,0.6,4.3
						c0.4,1.6,1,3.4,2.2,5c1.2,1.5,3.1,2.7,5.4,3.3c2.3,0.6,5,0.6,7.8,0.4c2.8-0.2,5.9-0.7,9.1-1c3.2-0.4,6.5-0.7,9.8-1.1
						c6.7-0.7,13.1-1.5,18.9-2.4c5.7-0.9,10.9-2,15.1-3.1C1088.3,758.8,1093.2,756.2,1093.4,756.7z"/>
				</g>
			</g>
		</g>
	</g>
	<g id="head">
		<path id="XMLID_1_" class="st0" d="M1031.5,464.1c-0.9-5-1.4-11.1-1-18.1c0.9-13.8,5.3-24.5,8.7-31.1c2.2-0.2,16.8-1.4,24-12.6
			c10.2-16.1-5.2-36.7-5.8-37.5c-7.5-9.8-14.1-8.9-30.4-18.4c-28.3-16.6-27-30.1-40.8-31.1c-21.8-1.5-47.7,30.8-47.9,57.6
			c0,1.7,0.6,6.6,1.9,16.6c3.6,28.2,6.5,35.5,8.3,39.6c3.4,7.5,6.3,14.1,13.4,18.3c3.3,1.9,9.8,5.8,17.8,5.2
			c3.7-0.3,6.6-1.5,9.1,0.3c2.1,1.5,2.6,4.3,3.2,7.8c0.7,3.9,0.6,7.3,0.3,9.4c4.4,6.7,11.8,10.5,19.5,10.1
			C1020.9,479.5,1028.8,473.1,1031.5,464.1z"/>
		<path id="XMLID_3_" d="M936.8,378.8c-2-0.2-14.3-1.6-21.8-12.3c-5.5-7.9-8.2-20.8-1.3-30.3c5.7-7.7,14.8-9.2,17.1-9.5
			c-2-3.3-5.6-10.2-5.1-19c1-15.8,14.9-28.6,29.1-31.6c15.5-3.3,28,5.8,36.6,12c11.3,8.1,11,16,26.5,35.4c6.3,7.9,12,13.9,15.9,17.7
			c4.2,1,10.1,2.8,16.7,5.8c9.4,4.4,14.8,6.9,18.8,12.5c6.6,9.3,4.6,21.1,2.9,31.3c-1.2,7.2-2.1,12.6-6.3,18.3
			c-7.4,10.2-18.6,12.5-22.5,13.3c-4.7,1-9.6,2-12.1-0.8c-2.8-3.1-0.5-9.5,2.1-12.9c0.9-1.2,4.2-5.6,8.6-5c2.4,0.4,4,2,4.7,2.9
			c0.7-0.1,8.1-1.4,11.3-8.3c3.5-7.6-1.5-14.7-2.1-15.4c-3.2-4.3-9.8-8.7-15.4-6.3c-3.3,1.5-4.9,4.8-5.4,6.3
			c-5.4-6.2-10.3-10.8-13.8-13.8c-13.9-12.1-22.3-14.6-32.1-25.8c-4.8-5.5-7.8-10.7-9.6-14.2c-5,7.9-11.3,16.7-19.2,25.8
			C952.4,364.6,944.2,372.5,936.8,378.8z"/>
		<g id="XMLID_2_">
			<g>
				<g>
					<path class="st1" d="M993.8,468.5c-0.1,0.1-0.4-0.3-0.8-1c-0.4-0.8-0.8-2-1.2-3.5c-0.4-1.6-0.6-3.5-1.1-5.6
						c-0.2-1-0.6-2.1-1.2-3c-0.6-0.9-1.5-1.5-2.6-1.8c-1.1-0.3-2.4-0.1-3.8,0.2c-1.4,0.3-3.2,0.7-4.9,0.8c-3.5,0.2-7.3-0.6-10.9-2.1
						c-3.6-1.6-7-4-9.9-7c-2.9-3.1-5.3-6.7-7.3-10.7c-1.9-4-3.4-8-4.6-11.9c-1.2-3.9-2.2-7.7-3-11.3c-1.7-7.3-2.8-13.9-3.5-19.5
						c-1.4-11.2-1.2-18.2-0.8-18.2c0.5,0,1.2,6.9,3.1,17.9c1,5.5,2.3,12,4.1,19.1c0.9,3.6,2,7.3,3.1,11.1c1.2,3.8,2.6,7.7,4.4,11.4
						c1.8,3.7,4.1,7.1,6.7,9.9c2.6,2.8,5.7,5,8.9,6.5c3.2,1.5,6.5,2.2,9.6,2.1c1.6,0,3-0.3,4.5-0.5c1.5-0.3,3.2-0.5,4.9,0
						c1.6,0.5,3,1.6,3.7,2.9c0.8,1.3,1.1,2.6,1.3,3.7c0.4,2.3,0.4,4.2,0.6,5.7c0.1,1.5,0.4,2.7,0.5,3.5
						C993.7,468,993.9,468.5,993.8,468.5z"/>
				</g>
			</g>
		</g>
		<g id="XMLID_4_">
			<g>
				<g>
					<path class="st1" d="M984,406.2c0,0.2-0.7,0.4-2,0.3c-1.3-0.2-3.1-0.9-4.7-2.5c-0.8-0.8-1.6-1.8-2.3-3
						c-0.6-1.2-1.1-2.6-1.4-4.1c-0.6-2.9-0.5-6.2-0.2-9.4c1.2-12.8,4.3-22.9,5.1-22.7c0.9,0.2-0.7,10.4-1.9,23
						c-0.3,3.1-0.5,6-0.1,8.5c0.3,2.5,1.2,4.6,2.4,6.1c1.1,1.5,2.4,2.4,3.4,2.9C983.4,405.8,984,406,984,406.2z"/>
				</g>
			</g>
		</g>
		<g id="XMLID_5_">
			<g>
				<g>
					<path class="st1" d="M1005.8,408.9c0.3,0.3-0.7,2.3-3.4,4.9c-2.6,2.6-6.9,5.8-12.6,7.1c-5.7,1.3-11.2,0.2-14.5-1.5
						c-3.4-1.8-4.8-3.8-4.5-4c0.3-0.4,2.1,0.9,5.4,1.9c3.2,1,7.9,1.7,12.9,0.5c5-1.2,9.1-3.7,11.9-5.7
						C1003.8,410.1,1005.4,408.6,1005.8,408.9z"/>
				</g>
			</g>
		</g>
		<g id="XMLID_6_">
			<g>
				<g>
					<path class="st1" d="M966.1,386.1c-0.9,0.1-2.1-3.1-2.8-7.2c-0.7-4.1-0.5-7.5,0.4-7.7c0.9-0.1,2.1,3.1,2.8,7.2
						C967.1,382.5,966.9,385.9,966.1,386.1z"/>
				</g>
			</g>
		</g>
		<g id="XMLID_7_">
			<g>
				<g>
					<path class="st1" d="M1000.9,382.2c-0.9,0.2-2.4-2.5-2.9-6.2c-0.6-3.7,0.1-6.8,1-6.8c0.9,0,1.7,2.8,2.2,6.3
						C1001.7,379,1001.7,382,1000.9,382.2z"/>
				</g>
			</g>
		</g>
		<g id="XMLID_12_">
			<g>
				<g>
					<path class="st1" d="M971.1,365.3c-0.3,0.3-1.3-0.2-2.8-0.7c-1.5-0.5-3.6-0.8-5.7-0.3c-2.1,0.5-3.8,1.9-4.9,3
						c-1.1,1.1-1.7,2.1-2.1,2c-0.4-0.1-0.6-1.4,0.2-3.2c0.8-1.8,2.8-4.1,6-4.9c3.1-0.8,6,0.2,7.6,1.4
						C971,363.8,971.4,365,971.1,365.3z"/>
				</g>
			</g>
		</g>
		<g id="XMLID_13_">
			<g>
				<g>
					<path class="st1" d="M1008.1,364.7c-0.4,0.2-1.2-0.4-2.4-1.2c-0.6-0.4-1.4-0.8-2.2-1.2c-0.9-0.3-1.8-0.7-2.9-0.9
						c-1.1-0.2-2.1-0.2-3-0.2c-0.9,0.1-1.8,0.2-2.5,0.3c-1.4,0.3-2.4,0.7-2.7,0.3c-0.3-0.3,0.2-1.4,1.8-2.4c0.8-0.5,1.8-0.9,3-1.2
						c1.2-0.2,2.6-0.3,4,0c1.4,0.3,2.7,0.8,3.7,1.4c1,0.7,1.9,1.4,2.4,2.2C1008.3,363.3,1008.4,364.5,1008.1,364.7z"/>
				</g>
			</g>
		</g>
		<g id="XMLID_27_">
			<g>
				<g>
					<path class="st1" d="M957.1,395.5c-0.6,0.6-1.8,0.5-2.5-0.2s-0.8-1.9-0.2-2.5c0.6-0.6,1.8-0.5,2.5,0.2
						C957.7,393.7,957.7,394.8,957.1,395.5z"/>
				</g>
			</g>
		</g>
		<g id="XMLID_41_">
			<g>
				<g>
					<path class="st1" d="M964.8,394.1c-0.7,0.5-1.6,0.6-2,0.3c-0.4-0.3-0.6-1.1-0.3-2c0.2-0.4,0.5-0.7,0.9-0.9
						c0.4-0.1,0.9-0.1,1.4,0.2c0.4,0.3,0.7,0.8,0.7,1.2C965.4,393.4,965.2,393.8,964.8,394.1z"/>
				</g>
			</g>
		</g>
		<g id="XMLID_43_">
			<g>
				<g>
					<path class="st1" d="M963,403.1c0.2,0.4,0.2,0.9,0,1.3c-0.2,0.4-0.7,0.7-1.3,0.8c-0.6,0.1-1.1-0.1-1.4-0.4
						c-0.3-0.3-0.5-0.8-0.4-1.2c0.2-0.9,0.8-1.5,1.4-1.6C961.8,401.9,962.5,402.3,963,403.1z"/>
				</g>
			</g>
		</g>
		<g id="XMLID_51_">
			<g>
				<g>
					<path class="st1" d="M999.4,390.5c-0.7,0.5-1.8,0.3-2.3-0.4c-0.5-0.7-0.3-1.8,0.5-2.3s1.8-0.3,2.3,0.4
						C1000.4,389,1000.2,390,999.4,390.5z"/>
				</g>
			</g>
		</g>
		<g id="XMLID_59_">
			<g>
				<g>
					<path class="st1" d="M1010.2,386.2c0.2,0.9-0.5,1.8-1.5,2c-1,0.2-2-0.3-2.1-1.2c-0.2-0.9,0.5-1.8,1.5-2
						C1009.1,384.7,1010,385.3,1010.2,386.2z"/>
				</g>
			</g>
		</g>
		<g id="XMLID_67_">
			<g>
				<g>
					<path class="st1" d="M1006.9,396.9c-0.8,0.4-1.7,0.3-2.1-0.3s0-1.5,0.8-1.9c0.8-0.4,1.7-0.3,2.1,0.3S1007.7,396.4,1006.9,396.9
						z"/>
				</g>
			</g>
		</g>
		<g id="XMLID_75_">
			<g>
				<g>
					<path class="st1" d="M935.9,325.5c0,0.2-1.1,0.6-3.2,1c-2,0.5-5,1.1-8.3,2.5c-1.6,0.7-3.3,1.7-4.9,3.1c-1.6,1.4-3,3.1-4.2,5.1
						c-2.4,4-3.6,9.2-3.3,14.7c0.1,2.7,0.6,5.4,1.2,8c0.6,2.5,1.4,4.9,2.6,6.9c2.3,3.9,6.2,6,9.6,7.5c3.4,1.5,6.2,2.3,8.3,2.5
						c2,0.2,3.2,0.1,3.2,0.3c0.1,0.2-1.1,0.8-3.3,0.9c-2.2,0.2-5.4-0.3-9.1-1.6c-1.8-0.6-3.8-1.5-5.8-2.7c-2-1.2-4-3-5.4-5.4
						c-1.5-2.3-2.4-4.9-3.1-7.7c-0.7-2.7-1.2-5.6-1.4-8.6c-0.1-3,0.1-6,0.8-8.8c0.7-2.8,1.8-5.4,3.2-7.6c1.4-2.2,3.2-4.2,5-5.6
						c1.9-1.5,3.9-2.5,5.8-3.1c3.8-1.3,6.9-1.5,9-1.6C934.7,325.2,935.9,325.3,935.9,325.5z"/>
				</g>
			</g>
		</g>
		<g id="XMLID_83_">
			<g>
				<g>
					<path class="st1" d="M1049.1,353.8c-0.1,0.2-2.4-1.3-6.2-4.3c-3.8-3-9.1-7.6-15-14c-6-6.3-12.5-14.4-18.8-24
						c-3.1-4.8-6.3-9.8-10.2-14.4c-3.9-4.6-8.7-8.8-14.1-12.1c-5.5-3.3-11.4-5.4-17.3-6.2c-5.9-0.8-11.8-0.3-17,1.4
						c-5.2,1.6-9.9,4.2-13.5,7.5c-0.9,0.8-1.7,1.7-2.5,2.5c-0.7,0.9-1.5,1.8-2.1,2.7c-0.7,0.9-1.2,1.9-1.7,2.8
						c-0.3,0.5-0.5,1-0.7,1.4c-0.2,0.5-0.5,1-0.6,1.4c-1.5,3.9-2.3,7.6-2.4,10.9c-0.1,3.3,0.3,6.2,0.9,8.5c1.2,4.6,2.8,6.8,2.5,7
						c-0.1,0.1-0.5-0.5-1.3-1.5c-0.4-0.5-0.7-1.2-1.2-2.1c-0.2-0.4-0.4-0.9-0.6-1.4c-0.2-0.5-0.5-1-0.6-1.6
						c-0.8-2.3-1.4-5.3-1.5-8.9c-0.1-3.5,0.5-7.6,2-11.8c0.2-0.5,0.4-1.1,0.6-1.6c0.2-0.5,0.4-1.1,0.7-1.6c0.6-1,1.1-2.1,1.8-3.1
						c0.6-1.1,1.4-2,2.2-3c0.9-0.9,1.7-1.9,2.7-2.8c3.8-3.7,8.8-6.6,14.4-8.4c5.6-1.8,11.9-2.5,18.3-1.7c6.4,0.8,12.8,3.1,18.6,6.6
						c5.8,3.5,10.8,7.9,14.9,12.8c4.1,4.9,7.2,10.1,10.3,14.9c6,9.6,12.3,17.6,17.9,24.1c5.7,6.4,10.7,11.3,14.2,14.6
						C1047.3,351.9,1049.2,353.7,1049.1,353.8z"/>
				</g>
			</g>
		</g>
		<g id="XMLID_91_">
			<g>
				<g>
					<path class="st1" d="M1043,404c0.1-0.2,1,0.1,2.5,0.3c1.5,0.2,3.8,0,6.2-1.2c1.2-0.6,2.4-1.5,3.4-2.6c1.1-1.2,2-2.6,2.7-4.2
						c1.4-3.3,2.1-7.4,2.1-11.7c0-4.2-1.1-8.1-3.3-10.8c-1.1-1.3-2.4-2.4-3.8-3c-1.3-0.6-2.8-0.8-4.1-0.7c-2.6,0.1-4.5,1.4-5.4,2.6
						c-0.9,1.1-0.7,2-0.9,2.1c-0.1,0-0.3-0.1-0.4-0.6c-0.1-0.5-0.1-1.3,0.3-2.1c0.4-0.9,1.1-1.7,2.2-2.5c1.1-0.8,2.4-1.4,4.1-1.7
						c1.6-0.2,3.5-0.2,5.4,0.5c1.8,0.7,3.6,1.9,5,3.5c1.4,1.6,2.6,3.6,3.3,5.8c0.7,2.2,1,4.6,1,6.9c0,4.7-0.8,9.2-2.6,13
						c-0.9,1.9-2.1,3.5-3.5,4.9c-1.4,1.3-2.9,2.2-4.4,2.8c-3,1.2-5.8,0.9-7.4,0.3C1043.5,405,1042.9,404.2,1043,404z"/>
				</g>
			</g>
		</g>
		<g id="XMLID_99_">
			<g>
				<g>
					<path class="st1" d="M1037.3,423.4c0-0.1,0.4-0.3,1.2-0.4c0.8-0.1,1.9-0.4,3.4-0.8c2.9-0.8,7-2.2,11.5-5.2
						c4.4-2.9,9.1-7.4,12.5-13.5c1.7-3,3.1-6.5,4.1-10.1c0.9-3.7,1.5-7.6,1.6-11.7c0-4.1-0.3-8-1.1-11.8c-0.8-3.8-1.8-7.4-3.3-10.4
						c-1.5-3.1-3.6-5.5-6.2-7c-2.6-1.6-5.4-2.6-7.9-3.6c-10.2-4-16.4-6.7-16.3-7.1s6.7,1.5,17.1,4.9c2.6,0.9,5.5,1.7,8.5,3.4
						c1.5,0.8,3,2,4.2,3.3c1.3,1.4,2.3,3,3.2,4.6c1.8,3.4,2.9,7.2,3.7,11.1c0.9,4,1.2,8.2,1.2,12.5c-0.1,4.3-0.7,8.5-1.7,12.4
						c-1.1,3.9-2.6,7.6-4.5,10.8c-3.8,6.5-9,11.1-13.9,14c-4.9,2.9-9.4,4.1-12.4,4.5c-1.6,0.2-2.8,0.3-3.6,0.2
						C1037.7,423.6,1037.3,423.5,1037.3,423.4z"/>
				</g>
			</g>
		</g>
		<g id="XMLID_107_">
			<g>
				<g>
					<path class="st1" d="M977.7,329.9c0.4,0.2-1,3.3-3.8,8.1c-2.8,4.7-7,11.1-12.6,17.4c-2.8,3.2-5.7,6-8.5,8.4
						c-1.4,1.2-2.7,2.3-4.1,3.2c-0.7,0.5-1.3,1-1.9,1.4c-0.6,0.4-1.2,0.8-1.8,1.2c-4.7,3-7.9,4.2-8.1,3.8c-0.2-0.4,2.6-2.3,6.8-5.7
						c0.5-0.4,1.1-0.9,1.6-1.3c0.6-0.5,1.1-1,1.7-1.5c1.2-1,2.4-2.2,3.7-3.4c2.6-2.5,5.3-5.2,8-8.3c5.4-6.2,9.9-12.2,13.1-16.5
						C975.2,332.4,977.3,329.7,977.7,329.9z"/>
				</g>
			</g>
		</g>
		<g id="XMLID_115_">
			<g>
				<g>
					<path class="st1" d="M1029.1,362.9c0,0.2-0.9,0.5-2.5,0.7c-1.7,0.2-4.1,0.1-7-0.6c-2.9-0.7-6.2-2-9.7-3.8
						c-3.4-1.8-7-4.1-10.6-6.8c-7.2-5.4-12.7-11.4-16.2-16c-3.5-4.7-5.1-7.9-4.7-8.2c0.4-0.3,2.6,2.5,6.5,6.7
						c3.9,4.2,9.4,9.7,16.4,14.9c3.5,2.6,6.9,4.9,10.1,6.7c3.2,1.9,6.2,3.3,8.9,4.2C1025.4,362.6,1029,362.4,1029.1,362.9z"/>
				</g>
			</g>
		</g>
		<g id="XMLID_123_">
			<g>
				<g>
					<path class="st1" d="M1042.1,373.1c0.1,0.4-1.1,1.1-3.2,1.2c-1,0.1-2.3-0.1-3.6-0.4c-1.3-0.4-2.7-1-4.1-1.8
						c-1.3-0.9-2.4-1.9-3.3-3c-0.8-1.1-1.5-2.2-1.8-3.1c-0.7-2-0.6-3.3-0.2-3.4c0.5-0.1,1.1,0.9,2.2,2.3c0.5,0.7,1.2,1.5,2,2.3
						c0.8,0.8,1.8,1.6,2.9,2.3c1.1,0.7,2.2,1.2,3.2,1.7c1,0.4,2,0.7,2.9,0.9C1040.9,372.5,1042.1,372.6,1042.1,373.1z"/>
				</g>
			</g>
		</g>
		<g id="XMLID_131_">
			<g>
				<g>
					<path class="st1" d="M1032.5,463.4c0.2,0.1,0.1,0.9-0.4,2.2c-0.5,1.3-1.5,3.1-3.1,5.1c-1.6,2-3.9,4-6.8,5.8
						c-2.9,1.7-6.5,3.1-10.4,3.5c-3.9,0.4-7.8-0.1-11-1.5c-3.2-1.3-5.7-3.6-7.1-5.8c-1.4-2.2-2-4.3-2.1-5.7
						c-0.1-1.4,0.2-2.2,0.4-2.2c0.2,0,0.4,0.7,0.9,2c0.4,1.2,1.2,2.9,2.7,4.6c1.4,1.7,3.6,3.4,6.3,4.4c2.7,1,6.1,1.4,9.5,1
						c3.4-0.4,6.6-1.5,9.3-2.9c2.7-1.4,4.9-3.1,6.5-4.7C1030.6,465.8,1032,463.1,1032.5,463.4z"/>
				</g>
			</g>
		</g>
		<g id="XMLID_139_">
			<g>
				<g>
					<path class="st1" d="M1037.2,423.5c0,0.2-0.4,0.5-1.2,0.6c-0.9,0.1-2.2-0.1-3.5-1c-1.3-0.9-2.6-2.4-3.1-4.6
						c-0.5-2.1-0.2-4.5,0.8-6.6c1.9-4.2,5.3-6.8,7.9-8c2.6-1.2,4.4-1.2,4.6-0.8c0.1,0.5-1.4,1.2-3.4,2.7c-1,0.8-2.1,1.7-3.2,3
						c-1.1,1.2-2.1,2.7-2.8,4.3c-0.7,1.6-1,3.3-0.8,4.7c0.2,1.4,0.9,2.5,1.6,3.3C1035.4,423.1,1037.1,423.1,1037.2,423.5z"/>
				</g>
			</g>
		</g>
	</g>
</g>
</svg>
