<?xml version="1.0" encoding="utf-8"?>
<!-- Generator: Adobe Illustrator 23.0.3, SVG Export Plug-In . SVG Version: 6.00 Build 0)  -->
<svg version="1.1" xmlns="http://www.w3.org/2000/svg" xmlns:xlink="http://www.w3.org/1999/xlink" x="0px" y="0px"
	 viewBox="0 0 600 600" style="enable-background:new 0 0 600 600;" xml:space="preserve">
<style type="text/css">
	.st0{fill:transparent;}
	.st1{stroke:#000000;stroke-width:0.5;stroke-miterlimit:10;}
	.st2{fill:none;stroke:#000000;stroke-width:0.5;stroke-miterlimit:10;}
	.st3{fill:none;stroke:#000000;stroke-miterlimit:10;}
</style>
<g id="podcast">
	<path class="st0" d="M122.6,75.4c-0.4,51.8-0.8,103.6-1.2,155.4c74.9,0,149.7,0,224.6,0c-0.2-51.3-0.4-102.7-0.6-154
		C271.1,76.4,196.8,75.9,122.6,75.4z"/>
	<g>
		<g>
			<g>
				
					<ellipse transform="matrix(1.105359e-02 -0.9999 0.9999 1.105359e-02 -29.8598 271.6859)" class="st1" cx="122.4" cy="150.9" rx="71.4" ry="0.8"/>
			</g>
		</g>
	</g>
	<g>
		<g>
			<g>
				<ellipse class="st1" cx="235.8" cy="76.8" rx="109.4" ry="0.8"/>
			</g>
		</g>
	</g>
	<g>
		<g>
			<g>
				<path class="st1" d="M345.3,220.7c-0.5,0-0.8-31-0.8-69.2s0.4-69.2,0.8-69.2s0.8,31,0.8,69.2S345.8,220.7,345.3,220.7z"/>
			</g>
		</g>
	</g>
	<g>
		<g>
			<g>
				<path class="st1" d="M337.7,229.8c0,0.5-47.3,0.8-105.7,0.8s-105.7-0.4-105.7-0.8S173.7,229,232,229S337.7,229.4,337.7,229.8z"
					/>
			</g>
		</g>
	</g>
	<g>
		<g>
			<g>
				<path class="st1" d="M343.1,210.1c0,0.5-49,0.8-109.4,0.8s-109.4-0.4-109.4-0.8s49-0.8,109.4-0.8S343.1,209.7,343.1,210.1z"/>
			</g>
		</g>
	</g>
	<g>
		<g>
			<g>
				<path class="st1" d="M130.6,222.8c0.1-0.1,0.4,0,1,0.1c0.6,0.1,1.4,0.2,2.3,0c0.9-0.2,1.9-0.7,2.4-1.8c0.3-0.5,0.4-1.1,0.2-1.6
					c-0.1-0.5-0.5-1-1-1.4c-1.1-0.7-2.5-0.6-3.5,0.1c-1,0.6-1.8,1.6-2.1,2.4c-0.3,0.8-0.1,1.6,0.2,2c0.3,0.4,0.6,0.5,0.6,0.7
					c0,0.1-0.4,0.2-1-0.2c-0.3-0.2-0.6-0.5-0.8-1c-0.2-0.5-0.3-1.1-0.1-1.7c0.3-1.2,1.1-2.5,2.4-3.4c0.7-0.5,1.5-0.8,2.4-0.9
					c0.9-0.1,1.9,0.2,2.8,0.7c0.8,0.5,1.5,1.4,1.7,2.4c0.2,1-0.1,1.9-0.5,2.7c-0.4,0.7-1,1.3-1.7,1.7c-0.7,0.4-1.3,0.5-1.9,0.5
					c-1.2,0.1-2.1-0.3-2.7-0.6C130.8,223.1,130.5,222.8,130.6,222.8z"/>
			</g>
		</g>
	</g>
	<g>
		<g>
			<g>
				<path class="st1" d="M154.5,217c0,0.5-2.3,0.8-5.2,0.8s-5.2-0.4-5.2-0.8s2.3-0.8,5.2-0.8S154.5,216.6,154.5,217z"/>
			</g>
		</g>
	</g>
	<g>
		<g>
			<g>
				<path class="st1" d="M157.9,222.1c0,0.5-3.1,0.8-6.9,0.8s-6.9-0.4-6.9-0.8s3.1-0.8,6.9-0.8S157.9,221.7,157.9,222.1z"/>
			</g>
		</g>
	</g>
	<g>
		<g>
			<g>
				<path class="st1" d="M294.3,221.6c0,0.5-27.9,0.8-62.3,0.8s-62.3-0.4-62.3-0.8s27.9-0.8,62.3-0.8S294.3,221.1,294.3,221.6z"/>
			</g>
		</g>
	</g>
	<g>
		<g>
			<g>
				<ellipse class="st1" cx="240.8" cy="221" rx="0.8" ry="5.1"/>
			</g>
		</g>
	</g>
	<g>
		<g>
			<g>
				<path class="st1" d="M240.3,220.8c0,0.5-15.4,0.8-34.3,0.8s-34.3-0.4-34.3-0.8s15.4-0.8,34.3-0.8S240.3,220.3,240.3,220.8z"/>
			</g>
		</g>
	</g>
	<g>
		<g>
			<g>
				<path class="st1" d="M323.2,218.6c0,0.5-2.8,0.8-6.3,0.8c-3.5,0-6.3-0.4-6.3-0.8s2.8-0.8,6.3-0.8
					C320.4,217.8,323.2,218.2,323.2,218.6z"/>
			</g>
		</g>
	</g>
	<g>
		<g>
			<g>
				<path class="st1" d="M324.8,221.6c0,0.5-2.6,0.8-5.7,0.8c-3.2,0-5.7-0.4-5.7-0.8s2.6-0.8,5.7-0.8
					C322.2,220.8,324.8,221.1,324.8,221.6z"/>
			</g>
		</g>
	</g>
	<g>
		<g>
			<g>
				<path class="st1" d="M378.3,52.7c0.3,0.3-3.9,4.4-9.4,9c-5.5,4.6-10.2,8.1-10.4,7.7s3.9-4.4,9.4-9
					C373.3,55.8,378,52.3,378.3,52.7z"/>
			</g>
		</g>
	</g>
	<g>
		<g>
			<g>
				<path class="st1" d="M381,71.3c0.2,0.4-3.8,2.3-8.9,4.3c-5.1,1.9-9.4,3.2-9.5,2.7c-0.2-0.4,3.8-2.3,8.9-4.3
					C376.6,72.1,380.9,70.9,381,71.3z"/>
			</g>
		</g>
	</g>
	<g>
		<g>
			<g>
				<path class="st1" d="M386.3,95.6c-0.1,0.4-4.8,0-10.5-1c-5.7-1-10.3-2.1-10.2-2.6s4.8,0,10.5,1C381.9,94,386.4,95.1,386.3,95.6z
					"/>
			</g>
		</g>
	</g>
	<g>
		<g>
			<g>
				<path class="st1" d="M77.2,206.4c-0.1-0.4,4.2-2.1,9.6-4.1c5.4-1.9,9.8-3.4,9.9-3c0.2,0.4-4,2.6-9.4,4.5
					C81.9,205.8,77.3,206.8,77.2,206.4z"/>
			</g>
		</g>
	</g>
	<g>
		<g>
			<g>
				<path class="st1" d="M80.9,225.9c-0.3-0.3,2.9-4.7,7.7-9.2c4.8-4.6,9.4-7.6,9.7-7.2c0.3,0.4-3.8,3.9-8.5,8.4
					C85,222.4,81.3,226.2,80.9,225.9z"/>
			</g>
		</g>
	</g>
	<g>
		<g>
			<g>
				<path class="st1" d="M88.7,247.5c-0.4-0.2,1.8-6.2,5.4-13.2c3.6-7,7.1-12.3,7.5-12.1c0.4,0.2-2.5,5.9-6,12.9
					C92,242.1,89.1,247.7,88.7,247.5z"/>
			</g>
		</g>
	</g>
	<g>
		<g>
			<g>
				<path class="st1" d="M312,135.3c-0.1,0.1-0.4-0.1-1.1-0.3c-0.7-0.2-1.7-0.4-2.9-0.8c-0.6-0.2-1.4-0.5-2.1-0.9
					c-0.7-0.5-1.4-1.1-1.9-1.9c-1.1-1.5-1.6-3.6-1.7-5.6c-0.1-2.1,0-3.9,0.1-5.6c0.1-1.7,0.2-3.2,0.3-4.5c0.2-2.6,0.4-4.2,0.7-4.2
					c0.2,0,0.4,1.6,0.5,4.2c0,1.3,0.1,2.8,0.1,4.5c0,1.7-0.1,3.6,0,5.5c0.1,1.9,0.5,3.6,1.4,4.9c0.8,1.3,1.9,2.1,3.1,2.6
					c1.2,0.5,2.2,0.9,2.8,1.3C311.8,134.9,312.1,135.2,312,135.3z"/>
			</g>
		</g>
	</g>
	<g>
		<g>
			<g>
				<path class="st1" d="M304.4,100.1c-0.2,0.2-1.2-0.6-3-0.5c-0.9,0-2,0.4-2.8,1.1c-0.8,0.7-1.4,1.9-1.5,3.2
					c-0.1,1.4,0.4,2.6,1,3.6c0.7,1,1.5,1.8,2.2,2.4c0.8,0.6,1.4,1,1.9,1.3c0.5,0.2,0.8,0.3,0.8,0.4c0,0.1-0.3,0.3-1,0.2
					c-0.6-0.1-1.4-0.4-2.3-0.9c-0.9-0.5-2-1.3-2.8-2.5c-0.9-1.2-1.5-2.8-1.4-4.5c0-1.7,0.9-3.4,2.2-4.4c1.3-0.9,2.7-1.2,3.8-1.1
					c1.1,0.1,2,0.5,2.4,0.9C304.4,99.7,304.5,100.1,304.4,100.1z"/>
			</g>
		</g>
	</g>
	<g>
		<g>
			<g>
				<path class="st1" d="M321.6,105c-0.2,0.1-1.2-0.9-2.6-2.8c-0.7-0.9-1.6-2-2.5-3.2c-1-1.1-2.1-2.3-3.6-3.1
					c-1.4-0.8-3-1.2-4.3-1.1c-1.4,0.1-2.5,0.8-3.2,1.5c-0.7,0.8-1.1,1.6-1.2,2.2c-0.2,0.6-0.2,1-0.3,1c-0.1,0-0.3-0.3-0.3-1
					c0-0.7,0.2-1.8,1-2.8c0.8-1,2.1-2,3.9-2.3c1.7-0.3,3.6,0.2,5.3,1.1c1.7,1,2.9,2.3,3.9,3.5c1,1.3,1.7,2.5,2.3,3.5
					C321.1,103.5,321.8,104.9,321.6,105z"/>
			</g>
		</g>
	</g>
	<g>
		<g>
			<g>
				<path class="st1" d="M330.3,111.9c-0.2-0.2,0.5-1,0.7-2.4c0.1-0.7,0-1.6-0.2-2.5c-0.3-0.9-0.8-1.8-1.6-2.5
					c-1.7-1.4-3.9-1.7-5.4-1.5c-1.5,0.1-2.5,0.5-2.6,0.3c-0.1-0.2,0.7-1,2.4-1.4c0.8-0.2,1.9-0.3,3.1-0.2c1.2,0.2,2.5,0.7,3.6,1.6
					c1.1,1,1.7,2.2,2,3.4c0.3,1.2,0.2,2.3-0.1,3.2c-0.3,0.9-0.7,1.5-1.1,1.8C330.7,111.9,330.4,112,330.3,111.9z"/>
			</g>
		</g>
	</g>
	<g>
		<g>
			<g>
				<path class="st1" d="M323.9,122.4c-0.1-0.2,0.8-0.8,2.1-1.6c0.6-0.4,1.4-1,1.9-1.8c0.5-0.8,0.8-1.8,0.5-2.7
					c-0.4-1.8-3.2-2-4.5-2c-0.7,0.1-1.3,0.3-1.6,0.5c-0.3,0.2-0.5,0.4-0.6,0.4c-0.1,0-0.1-0.3,0.1-0.8c0.3-0.5,1-1,1.9-1.2
					c0.9-0.2,2-0.3,3.2,0c0.6,0.1,1.3,0.4,1.9,0.8c0.6,0.4,1.1,1.2,1.3,1.9c0.4,1.6-0.2,3-0.9,4c-0.8,1-1.7,1.6-2.5,1.9
					C325,122.4,324,122.6,323.9,122.4z"/>
			</g>
		</g>
	</g>
	<g>
		<g>
			<g>
				<path class="st1" d="M321.7,138.6c-0.2,0-0.5-0.7-0.7-2c-0.2-1.2-0.4-3-0.3-4.9c0.1-1.9,0.5-3.7,1-4.9c0.5-1.2,1-1.8,1.2-1.7
					c0.2,0.1,0.1,0.9-0.1,2c-0.2,1.2-0.4,2.8-0.5,4.6C322.3,135.5,322.2,138.6,321.7,138.6z"/>
			</g>
		</g>
	</g>
	<g>
		<g>
			<g>
				<path class="st1" d="M307.4,122.1c-0.4,0.1-1-1.5-0.9-3.6c0.1-2,0.8-3.5,1.3-3.4c0.4,0.1,0.5,1.7,0.4,3.5
					C308.1,120.5,307.9,122,307.4,122.1z"/>
			</g>
		</g>
	</g>
	<g>
		<g>
			<g>
				<path class="st1" d="M311.5,125c0.2,0.4-0.8,1.2-2.2,1.3c-1.5,0.1-2.5-0.7-2.4-1.1c0.1-0.4,1.1-0.5,2.3-0.6
					C310.3,124.7,311.3,124.6,311.5,125z"/>
			</g>
		</g>
	</g>
	<g>
		<g>
			<g>
				<path class="st1" d="M311.5,118.5c-0.5,0-0.8-0.8-0.8-1.8s0.4-1.8,0.8-1.8s0.8,0.8,0.8,1.8S312,118.5,311.5,118.5z"/>
			</g>
		</g>
	</g>
	<g>
		<g>
			<g>
				<path class="st1" d="M318,112.4c-0.2,0.1-0.7-0.7-1.8-1.4c-0.6-0.3-1.3-0.6-2.2-0.8c-0.9-0.1-1.9-0.1-3-0.1
					c-2.2,0.1-4.2,0.3-5.5,0.7c-1.3,0.4-2,1-2.2,0.9c-0.2-0.1,0.2-1.1,1.7-1.9c1.4-0.8,3.6-1.1,5.8-1.2c1.2-0.1,2.3,0,3.4,0.2
					c1.1,0.3,1.9,0.7,2.6,1.3c0.6,0.5,1,1.1,1.1,1.6C318.1,112.1,318.1,112.4,318,112.4z"/>
			</g>
		</g>
	</g>
	<g>
		<g>
			<g>
				<path class="st1" d="M323.6,115.8c0,0.2-0.4,0.5-1.1,0.6c-0.8,0.1-1.9-0.1-2.8-0.8c-1-0.7-1.6-1.6-1.8-2.4
					c-0.2-0.8,0-1.2,0.2-1.3c0.5-0.1,1.1,1.3,2.5,2.3C322,115.3,323.5,115.3,323.6,115.8z"/>
			</g>
		</g>
	</g>
	<g>
		<g>
			<g>
				<path class="st1" d="M297.7,145.5c-0.2-0.1,0.1-1.1,0.7-2.6c0.3-0.8,0.7-1.7,1.3-2.7c0.6-1,1.3-2.1,2.6-2.8
					c1.3-0.7,2.6-0.8,3.7-0.9c1.1-0.1,2-0.1,2.8-0.2c1.5-0.2,2.3-0.8,2.5-0.6c0.1,0.1,0,0.3-0.4,0.7c-0.3,0.4-1,0.8-1.8,1
					c-0.8,0.3-1.8,0.4-2.9,0.6c-1,0.2-2.2,0.3-3.1,0.9c-1.8,1-2.8,3.3-3.7,4.6C298.5,144.8,297.9,145.6,297.7,145.5z"/>
			</g>
		</g>
	</g>
	<g>
		<g>
			<g>
				<path class="st1" d="M333.4,160.8c-0.2-0.1,0-1.8,0.1-4.6c0.1-1.4,0.1-3.1,0.1-4.9c0-0.9,0-1.9,0-2.9c0-1,0-2-0.2-3
					c-0.3-4.3-5.2-4.6-7.5-6.1c-2.6-1.3-4-2.4-3.9-2.6c0.1-0.2,1.7,0.5,4.3,1.5c0.7,0.3,1.4,0.5,2.1,0.8c0.8,0.3,1.6,0.5,2.5,0.9
					c0.9,0.4,1.9,1,2.7,1.9c0.7,0.9,1.2,2.1,1.3,3.3c0.2,1.2,0.2,2.3,0.2,3.3c0,1-0.1,2-0.1,2.9c-0.1,1.9-0.2,3.6-0.4,5
					C334.2,159.1,333.6,160.8,333.4,160.8z"/>
			</g>
		</g>
	</g>
	<g>
		<g>
			<g>
				<path class="st1" d="M320.1,173.6c-0.5-0.1,0.8-5.3,1.6-11.9c0.8-6.5,0.9-11.9,1.4-11.9c0.4,0,1.1,5.4,0.2,12.1
					C322.5,168.7,320.5,173.8,320.1,173.6z"/>
			</g>
		</g>
	</g>
	<g>
		<g>
			<g>
				<path class="st1" d="M296.6,179c-0.1,0.1-0.7-0.1-1.7-0.5c-0.5-0.2-1.1-0.5-1.9-0.8c-0.4-0.2-0.8-0.4-1.2-0.8
					c-0.5-0.4-0.8-1.2-0.5-1.9c0.1-0.3,0.4-0.5,0.6-0.6c0.1-0.1,0.3-0.2,0.4-0.2l0.3-0.1c0.4-0.1,0.8-0.3,1.3-0.4
					c0.9-0.2,1.8-0.3,2.8-0.4c1.9-0.1,3.9-0.1,6-0.2c4.8-0.2,9.2-0.6,12.3-0.8c3.2-0.2,5.1-0.2,5.2,0c0,0.2-1.9,0.6-5,1.1
					c-3.1,0.5-7.5,1-12.4,1.3c-2.1,0.1-4.2,0.1-6,0.2c-0.9,0-1.8,0.1-2.6,0.2c-0.4,0.1-0.8,0.1-1.1,0.3l-0.3,0.1l-0.1,0
					c-0.1,0-0.1,0.1-0.2,0.1c-0.1,0.2-0.1,0.4,0.1,0.6c0.2,0.3,0.5,0.5,0.9,0.7c0.7,0.4,1.3,0.8,1.7,1.1
					C296.1,178.5,296.6,178.9,296.6,179z"/>
			</g>
		</g>
	</g>
	<g>
		<g>
			<g>
				<path class="st1" d="M288,183.2c-0.3-0.3,0.8-2.3,3.3-3.6c2.4-1.3,4.7-1.2,4.8-0.8c0.1,0.5-1.9,1.1-4,2.2
					C289.9,182.2,288.3,183.5,288,183.2z"/>
			</g>
		</g>
	</g>
	<g>
		<g>
			<g>
				<path class="st1" d="M294.6,182.1c0.2,0.4-1.8,1.5-4,3c-2.3,1.4-4.1,2.6-4.4,2.3c-0.3-0.3,1.1-2.2,3.6-3.7
					C292.1,182.2,294.5,181.7,294.6,182.1z"/>
			</g>
		</g>
	</g>
	<g>
		<g>
			<g>
				<path class="st1" d="M295.6,184.3c0.2,0.4-1.3,1.4-3.1,2.5c-1.8,1.1-3.4,1.9-3.7,1.5c-0.3-0.3,0.9-1.8,2.9-2.9
					C293.6,184.3,295.4,183.9,295.6,184.3z"/>
			</g>
		</g>
	</g>
	<g>
		<g>
			<g>
				<path class="st1" d="M298.5,186.2c0.2,0.4-1.5,1.7-3.9,3s-4.4,1.9-4.6,1.5c-0.2-0.4,1.5-1.7,3.9-3
					C296.2,186.5,298.2,185.8,298.5,186.2z"/>
			</g>
		</g>
	</g>
	<g>
		<g>
			<g>
				<path class="st1" d="M304.1,182.7c0.4,0.2-0.9,2.7-3.2,5c-2.3,2.4-4.7,3.6-5,3.3c-0.3-0.4,1.6-2.2,3.8-4.4
					C301.9,184.3,303.7,182.4,304.1,182.7z"/>
			</g>
		</g>
	</g>
	<g>
		<g>
			<g>
				<path class="st1" d="M333.9,159.1c0.2,0.1-0.3,2.6-1.2,6.8c-0.5,2.1-1.1,4.5-1.8,7.2c-0.4,1.4-0.7,2.8-1.1,4.3
					c-0.2,0.8-0.5,1.6-1,2.3c-0.5,0.8-1.1,1.4-1.8,2c-1.4,1.1-3,1.8-4.6,2.1c-1.6,0.3-3.1,0.4-4.5,0.4c-2.8,0-5.3-0.1-7.5-0.1
					c-4.2-0.1-6.9-0.3-6.9-0.5c0-0.2,2.6-0.4,6.9-0.6c2.1-0.1,4.6-0.1,7.4-0.2c2.7-0.1,5.8-0.4,8.1-2.3c1.2-0.9,1.8-2.1,2.3-3.5
					c0.5-1.4,0.8-2.9,1.2-4.2c0.8-2.7,1.5-5.1,2.1-7.1C332.8,161.5,333.7,159,333.9,159.1z"/>
			</g>
		</g>
	</g>
	<g>
		<g>
			<g>
				<path class="st1" d="M302.2,170.8c-0.4,0.1-1.7-4.5-2-10.4c-0.3-5.8,0.4-10.6,0.8-10.5c0.5,0,0.5,4.7,0.8,10.4
					C302.2,166.1,302.7,170.7,302.2,170.8z"/>
			</g>
		</g>
	</g>
	<g>
		<g>
			<g>
				<path class="st1" d="M276.2,137.8c0.2-0.1,0.9,1.2,2.4,2.8c0.8,0.8,1.7,1.7,2.9,2.6c0.6,0.4,1.2,0.9,1.9,1.3
					c0.7,0.4,1.4,0.8,2.2,1.1c1.4,0.6,3,0.5,4.5,0.4c1.5-0.1,2.9-0.2,4-0.4c2.2-0.3,3.5-0.9,3.6-0.7c0.1,0.2-1,1.2-3.4,1.9
					c-1.1,0.3-2.5,0.6-4.1,0.8c-0.8,0.1-1.6,0.2-2.5,0.2c-0.9,0-1.9-0.2-2.8-0.5c-0.9-0.4-1.7-0.8-2.4-1.3c-0.7-0.5-1.4-0.9-2-1.4
					c-1.2-1-2.2-2-2.9-3C276.3,139.4,276,137.9,276.2,137.8z"/>
			</g>
		</g>
	</g>
	<g>
		<g>
			<g>
				<path class="st1" d="M272.1,129.2c0-0.1,0.2-0.3,0.5-0.1c0.4,0.1,0.7,0.5,1,0.8c0.6,0.7,1.3,1.8,1.9,3.2
					c1.1,2.7,1.1,5.1,0.6,5.2c-0.5,0.1-1.1-2.1-2.1-4.5c-0.5-1.2-1-2.3-1.3-3.2c-0.2-0.4-0.3-0.7-0.3-0.9
					C272.2,129.4,272.1,129.3,272.1,129.2z"/>
			</g>
		</g>
	</g>
	<g>
		<g>
			<g>
				<path class="st1" d="M270,133.5c-0.2,0.4-2.2-0.4-3.8-2.3c-1.7-1.9-2.3-3.9-1.9-4c0.4-0.2,1.6,1.3,3.1,3
					C268.9,131.8,270.3,133.1,270,133.5z"/>
			</g>
		</g>
	</g>
	<g>
		<g>
			<g>
				<path class="st1" d="M268,135.6c-0.1,0.4-2.3-0.1-4.2-1.9c-1.9-1.9-2.4-4-2-4.2c0.4-0.2,1.5,1.4,3.1,3
					C266.6,134.1,268.2,135.2,268,135.6z"/>
			</g>
		</g>
	</g>
	<g>
		<g>
			<g>
				<path class="st1" d="M265.8,137.2c-0.2,0.4-1.8,0-3.5-1.1c-1.7-1.1-2.7-2.5-2.4-2.8c0.3-0.3,1.7,0.4,3.3,1.5
					C264.8,135.8,266,136.8,265.8,137.2z"/>
			</g>
		</g>
	</g>
	<g>
		<g>
			<g>
				<path class="st1" d="M265,140.7c-0.2,0.4-2-0.2-3.6-1.7c-1.6-1.5-2.4-3.2-2-3.4c0.4-0.3,1.6,0.9,3.1,2.2
					C264,139.2,265.3,140.3,265,140.7z"/>
			</g>
		</g>
	</g>
	<g>
		<g>
			<g>
				<path class="st1" d="M300.6,152.9c0.1,0.2-1.7,1.4-5.1,2.2c-3.4,0.8-8.4,0.8-13.4-1c-5-1.8-8.9-4.7-11.4-7.1
					c-2.5-2.4-3.7-4.1-3.6-4.2c0.2-0.2,1.7,1.3,4.3,3.4c2.6,2.1,6.5,4.7,11.2,6.4c4.7,1.7,9.4,1.9,12.7,1.4
					C298.5,153.5,300.5,152.6,300.6,152.9z"/>
			</g>
		</g>
	</g>
	<g>
		<g>
			<g>
				<path class="st1" d="M338.9,203.7c-0.3,0.3-5.5-3.7-11.5-9.1c-6.1-5.3-10.7-10-10.4-10.3c0.3-0.3,5.4,3.7,11.5,9.1
					C334.6,198.8,339.2,203.4,338.9,203.7z"/>
			</g>
		</g>
	</g>
	<g>
		<g>
			<g>
				<path class="st1" d="M157.5,133.7c-0.1-0.2,0.7-0.6,1.7-1.3c0.5-0.4,0.9-0.8,1-1.4c0.1-0.6,0-1.6-0.1-2.6
					c-0.3-4-0.2-7.3,0.2-7.4c0.4,0,1.1,3.2,1.4,7.2c0.1,1,0.2,2-0.1,3.1c-0.2,0.5-0.5,1-0.8,1.4c-0.3,0.3-0.7,0.6-1.1,0.7
					C158.4,134,157.6,133.9,157.5,133.7z"/>
			</g>
		</g>
	</g>
	<g>
		<g>
			<g>
				<path class="st1" d="M142.7,141.3c0.2-0.2,1.2,0.6,3,1.2c1.8,0.6,4.5,1,7.1-0.2c2.5-1.2,3.9-3.6,4.4-5.4c0.5-1.8,0.2-3,0.4-3.1
					c0.2-0.1,0.9,1.1,0.7,3.3c-0.1,1.1-0.5,2.3-1.3,3.6c-0.8,1.2-2,2.4-3.5,3.1c-1.5,0.7-3.2,0.9-4.6,0.8c-1.4-0.1-2.7-0.5-3.6-1
					C143.4,142.6,142.6,141.5,142.7,141.3z"/>
			</g>
		</g>
	</g>
	<g>
		<g>
			<g>
				<path class="st1" d="M140.1,151.2c-0.4-0.1-0.4-2,0.7-4c1.1-2,2.7-3.1,3-2.8c0.3,0.3-0.6,1.8-1.5,3.6
					C141.3,149.7,140.5,151.3,140.1,151.2z"/>
			</g>
		</g>
	</g>
	<g>
		<g>
			<g>
				<path class="st1" d="M157.2,137c0,0.4-1.4,0.8-2.9,0.2c-1.6-0.6-2.3-1.8-2-2.1c0.3-0.3,1.4,0.1,2.6,0.6
					C156.1,136.2,157.2,136.6,157.2,137z"/>
			</g>
		</g>
	</g>
	<g>
		<g>
			<path class="st2" d="M151.3,124"/>
		</g>
	</g>
	<g>
		<g>
			<g>
				<path class="st1" d="M154.8,126.9c-0.4,0-0.7-1.2-0.6-2.5c0.1-1.4,0.5-2.4,1-2.4c0.4,0,0.7,1.2,0.6,2.5
					C155.7,125.9,155.3,126.9,154.8,126.9z"/>
			</g>
		</g>
	</g>
	<g>
		<g>
			<g>
				<path class="st1" d="M141.4,131.9c0.1,0.1,0,0.4-0.4,0.8c-0.4,0.4-1.2,0.8-2.3,0.8c-0.5,0-1.1-0.1-1.7-0.4
					c-0.6-0.3-1.1-0.8-1.5-1.4c-0.8-1.2-1.1-2.9-0.6-4.4c1.1-3.1,4-4.6,6.1-4.5c1,0,1.9,0.5,2.2,0.9c0.4,0.4,0.4,0.8,0.3,0.8
					c-0.2,0.1-0.9-0.8-2.5-0.6c-0.8,0.1-1.7,0.4-2.6,1.1c-0.8,0.7-1.6,1.6-2,2.7c-0.4,1.1-0.2,2.3,0.3,3.1c0.5,0.9,1.3,1.3,2.1,1.4
					C140.4,132.6,141.2,131.7,141.4,131.9z"/>
			</g>
		</g>
	</g>
	<g>
		<g>
			<g>
				<path class="st1" d="M153.3,108.2c-0.1,0-0.2-0.6-0.2-1.5c-0.1-0.9-0.1-2.9-0.1-3.3c-0.2,0.1-0.4,0.2-0.7,0.4
					c-0.5,0.2-1,0.5-1.5,0.7c-1.1,0.5-2.3,1.1-3.5,1.7c-2.5,1.2-5.3,2.5-8.3,3.8c-1.4,0.6-2.8,1.2-3.9,1.9c-1.2,0.7-2.1,1.5-2.6,2.6
					c-0.6,1-0.8,2.2-0.9,3.3c-0.1,1.1-0.1,2.2-0.1,3.2c0,2-0.2,3.7-0.7,4.8c-0.4,1.1-0.9,1.6-1,1.5c-0.1-0.1,0.2-0.6,0.4-1.7
					c0.2-1.1,0.3-2.6,0.1-4.6c-0.1-1-0.1-2.1-0.1-3.3c0-1.2,0.2-2.6,0.9-3.9c0.6-1.4,1.8-2.5,3.1-3.2c1.3-0.8,2.7-1.4,4.1-2
					c3-1.3,5.8-2.6,8.3-3.7c2.9-1.2,5.4-2.3,7.5-3.2c-0.2,3.1-0.3,4-0.5,5.1C153.6,107.6,153.4,108.2,153.3,108.2z"/>
			</g>
		</g>
	</g>
	<g>
		<g>
			<g>
				<path class="st1" d="M167.5,111.6c-0.2-0.1,0.6-1.4,1.3-3.7c0.2-0.6,0.3-1.2,0.4-1.9c0-0.2,0-0.3,0.1-0.5l0-0.2l0-0.2l0-0.1l0,0
					l0,0c-0.1,0-0.2,0.1-0.3,0.1c-0.4,0.1-0.8,0.2-1.1,0.3c-0.9,0.2-1.7,0.4-2.7,0.6c-7.3,1.7-13.4,1.9-13.4,1.5
					c-0.1-0.5,5.9-1.5,13.1-3.1c2.1-0.5,4.2-1,6-1.4l0.2-0.1l0,0.3l0,0.5c0,0.3-0.1,0.6-0.1,1c0,0.3-0.1,0.6-0.1,0.9
					c-0.1,0.2-0.1,0.4-0.1,0.6c-0.2,0.7-0.4,1.4-0.7,2C168.8,110.6,167.6,111.7,167.5,111.6z"/>
			</g>
		</g>
	</g>
	<g>
		<g>
			<g>
				<path class="st1" d="M166.7,112.2c0.1,0.2-1.2,1.4-3.7,2.2c-1.3,0.4-2.8,0.8-4.4,1.3c-1.6,0.5-3.3,1.2-5,2.1
					c-1.9,1.1-3.6,2.3-4.8,3.7c-0.6,0.7-1.1,1.4-1.5,2.1c-0.2,0.3-0.4,0.7-0.5,1c-0.2,0.3-0.4,0.8-0.8,1.1c-0.6,0.4-1.4,0.2-1.7-0.1
					c-0.4-0.3-0.6-0.6-0.7-0.8c-0.3-0.5-0.3-0.8-0.3-0.9c0.1-0.1,0.3,0.2,0.7,0.5c0.4,0.3,1.1,0.9,1.5,0.4c0.1-0.1,0.2-0.3,0.3-0.7
					c0.1-0.4,0.3-0.7,0.5-1.1c0.4-0.8,0.9-1.6,1.5-2.4c1.3-1.6,3.1-3.1,5.2-4.2c1.8-1,3.7-1.7,5.4-2.1c1.7-0.5,3.3-0.7,4.5-1
					C165.2,112.8,166.6,112,166.7,112.2z"/>
			</g>
		</g>
	</g>
	<g>
		<g>
			<g>
				<path class="st1" d="M128.3,145.8c-0.2-0.4,1.5-1.4,2.8-3.2c1.4-1.8,1.9-3.6,2.3-3.6c0.2,0,0.4,0.6,0.3,1.4
					c-0.1,0.9-0.5,2-1.3,3.1c-0.8,1.1-1.9,1.8-2.7,2.1C128.9,146.1,128.3,146,128.3,145.8z"/>
			</g>
		</g>
	</g>
	<g>
		<g>
			<g>
				<path class="st1" d="M136,155.8c-0.2,0.1-0.6-0.6-1.3-1.6c-0.7-1-1.8-2.3-3.2-3.3c-1.5-1.1-3-1.7-4.1-2.1
					c-1.2-0.4-1.9-0.5-1.9-0.8c0-0.2,0.8-0.5,2.2-0.4c1.3,0.1,3.2,0.7,4.9,1.9c1.7,1.2,2.8,2.8,3.3,4.1
					C136.2,154.8,136.2,155.7,136,155.8z"/>
			</g>
		</g>
	</g>
	<g>
		<g>
			<g>
				<path class="st1" d="M152.4,164.3c-0.5,0.1-1.1-3.9-3.5-8c-2.3-4.2-5.4-6.7-5.1-7.1c0.1-0.2,1.1,0.2,2.4,1.3
					c1.3,1,2.9,2.8,4.2,5c1.3,2.2,1.9,4.5,2.2,6.1C152.7,163.3,152.6,164.3,152.4,164.3z"/>
			</g>
		</g>
	</g>
	<g>
		<g>
			<g>
				<path class="st1" d="M133.7,186.3c-0.5-0.1,0.3-4.7,0.8-10.5c0.6-5.7,0.7-10.4,1.2-10.4c0.4,0,1,4.7,0.4,10.6
					C135.6,181.8,134.1,186.4,133.7,186.3z"/>
			</g>
		</g>
	</g>
	<g>
		<g>
			<g>
				<path class="st1" d="M156.5,186.9c0.1,0.2-1.2,1.1-3.7,1.7c-2.4,0.7-5.9,0.8-9.6,0.6c-1.9-0.1-3.6-0.3-5.2-0.4
					c-1.6-0.1-3-0.2-4.1,0c-2.3,0.3-3.2,1.6-3.4,1.5c-0.1,0,0-0.5,0.5-1c0.5-0.6,1.4-1.2,2.7-1.5c1.3-0.3,2.8-0.4,4.4-0.3
					c1.6,0,3.4,0.2,5.2,0.3c3.7,0.2,7,0.2,9.3-0.1C155,187.2,156.4,186.7,156.5,186.9z"/>
			</g>
		</g>
	</g>
	<g>
		<g>
			<g>
				<path class="st1" d="M156.9,196c0.1,0.2-0.9,1.1-2.8,2.2c-1.9,1.1-4.7,2.4-7.9,3.3c-3.3,0.9-6.3,1.1-8.5,1.1
					c-2.2,0-3.5-0.3-3.5-0.5c0-0.5,5.4-0.4,11.6-2.1C152.1,198.3,156.7,195.6,156.9,196z"/>
			</g>
		</g>
	</g>
	<g>
		<g>
			<g>
				<path class="st1" d="M163.1,181.5c0,0.2-0.5,0.4-1.3,0.6c-0.8,0.2-1.8,0.5-2.4,1.2c-0.6,0.7-0.9,2-1.5,2.8
					c-0.6,0.8-1.2,1-1.3,0.8c-0.1-0.2,0.1-0.6,0.3-1.4c0.1-0.4,0.2-0.9,0.4-1.4c0.2-0.6,0.4-1.2,0.9-1.9c0.5-0.7,1.3-1,1.9-1.2
					c0.6-0.2,1.2-0.2,1.7-0.1C162.6,181,163.1,181.2,163.1,181.5z"/>
			</g>
		</g>
	</g>
	<g>
		<g>
			<g>
				<path class="st1" d="M173.7,188.7c0.2,0.2-0.6,1.1-1.8,2.5c-0.6,0.7-1.4,1.5-2.3,2.3c-0.4,0.4-0.9,0.9-1.4,1.3
					c-0.5,0.4-1,1-1.7,1.4c-0.7,0.5-1.5,0.7-2.2,0.8c-0.7,0.1-1.3,0.2-2,0.3c-1.3,0.1-2.4,0.1-3.3,0.1c-1.9-0.1-3-0.4-3-0.6
					c0-0.2,1.2-0.3,3-0.5c0.9-0.1,2-0.2,3.2-0.4c0.6-0.1,1.2-0.2,1.9-0.3c0.6-0.1,1.1-0.3,1.6-0.6c0.5-0.3,1-0.8,1.5-1.2
					c0.5-0.4,1-0.9,1.5-1.3c0.9-0.8,1.8-1.5,2.5-2.1C172.5,189.2,173.5,188.5,173.7,188.7z"/>
			</g>
		</g>
	</g>
	<g>
		<g>
			<g>
				<path class="st1" d="M172.3,177.8c0.1,0.4-2.1,1.5-5,2.6c-2.8,1.1-5.2,1.9-5.4,1.5c-0.2-0.4,1.9-1.9,4.8-3
					C169.6,177.7,172.1,177.3,172.3,177.8z"/>
			</g>
		</g>
	</g>
	<g>
		<g>
			<g>
				
					<ellipse transform="matrix(0.8632 -0.5049 0.5049 0.8632 -68.7102 110.572)" class="st1" cx="169.7" cy="182.1" rx="5.3" ry="0.8"/>
			</g>
		</g>
	</g>
	<g>
		<g>
			<g>
				<path class="st1" d="M174.5,182.6c0.3,0.4-1.3,1.9-3.6,3.3c-2.3,1.4-4.4,2-4.6,1.7c-0.2-0.4,1.5-1.7,3.7-3
					C172.3,183.2,174.3,182.3,174.5,182.6z"/>
			</g>
		</g>
	</g>
	<g>
		<g>
			<g>
				<path class="st1" d="M174.2,186.5c0.3,0.3-0.8,1.9-2.7,3.3c-1.9,1.4-3.8,1.9-4,1.5c-0.2-0.4,1.3-1.5,3.1-2.8
					C172.3,187.2,173.8,186.2,174.2,186.5z"/>
			</g>
		</g>
	</g>
	<g>
		<g>
			<g>
				<path class="st1" d="M149,185c-0.4-0.1-0.3-2.8,0.3-6c0.6-3.2,1.4-5.8,1.9-5.7s0.3,2.8-0.3,6C150.2,182.5,149.4,185.1,149,185z"
					/>
			</g>
		</g>
	</g>
	<g>
		<g>
			<g>
				<path class="st1" d="M182.4,195.1c0.2,0.4-2.9,1.7-6.9,1.6c-4-0.1-7-1.7-6.8-2.1c0.2-0.4,3.1,0.3,6.9,0.4
					C179.3,195.2,182.3,194.6,182.4,195.1z"/>
			</g>
		</g>
	</g>
	<g>
		<g>
			<g>
				<path class="st1" d="M158.4,179.4c-0.4,0.1-2-5.3-3.4-12c-0.4-1.7-0.7-3.3-1-4.7c-0.3-1.4-0.6-2.7-1.1-3.6
					c-0.8-2-2.2-2.5-2.1-2.8c0-0.1,0.4-0.1,1,0.2c0.6,0.3,1.4,1,2,2c0.6,1,1.1,2.4,1.5,3.8c0.4,1.5,0.7,3.1,1.1,4.7
					C158,173.8,158.8,179.3,158.4,179.4z"/>
			</g>
		</g>
	</g>
	<g>
		<g>
			<g>
				<path class="st1" d="M173.6,176.5c-0.4-0.2,0.6-2.7,3.1-4.7c2.5-2.1,5.1-2.6,5.3-2.1c0.2,0.4-2,1.5-4.2,3.4
					C175.5,174.8,174,176.7,173.6,176.5z"/>
			</g>
		</g>
	</g>
	<g>
		<g>
			<g>
				<path class="st1" d="M174.6,178.7c-0.2-0.4,1.2-1.6,2.8-3.1c1.7-1.5,3-2.7,3.4-2.5c0.4,0.3-0.5,2.1-2.3,3.7
					C176.7,178.5,174.8,179.1,174.6,178.7z"/>
			</g>
		</g>
	</g>
	<g>
		<g>
			<g>
				<path class="st1" d="M174.9,182.7c-0.2-0.4,1.8-1.6,3.7-3.5c2-1.9,3.2-3.8,3.6-3.6c0.2,0.1,0.1,0.7-0.2,1.6
					c-0.4,0.9-1.1,2.1-2.2,3.2c-1.1,1.1-2.3,1.8-3.2,2.1C175.6,182.8,175,182.9,174.9,182.7z"/>
			</g>
		</g>
	</g>
	<g>
		<g>
			<g>
				<path class="st1" d="M178.2,184c-0.1-0.4,1.2-1.2,2.4-2.4c1.3-1.2,2.1-2.4,2.5-2.2c0.2,0.1,0.3,0.5,0.1,1.2
					c-0.2,0.7-0.7,1.5-1.5,2.2c-0.8,0.7-1.6,1.2-2.3,1.3C178.7,184.3,178.3,184.2,178.2,184z"/>
			</g>
		</g>
	</g>
	<g>
		<g>
			<g>
				<path class="st1" d="M177.2,194.5c-0.2-0.1-0.2-0.7-0.2-1.6c-0.1-1-0.1-2.2-0.2-3.6c-0.1-1.5,0.1-2.9,0.6-3.9
					c0.4-1,1-1.3,1.2-1.2c0.2,0.1,0,0.7-0.1,1.6c-0.1,0.9-0.1,2,0,3.5c0.1,1.4,0,2.8-0.3,3.8C177.8,194.1,177.4,194.6,177.2,194.5z"
					/>
			</g>
		</g>
	</g>
	<g>
		<g>
			<g>
				<path class="st1" d="M182.9,144.3c0.1,0.2-1.5,1.5-4.2,3.5c-1.4,1-3,2.1-4.8,3.4c-0.8,0.7-1.5,1.4-1.6,2.3
					c-0.2,1-0.1,2.4-0.1,3.6c-0.1,10.3-0.5,18.6-1,18.6c-0.5,0-0.7-8.3-0.7-18.6c0-1.3-0.1-2.5,0.2-3.9c0.1-0.7,0.5-1.4,0.9-1.9
					c0.4-0.5,0.9-0.9,1.4-1.3c1.9-1.3,3.6-2.3,5-3.2C181,145.1,182.8,144.1,182.9,144.3z"/>
			</g>
		</g>
	</g>
	<g>
		<g>
			<g>
				<path class="st1" d="M172.2,175.8c-0.5,0-0.7-5.1-0.6-11.3c0.1-6.2,0.5-11.3,1-11.3s0.7,5.1,0.6,11.3
					C173.1,170.7,172.6,175.8,172.2,175.8z"/>
			</g>
		</g>
	</g>
	<g>
		<g>
			<g>
				<path class="st1" d="M178,150.1c0.1-0.1,0.5,0.3,1.3,0.7c0.8,0.3,2.2,0.6,3.7-0.1c1.4-0.6,2.7-2.2,3.3-4.3
					c0.6-2.1,0.3-4.6-0.1-7.2c-0.2-1.3-0.6-2.3-1.4-2.8c-0.8-0.6-1.9-0.7-2.9-0.5c-1,0.2-1.8,0.7-2.5,1.4c-0.7,0.6-1.2,1.4-1.6,2.1
					c-0.7,1.5-0.8,2.9-0.6,3.8c0.2,0.9,0.5,1.4,0.4,1.4c-0.1,0.1-0.6-0.3-1-1.3c-0.4-1-0.6-2.6,0.1-4.4c0.3-0.9,0.9-1.8,1.7-2.6
					c0.8-0.8,1.8-1.5,3.1-1.9c1.3-0.3,2.8-0.2,4.1,0.7c0.6,0.4,1.2,1.1,1.5,1.8c0.3,0.7,0.5,1.4,0.6,2.1c0.5,2.7,0.7,5.4,0,7.9
					c-0.7,2.4-2.4,4.3-4.3,4.9c-1.9,0.6-3.5,0.1-4.4-0.4C178.2,150.7,178,150.1,178,150.1z"/>
			</g>
		</g>
	</g>
	<g>
		<g>
			<g>
				<path class="st1" d="M196.8,141.1c-0.2-0.1,1-1.6,1-4.3c0-1.3-0.3-2.9-0.9-4.6c-0.6-1.6-1.1-4.2-2.5-4.3
					c-0.7-0.1-1.7,0.2-2.5,0.7c-0.8,0.5-1.7,1-2.5,1.5c-1.6,1-3.1,1.8-4.3,2.5c-2.5,1.4-4.1,2.1-4.2,1.9c-0.1-0.2,1.3-1.3,3.6-2.9
					c1.2-0.8,2.6-1.8,4.1-2.8c0.8-0.5,1.6-1,2.5-1.6c0.5-0.3,1-0.5,1.6-0.7c0.6-0.2,1.2-0.3,1.9-0.2c0.7,0.1,1.4,0.5,1.8,1
					c0.5,0.5,0.7,1.1,0.9,1.6c0.4,1,0.6,1.9,0.9,2.9c0.5,1.8,0.8,3.6,0.6,5.1c-0.2,1.5-0.7,2.7-1.2,3.3
					C197.2,141,196.8,141.2,196.8,141.1z"/>
			</g>
		</g>
	</g>
	<g>
		<g>
			<g>
				<path class="st1" d="M195.6,141c0.3,0.3-1.2,2.5-3.8,4.4c-2.6,2-5.1,2.8-5.3,2.5c-0.2-0.4,1.9-1.9,4.4-3.8
					C193.3,142.3,195.2,140.7,195.6,141z"/>
			</g>
		</g>
	</g>
	<g>
		<g>
			<g>
				<path class="st1" d="M189.9,143.1c-0.2-0.1-0.2-0.9-0.1-2.2c0.1-1.3,0.3-3.1,0-4.9c-0.3-1.8-1.3-3.2-2.1-4
					c-0.9-0.8-1.6-1.1-1.6-1.4c0-0.2,1-0.3,2.3,0.4c1.3,0.7,2.6,2.5,3,4.7c0.4,2.2,0,4.1-0.4,5.4
					C190.5,142.5,190.1,143.2,189.9,143.1z"/>
			</g>
		</g>
	</g>
	<g>
		<g>
			<g>
				<path class="st1" d="M194,143.3c-0.2-0.1,0-1.1,0.3-2.6c0.3-1.5,0.7-3.6,0.3-5.8c-0.4-2.2-1.6-3.9-2.6-4.8c-1.1-1-2-1.3-2-1.5
					c0-0.2,1.1-0.3,2.7,0.6c1.5,0.9,3.1,2.9,3.6,5.5c0.4,2.6-0.2,4.9-0.8,6.4C194.8,142.6,194.2,143.4,194,143.3z"/>
			</g>
		</g>
	</g>
	<g>
		<g>
			<g>
				<path class="st1" d="M284,137.8c0.2,0,0.3,2.7-0.2,7.1c-0.3,2.2-0.7,4.8-1.8,7.6c-1,2.8-2.8,5.7-5.4,8c-1.3,1.2-2.8,2.1-4.3,2.7
					c-0.7,0.3-1.6,0.6-2.2,0.7c-0.6,0.2-0.9,0.5-1.1,1c-0.2,0.5-0.2,1.2-0.2,1.9c0,0.7,0,1.3-0.1,2c0,1.3-0.1,2.5-0.1,3.6
					c-0.2,4.4-0.4,7.1-0.6,7.1s-0.4-2.7-0.5-7.1c0-1.1,0-2.3-0.1-3.6c0-0.6,0-1.3,0-2c0-0.7,0-1.4,0.2-2.3c0.1-0.4,0.4-0.9,0.8-1.2
					c0.4-0.4,0.8-0.6,1.2-0.7c0.8-0.3,1.4-0.4,2.1-0.8c1.4-0.6,2.7-1.4,3.8-2.5c2.4-2.1,4-4.8,5.1-7.4c1.1-2.6,1.6-5.1,2-7.2
					C283.5,140.5,283.8,137.8,284,137.8z"/>
			</g>
		</g>
	</g>
	<g>
		<g>
			<g>
				<path class="st1" d="M283.9,140.9c0-0.1,0.4-0.2,1-0.2c0.6,0,1.5,0,2.5-0.3c0.9-0.3,1.8-1.1,2.1-2.3c0.3-1.2,0-2.6-1.1-3.6
					c-1.1-1-2.5-1.4-3.8-1.4c-1.3,0.1-2.3,0.7-2.8,1.4c-0.4,0.8-0.4,1.7-0.2,2.1c0.2,0.5,0.5,0.7,0.4,0.9c0,0.1-0.5,0-0.9-0.5
					c-0.4-0.6-0.8-1.7-0.3-3c0.5-1.3,2-2.3,3.7-2.4c1.7-0.2,3.6,0.3,5.1,1.7c0.7,0.7,1.3,1.5,1.5,2.5c0.2,0.9,0.2,1.9-0.1,2.7
					c-0.3,0.8-0.7,1.6-1.3,2.1c-0.6,0.5-1.3,0.8-1.9,0.9c-1.3,0.2-2.2,0-2.8-0.1C284.2,141.2,283.9,141,283.9,140.9z"/>
			</g>
		</g>
	</g>
	<g>
		<g>
			<g>
				<path class="st1" d="M289.3,120.6c0.4,0.3-1.2,2.8-3.1,5.8c-1.9,3-3.6,5.4-4,5.2c-0.4-0.2,0.6-3,2.6-6.1
					C286.8,122.4,288.9,120.3,289.3,120.6z"/>
			</g>
		</g>
	</g>
	<g>
		<g>
			<g>
				<path class="st1" d="M297.2,131.2c-0.2-0.2,0.4-0.9,0.6-2.3c0.2-1.3,0-3.4-1.2-5c-1.3-1.6-3.1-2.5-4.5-2.8
					c-1.4-0.4-2.4-0.4-2.4-0.7c0-0.2,0.9-0.6,2.6-0.5c1.6,0.1,4,0.9,5.6,3c1.6,2.2,1.6,4.8,1,6.3
					C298.3,130.8,297.3,131.3,297.2,131.2z"/>
			</g>
		</g>
	</g>
	<g>
		<g>
			<g>
				
					<ellipse transform="matrix(0.6139 -0.7894 0.7894 0.6139 7.4905 284.3666)" class="st1" cx="294.4" cy="134.5" rx="3.7" ry="0.8"/>
			</g>
		</g>
	</g>
	<g>
		<g>
			<g>
				<path class="st1" d="M292.7,132.5c-0.2,0-0.4-0.6-1-1.2c-0.6-0.6-1.6-1.3-2.9-1.6c-1.3-0.2-2.6-0.1-3.6,0
					c-1,0.1-1.7,0.1-1.7-0.1c-0.1-0.2,0.5-0.6,1.4-1c1-0.4,2.4-0.8,4.2-0.5c1.8,0.3,3.1,1.5,3.6,2.6
					C293.2,131.8,292.9,132.5,292.7,132.5z"/>
			</g>
		</g>
	</g>
	<g>
		<g>
			<g>
				<path class="st1" d="M295.1,129.8c-0.2,0-0.5-0.6-1.2-1.5c-0.6-0.9-1.7-2-3.1-2.7c-1.4-0.7-3-0.8-4-0.7
					c-1.1,0.1-1.8,0.3-1.9,0.1c-0.1-0.2,0.5-0.8,1.7-1.2c1.2-0.4,3.1-0.5,5,0.3c1.8,0.9,3,2.4,3.4,3.6
					C295.4,129,295.3,129.8,295.1,129.8z"/>
			</g>
		</g>
	</g>
	<g>
		<g>
			<g>
				<path class="st1" d="M156.2,166.6c-0.2,0-0.5-1.3-0.7-3.4c-0.1-1.1-0.2-2.3-0.3-3.7c-0.1-1.4-0.1-2.9-0.5-4.4
					c-0.3-1.4-1.2-2.6-2.1-3.4c-0.9-0.9-2-1.5-2.9-1.8c-1.9-0.7-3.2-0.5-3.2-0.7c0-0.1,0.3-0.3,0.9-0.4c0.6-0.1,1.5-0.2,2.7,0.1
					c1.1,0.2,2.4,0.8,3.6,1.8c1.2,1,2.2,2.4,2.7,4.2c0.4,1.7,0.3,3.3,0.4,4.7c0,1.4,0,2.7,0,3.7
					C156.5,165.3,156.4,166.6,156.2,166.6z"/>
			</g>
		</g>
	</g>
	<g>
		<g>
			<g>
				
					<ellipse transform="matrix(0.6834 -0.73 0.73 0.6834 -83.1836 171.7516)" class="st1" cx="156.4" cy="181.8" rx="12.6" ry="0.8"/>
			</g>
		</g>
	</g>
	<g>
		<g>
			<g>
				<path class="st1" d="M269.4,149.2c0,0.5-17.8,0.8-39.7,0.8s-39.7-0.4-39.7-0.8s17.8-0.8,39.7-0.8S269.4,148.8,269.4,149.2z"/>
			</g>
		</g>
	</g>
	<g>
		<g>
			<g>
				<path class="st1" d="M302.8,174.3c-0.2,0.1-1.1-0.8-2.4-2.3c-1.3-1.5-3.2-3.7-5.2-6.1c-4-4.8-6.9-9-6.6-9.3s3.9,3.4,7.8,8.3
					c2,2.4,3.7,4.7,4.8,6.4C302.4,173,302.9,174.2,302.8,174.3z"/>
			</g>
		</g>
	</g>
</g>
<g id="books">
	<path class="st0" d="M91.3,323.4c-0.2,3.8-0.4,7.6-0.6,11.4c9.2-0.1,18.4-0.3,27.6-0.4c-6,1.8-12,3.7-18,5.5
		c0.5,5.6,1,11.2,1.5,16.8c3.6,1,7.1,2.1,10.7,3.1c-2.9,0.8-5.7,1.5-8.6,2.3c0.3,0.4,5.1,7.9,2.1,13.8c-3.1,6-13.9,9-23.8,2.8
		c0.2,2.4,0.5,4.8,0.7,7.2c1.2,1.7,2.4,3.3,3.6,5c-1.2,1.1-2.9,2.9-3.8,5.6c-1.3,3.7-0.5,6.9,0.3,10.5c0.8,3.8,1.8,9.1,2.5,16.1
		c4,1,7.9,2.1,11.9,3.1c0.7,3.9,1.4,7.8,2.1,11.7c-5.3,1.4-10.7,2.7-16,4.1c1,5.9,2,11.9,3,17.8c11.4,1.7,23.4,3.1,36.1,4
		c22.3,1.7,43.1,1.9,62,1.2c3-1,6.2-2.3,9.6-3.9c7.4-3.4,13.4-7.4,18.2-11.1c0-4.8,0-9.5-0.1-14.3c-3.9-0.4-7.8-0.8-11.7-1.2
		c3.1-1.5,6.3-3,9.4-4.6c0.5-3,0.9-5.9,1.4-8.9c2.4-1.1,4.9-2.3,7.3-3.4c-1.2-1-2.4-1.9-3.6-2.9c-0.5-7.8-1-15.6-1.5-23.4
		c-9.4-0.7-18.7-1.4-28.1-2.1c0.3-0.1,3.7-1,4.9-4.3c1-2.7,0.3-5.8-1.9-7.9c0.2-1.8,0.4-3.8,0.5-5.9c0.1-5.6-0.6-10.5-1.6-14.4
		c1.9-1.5,3.8-3,5.7-4.4c-0.1-6.5-0.1-12.9-0.2-19.4c6-0.3,12-0.6,18-0.9c-0.4-2.4-0.7-4.8-1.1-7.2c-8.1-0.7-16.3-1.4-24.4-2.1
		C154,323,122.7,323.2,91.3,323.4z"/>
	<g>
		<g>
			<g>
				<path class="st1" d="M86.2,459.3c-0.4,0.1-1.9-3.9-2.5-9c-0.6-5.2-0.2-9.4,0.3-9.4c0.5,0,0.7,4.1,1.4,9.2
					C86,455.1,86.7,459.2,86.2,459.3z"/>
			</g>
		</g>
	</g>
	<g>
		<g>
			<g>
				<path class="st1" d="M183.3,464.9c0,0.1-1.4,0.2-3.8,0.4c-2.5,0.1-6,0.3-10.4,0.4c-8.8,0.2-20.9,0.1-34.4-0.5
					c-13.4-0.6-25.5-1.7-34.2-2.8c-4.4-0.5-7.9-0.9-10.3-1.5c-2.4-0.6-3.7-1.2-3.6-1.3c0-0.1,1.3,0.3,3.8,0.6
					c2.4,0.4,5.9,0.6,10.3,1c8.7,0.7,20.8,1.7,34.2,2.3c13.4,0.6,25.5,0.9,34.3,1c4.4,0.1,7.9,0.1,10.4,0.1
					C182,464.7,183.3,464.8,183.3,464.9z"/>
			</g>
		</g>
	</g>
	<g>
		<g>
			<g>
				<path class="st1" d="M182.5,446.3c0,0.1-1.4,0.3-3.9,0.4c-2.5,0.2-6.1,0.4-10.5,0.5c-8.9,0.3-21.2,0.3-34.8-0.2
					c-13.6-0.6-25.9-1.6-34.7-2.6c-4.4-0.5-8-1-10.5-1.4c-2.5-0.4-3.8-0.6-3.8-0.8c0-0.1,1.4-0.1,3.9,0.1c2.5,0.2,6.1,0.5,10.5,0.8
					c8.9,0.7,21.1,1.6,34.7,2.2c13.6,0.6,25.9,0.7,34.8,0.7c4.4,0,8,0,10.5,0C181.1,446.1,182.5,446.2,182.5,446.3z"/>
			</g>
		</g>
	</g>
	<g>
		<g>
			<g>
				
					<ellipse transform="matrix(0.9978 -6.562483e-02 6.562483e-02 0.9978 -29.5388 13.0873)" class="st1" cx="184.4" cy="456.2" rx="0.8" ry="7.8"/>
			</g>
		</g>
	</g>
	<g>
		<g>
			<g>
				<path class="st1" d="M215.3,449c0.3,0.3-5.9,5.2-14.4,9.7c-8.6,4.4-16.1,6.6-16.2,6.2c-0.2-0.5,7-3.3,15.5-7.6
					C208.5,452.9,215,448.6,215.3,449z"/>
			</g>
		</g>
	</g>
	<g>
		<g>
			<g>
				<path class="st1" d="M214.7,434.6c0.2,0.4-6.6,3.5-15.1,6.8c-8.5,3.3-15.5,5.7-15.7,5.3s6.6-3.5,15.1-6.8
					C207.5,436.6,214.5,434.2,214.7,434.6z"/>
			</g>
		</g>
	</g>
	<g>
		<g>
			<g>
				<ellipse class="st1" cx="212.3" cy="443.8" rx="0.8" ry="6.1"/>
			</g>
		</g>
	</g>
	<g>
		<g>
			<g>
				<path class="st1" d="M208.1,442.7c0.2,0.4-4.2,2.6-9.7,4.6c-5.6,2.1-10.2,3.2-10.4,2.8c-0.1-0.4,4.3-2.3,9.8-4.4
					C203.4,443.8,208,442.3,208.1,442.7z"/>
			</g>
		</g>
	</g>
	<g>
		<g>
			<g>
				
					<ellipse transform="matrix(0.9382 -0.3462 0.3462 0.9382 -144.5258 95.3005)" class="st1" cx="194.5" cy="452.2" rx="8.5" ry="0.8"/>
			</g>
		</g>
	</g>
	<g>
		<g>
			<g>
				<path class="st1" d="M201.4,453.4c0.2,0.4-2.1,1.9-5.1,3.3c-3,1.4-5.6,2.2-5.8,1.8c-0.2-0.4,2.1-1.9,5.1-3.3
					S201.2,453,201.4,453.4z"/>
			</g>
		</g>
	</g>
	<g>
		<g>
			<g>
				<path class="st1" d="M100,438.3c0.1,0.4-3.5,1.6-8,2.6c-4.5,1-8.3,1.4-8.4,1c-0.1-0.4,3.5-1.6,8-2.6S99.9,437.9,100,438.3z"/>
			</g>
		</g>
	</g>
	<g>
		<g>
			<g>
				<path class="st1" d="M99.6,437.8c-0.4,0.1-1.4-2.4-2-5.7c-0.6-3.3-0.5-6-0.1-6c0.5-0.1,1.1,2.5,1.7,5.7
					C99.7,435,100,437.7,99.6,437.8z"/>
			</g>
		</g>
	</g>
	<g>
		<g>
			<g>
				<path class="st1" d="M179.4,442.5c0,0.1-1.1,0.2-3.1,0.3c-2,0.1-5,0.2-8.6,0.2c-7.2,0.1-17.3-0.1-28.3-0.8
					c-11-0.7-21-1.7-28.2-2.6c-3.6-0.5-6.5-0.9-8.5-1.2c-2-0.3-3.1-0.6-3.1-0.7c0-0.2,4.5,0.2,11.7,0.8c7.2,0.6,17.2,1.5,28.2,2.1
					c11,0.7,21,1,28.2,1.3C174.9,442.1,179.4,442.3,179.4,442.5z"/>
			</g>
		</g>
	</g>
	<g>
		<g>
			<g>
				<path class="st1" d="M179.2,441.6c-0.4,0.1-1.5-1.8-2.2-4.4c-0.7-2.6-0.7-4.8-0.3-4.9c0.4-0.1,1.2,1.9,1.9,4.5
					C179.3,439.4,179.6,441.5,179.2,441.6z"/>
			</g>
		</g>
	</g>
	<g>
		<g>
			<g>
				<path class="st1" d="M85.9,423.3c-0.4,0.1-2.3-6.6-3.5-15.2c-0.3-2.1-0.6-4.1-0.7-6c-0.1-1.9,0-3.7,0.3-5.1
					c0.4-1.4,1-2.5,1.6-3.1c0.6-0.6,1-0.8,1.1-0.7c0.2,0.2-1.2,1.4-1.5,4.1c-0.2,1.3-0.2,2.9,0,4.7c0.2,1.8,0.5,3.8,0.8,5.9
					C85.2,416.3,86.4,423.2,85.9,423.3z"/>
			</g>
		</g>
	</g>
	<g>
		<g>
			<g>
				<path class="st1" d="M179,430.3c0,0.1-1.3,0.2-3.7,0.2c-2.4,0-5.8,0-10.1-0.1c-8.5-0.2-20.2-0.6-33.2-1.5
					c-12.9-0.9-24.6-2-33.1-3c-4.2-0.5-7.7-0.9-10-1.6c-2.3-0.7-3.5-1.4-3.4-1.4c0.1-0.1,1.3,0.4,3.6,0.8c2.3,0.5,5.7,0.7,9.9,1
					c8.5,0.7,20.1,1.6,33.1,2.5c12.9,0.9,24.6,1.5,33.1,2c4.2,0.2,7.7,0.4,10,0.6C177.7,430.1,179,430.2,179,430.3z"/>
			</g>
		</g>
	</g>
	<g>
		<g>
			<g>
				<path class="st1" d="M176.7,400.5c0,0.1-1.3,0.1-3.6,0.1c-2.3-0.1-5.6-0.2-9.7-0.4c-8.2-0.4-19.6-1-32.1-1.9s-23.9-1.6-32.1-2.3
					c-4.1-0.3-7.4-0.6-9.7-0.9c-2.3-0.2-3.6-0.4-3.5-0.5c0-0.1,1.3-0.1,3.6-0.1s5.6,0.2,9.7,0.4c8.2,0.4,19.6,1,32.1,1.9
					c12.5,0.8,23.9,1.6,32.1,2.3c4.1,0.3,7.4,0.6,9.7,0.9C175.4,400.2,176.7,400.4,176.7,400.5z"/>
			</g>
		</g>
	</g>
	<g>
		<g>
			<g>
				
					<ellipse transform="matrix(0.9996 -2.819957e-02 2.819957e-02 0.9996 -11.6401 5.13)" class="st1" cx="176.1" cy="415.3" rx="0.8" ry="12.3"/>
			</g>
		</g>
	</g>
	<g>
		<g>
			<g>
				<path class="st1" d="M218.6,417.5c0.1,0.2-2,1.5-5.5,3.2c-3.5,1.7-8.6,3.9-14.3,5.8c-5.7,1.9-11.1,3.1-14.9,3.8
					c-3.9,0.7-6.3,0.8-6.4,0.6c-0.1-0.5,9.5-2.2,20.8-6C209.7,421.3,218.4,417.1,218.6,417.5z"/>
			</g>
		</g>
	</g>
	<g>
		<g>
			<g>
				<path class="st1" d="M216.2,414.9c0.2,0.4-8.1,4.1-18.7,7.6c-10.6,3.5-19.4,5.5-19.5,5c-0.1-0.4,8.5-3.1,19-6.6
					C207.5,417.4,216,414.5,216.2,414.9z"/>
			</g>
		</g>
	</g>
	<g>
		<g>
			<g>
				<path class="st1" d="M213.2,394.9c0.1,0.4-8.1,2.9-18.4,5.5s-18.7,4.4-18.8,4c-0.1-0.4,8.1-2.9,18.4-5.5
					C204.6,396.2,213,394.5,213.2,394.9z"/>
			</g>
		</g>
	</g>
	<g>
		<g>
			<g>
				<path class="st1" d="M214.6,391.7c0.1,0.4-8.1,2.9-18.4,5.6c-5.2,1.3-9.8,2.5-13.3,3c-3.5,0.5-5.7,0.1-5.7-0.1
					c0-0.2,2.2-0.3,5.5-1.1c3.4-0.7,8-2.2,13.1-3.5C206,393,214.5,391.2,214.6,391.7z"/>
			</g>
		</g>
	</g>
	<g>
		<g>
			<g>
				<path class="st1" d="M214.6,415.1c-0.4,0-1.2-4-1.6-9.1c-0.4-5.1-0.4-9.2,0-9.3c0.4,0,1.2,4,1.6,9.1
					C215.1,410.9,215.1,415,214.6,415.1z"/>
			</g>
		</g>
	</g>
	<g>
		<g>
			<g>
				<path class="st1" d="M211.9,428.7c0.2,0.4-6.4,4.6-15.3,8.2c-8.9,3.6-16.7,5.1-16.7,4.7c-0.1-0.5,7.3-2.6,16.1-6.2
					C204.8,431.9,211.7,428.3,211.9,428.7z"/>
			</g>
		</g>
	</g>
	<g>
		<g>
			<g>
				<path class="st1" d="M192,431.5c0.1,0.4-2.3,1.6-5.6,2.4c-3.3,0.8-6,0.8-6.1,0.4c-0.1-0.5,2.5-1.2,5.7-2
					C189.2,431.5,191.8,431,192,431.5z"/>
			</g>
		</g>
	</g>
	<g>
		<g>
			<g>
				<path class="st1" d="M204.1,403.1c0.1,0.5-5.4,1.8-12,3.5c-6.7,1.7-12.1,3-12.3,2.6c-0.1-0.4,5.1-2.5,11.9-4.2
					C198.5,403.3,204.1,402.7,204.1,403.1z"/>
			</g>
		</g>
	</g>
	<g>
		<g>
			<g>
				<path class="st1" d="M194.7,410.3c0.1,0.4-2.9,1.7-6.8,2.7c-3.9,1-7.2,1.4-7.3,0.9c-0.1-0.4,3-1.5,6.8-2.5
					C191.4,410.5,194.6,409.9,194.7,410.3z"/>
			</g>
		</g>
	</g>
	<g>
		<g>
			<g>
				
					<ellipse transform="matrix(0.9739 -0.2268 0.2268 0.9739 -89.7629 54.1239)" class="st1" cx="190.6" cy="417.6" rx="11.9" ry="0.8"/>
			</g>
		</g>
	</g>
	<g>
		<g>
			<g>
				<path class="st1" d="M208,408.7c0.1,0.4-1.4,1-3.2,1.2c-1.8,0.2-3.4,0-3.4-0.4c-0.1-0.4,1.4-1,3.2-1.2
					C206.4,408.1,208,408.3,208,408.7z"/>
			</g>
		</g>
	</g>
	<g>
		<g>
			<g>
				<path class="st1" d="M205.7,428.8c0.1,0.4-3,1.7-6.7,3.3c-3.7,1.6-6.8,3-7,2.6c-0.2-0.4,2.5-2.4,6.4-4.1
					C202.2,428.9,205.6,428.4,205.7,428.8z"/>
			</g>
		</g>
	</g>
	<g>
		<g>
			<g>
				
					<ellipse transform="matrix(0.9918 -0.1277 0.1277 0.9918 -48.0736 13.676)" class="st1" cx="82.6" cy="381.8" rx="0.8" ry="3.2"/>
			</g>
		</g>
	</g>
	<g>
		<g>
			<g>
				<path class="st1" d="M89,394.3c-0.4,0.3-2-1.4-3.7-3.8s-2.7-4.4-2.4-4.7c0.4-0.3,2,1.4,3.7,3.8C88.3,391.9,89.4,394,89,394.3z"
					/>
			</g>
		</g>
	</g>
	<g>
		<g>
			<g>
				<path class="st1" d="M91.8,387.1c-0.3,0.3-2.6-1.4-5.1-3.8c-2.5-2.5-4.3-4.7-4-5c0.3-0.3,2.6,1.4,5.1,3.8
					C90.4,384.5,92.2,386.8,91.8,387.1z"/>
			</g>
		</g>
	</g>
	<g>
		<g>
			<g>
				<path class="st1" d="M90.6,393.9c-0.4,0.1-1.3-1.6-1.3-3.9c0-2.3,0.8-4,1.2-3.9c0.4,0.1,0.4,1.8,0.4,3.9
					C91,392,91.1,393.8,90.6,393.9z"/>
			</g>
		</g>
	</g>
	<g>
		<g>
			<g>
				<path class="st1" d="M188.4,377.1c0,0.1-1.4,0.4-3.9,0.7c-2.5,0.4-6.1,0.8-10.6,1.4c-9,1.1-21.4,2.4-35.1,3.6
					c-13.7,1.2-26.1,2.1-35.2,2.6c-4.5,0.3-8.2,0.4-10.7,0.5c-2.5,0.1-3.9,0.1-3.9,0c0-0.1,1.4-0.3,3.9-0.6c2.5-0.3,6.1-0.6,10.6-1
					c9-0.8,21.4-1.9,35.1-3.1c13.7-1.2,26.1-2.3,35.1-3.1c4.5-0.4,8.1-0.7,10.6-0.8C187,377,188.4,377,188.4,377.1z"/>
			</g>
		</g>
	</g>
	<g>
		<g>
			<g>
				<path class="st1" d="M190.4,387.5c0,0.1-1.4,0.4-3.9,0.9c-2.5,0.5-6.2,1.1-10.7,1.7c-9,1.3-21.6,2.8-35.5,3.7
					c-13.9,1-26.6,1.2-35.7,1.2c-4.6,0-8.3-0.1-10.8-0.2c-2.6-0.1-4-0.2-4-0.3c0-0.1,1.4-0.2,4-0.3c2.6-0.1,6.2-0.2,10.8-0.3
					c9.1-0.2,21.7-0.7,35.6-1.7c13.9-1,26.4-2.2,35.5-3.3c4.5-0.5,8.2-0.9,10.7-1.2C189,387.5,190.4,387.4,190.4,387.5z"/>
			</g>
		</g>
	</g>
	<g>
		<g>
			<g>
				<path class="st1" d="M189.9,387.2c-0.4-0.2,0-2.3-0.7-4.8c-0.6-2.5-2-4.2-1.7-4.5c0.1-0.2,0.7,0.1,1.4,0.8
					c0.7,0.7,1.4,1.9,1.8,3.4c0.4,1.5,0.3,2.9,0,3.8C190.5,386.8,190.1,387.3,189.9,387.2z"/>
			</g>
		</g>
	</g>
	<g>
		<g>
			<g>
				<path class="st1" d="M213.5,391.3c0,0.4-6.6,1.3-14.8,0.8c-8.2-0.4-14.7-1.9-14.6-2.4c0.1-0.5,6.6,0.3,14.7,0.7
					C206.9,390.9,213.5,390.8,213.5,391.3z"/>
			</g>
		</g>
	</g>
	<g>
		<g>
			<g>
				<path class="st1" d="M108.5,377.9c0.1,0.4-5.7,1.5-12.9,1.7c-7.2,0.2-13-0.7-12.9-1.1c0-0.5,5.8-0.4,12.9-0.5
					C102.7,377.8,108.5,377.5,108.5,377.9z"/>
			</g>
		</g>
	</g>
	<g>
		<g>
			<g>
				<path class="st1" d="M115.2,379.8c-0.1,0.2-1.3,0.1-3.3-0.4c-1-0.3-2.1-0.6-3.4-1.1c-0.6-0.2-1.3-0.5-2-0.9
					c-0.4-0.2-0.7-0.5-1-0.9c-0.3-0.4-0.5-0.9-0.6-1.3c-0.2-0.9-0.2-1.5-0.3-2.3c-0.1-0.7-0.1-1.4-0.2-2.1c-0.1-1.3-0.2-2.5-0.2-3.5
					c-0.1-2,0-3.2,0.2-3.3c0.2,0,0.6,1.2,1,3.1c0.2,1,0.4,2.1,0.6,3.4c0.2,1.3,0.4,2.7,0.6,4.2c0.1,0.6,0.4,0.9,0.9,1.3
					c0.5,0.3,1.1,0.6,1.7,0.9c1.2,0.5,2.3,1,3.2,1.4C114.1,379.1,115.3,379.6,115.2,379.8z"/>
			</g>
		</g>
	</g>
	<g>
		<g>
			<g>
				<path class="st1" d="M116.5,378.2c-0.5,0-1-2.6-1.6-5.8c-0.5-3.2-0.8-5.9-0.4-6c0.4-0.1,1.4,2.4,2,5.7
					C117.1,375.5,116.9,378.2,116.5,378.2z"/>
			</g>
		</g>
	</g>
	<g>
		<g>
			<g>
				<path class="st1" d="M189.2,371.3c0.1,0.4-16.6,2.7-37.3,5.1c-20.6,2.4-37.4,3.9-37.5,3.4c-0.1-0.4,16.6-2.7,37.3-5.1
					S189.2,370.9,189.2,371.3z"/>
			</g>
		</g>
	</g>
	<g>
		<g>
			<g>
				<path class="st1" d="M187.3,356.8c0,0.2-4,0.8-10.5,1.6c-6.5,0.8-15.4,1.8-25.3,3c-9.9,1.2-18.8,2.3-25.3,3.1
					c-6.5,0.8-10.5,1.2-10.5,0.9c0-0.2,3.9-1,10.4-2.1c6.4-1.1,15.4-2.4,25.3-3.6c9.9-1.2,18.9-2.1,25.4-2.6
					C183.2,356.8,187.2,356.6,187.3,356.8z"/>
			</g>
		</g>
	</g>
	<g>
		<g>
			<g>
				<path class="st1" d="M188.9,371.2c-0.4,0.1-1.2-2.8-1.7-6.3s-0.5-6.5-0.1-6.6c0.4-0.1,1.2,2.8,1.7,6.3
					C189.3,368.2,189.3,371.1,188.9,371.2z"/>
			</g>
		</g>
	</g>
	<g>
		<g>
			<g>
				<path class="st1" d="M114,365.5c-0.1,0.4-2.5,0.2-5.3-0.8c-2.8-1-4.9-2.2-4.7-2.6c0.2-0.4,2.5,0.1,5.3,1.1
					C111.9,364.1,114.1,365,114,365.5z"/>
			</g>
		</g>
	</g>
	<g>
		<g>
			<g>
				
					<ellipse transform="matrix(0.9987 -5.051027e-02 5.051027e-02 0.9987 -18.1091 5.9452)" class="st1" cx="108.6" cy="361.3" rx="4.7" ry="0.8"/>
			</g>
		</g>
	</g>
	<g>
		<g>
			<g>
				<path class="st1" d="M117.6,361.1c-0.2,0.4-1.4,0.3-2.7,0c-1.3-0.3-2.4-0.8-2.4-1.3c0-0.4,1.3-0.7,2.8-0.3
					C116.7,359.8,117.7,360.6,117.6,361.1z"/>
			</g>
		</g>
	</g>
	<g>
		<g>
			<g>
				<path class="st1" d="M193.1,353.7c0,0.2-4.2,0.6-11.1,1.1c-6.8,0.5-16.3,1.3-26.7,2.2c-10.4,0.9-19.9,1.9-26.7,2.6
					c-6.8,0.7-11.1,1.1-11.1,0.8c0-0.1,1-0.4,2.9-0.7c1.9-0.3,4.6-0.8,8-1.3c6.8-1,16.2-2.1,26.7-3c10.4-0.9,19.9-1.5,26.8-1.7
					c3.4-0.1,6.2-0.2,8.1-0.2C192.1,353.5,193.1,353.6,193.1,353.7z"/>
			</g>
		</g>
	</g>
	<g>
		<g>
			<g>
				<path class="st1" d="M115.2,340.3c0.4-0.1,1.4,4.3,1.7,9.7c0.3,5.4-0.1,9.9-0.5,9.8c-0.5,0-0.8-4.4-1.1-9.7
					C115,344.7,114.8,340.3,115.2,340.3z"/>
			</g>
		</g>
	</g>
	<g>
		<g>
			<g>
				<path class="st1" d="M195.1,335.6c0,0.1-1.1,0.3-3,0.7c-2,0.3-4.8,0.7-8.4,1.2c-7.1,0.9-16.9,1.9-27.8,2.6
					c-10.9,0.7-20.7,0.9-27.9,0.9c-3.6,0-6.5-0.1-8.5-0.1c-2-0.1-3.1-0.2-3.1-0.3c0-0.2,4.4-0.4,11.5-0.7c7.1-0.3,17-0.7,27.8-1.4
					c10.9-0.7,20.7-1.5,27.8-2.1C190.7,335.8,195.1,335.4,195.1,335.6z"/>
			</g>
		</g>
	</g>
	<g>
		<g>
			<g>
				
					<ellipse transform="matrix(1.834956e-03 -1 1 1.834956e-03 -152.1469 537.1119)" class="st1" cx="193" cy="344.8" rx="7.6" ry="0.8"/>
			</g>
		</g>
	</g>
	<g>
		<g>
			<g>
				<path class="st1" d="M168.9,349.8c0,0.2-2.6,0.7-7,1.3c-4.3,0.6-10.3,1.3-17,1.8c-6.7,0.6-12.7,0.9-17.1,1.1
					c-4.4,0.2-7.1,0.1-7.1-0.1c0-0.2,2.7-0.6,7-1c4.3-0.4,10.4-1,17-1.5c6.6-0.6,12.7-1.1,17-1.4
					C166.1,349.7,168.8,349.6,168.9,349.8z"/>
			</g>
		</g>
	</g>
	<g>
		<g>
			<g>
				<path class="st1" d="M182.6,344.8c0,0.2-2.9,0.5-7.6,0.8c-4.7,0.3-11.2,0.7-18.4,1c-7.2,0.3-13.7,0.6-18.4,0.7
					c-4.7,0.1-7.6,0.1-7.6-0.1c0-0.2,2.9-0.6,7.6-1c4.7-0.4,11.2-0.9,18.4-1.2c7.2-0.3,13.7-0.5,18.4-0.5
					C179.6,344.4,182.6,344.6,182.6,344.8z"/>
			</g>
		</g>
	</g>
	<g>
		<g>
			<g>
				<path class="st1" d="M188.9,349.2c-0.1,0.5-3,0.1-6.4,0.3c-3.5,0.2-6.3,0.9-6.4,0.4c-0.2-0.4,2.6-1.9,6.3-2.1
					C186.1,347.6,189,348.7,188.9,349.2z"/>
			</g>
		</g>
	</g>
	<g>
		<g>
			<g>
				
					<ellipse transform="matrix(0.9986 -5.324130e-02 5.324130e-02 0.9986 -18.4206 5.8849)" class="st1" cx="101.2" cy="348.7" rx="0.8" ry="8"/>
			</g>
		</g>
	</g>
	<g>
		<g>
			<g>
				<path class="st1" d="M115.6,359.7c-0.1,0.4-3.2,0.1-7-0.7c-3.8-0.8-6.8-1.9-6.7-2.3c0.1-0.4,3.2-0.1,7,0.7
					S115.7,359.3,115.6,359.7z"/>
			</g>
		</g>
	</g>
	<g>
		<g>
			<g>
				<path class="st1" d="M116,341.9c-0.1,0.4-3.6,0.4-7.9-0.2s-7.8-1.4-7.7-1.8c0.1-0.4,3.6-0.4,7.9,0.2
					C112.6,340.6,116.1,341.4,116,341.9z"/>
			</g>
		</g>
	</g>
	<g>
		<g>
			<g>
				<path class="st1" d="M90.8,334.8c-0.4,0.1-1.1-2.5-0.9-5.7c0.1-3.2,1-5.7,1.4-5.6c0.5,0.1,0.3,2.6,0.2,5.7
					C91.3,332.2,91.2,334.7,90.8,334.8z"/>
			</g>
		</g>
	</g>
	<g>
		<g>
			<g>
				<path class="st1" d="M186.8,322.4c0,0.1-1.3,0.3-3.7,0.4c-2.4,0.2-5.9,0.4-10.2,0.6c-8.6,0.4-20.6,0.7-33.8,0.9
					c-13.2,0.1-25.1,0-33.8-0.2c-4.3-0.1-7.8-0.2-10.2-0.4c-2.4-0.1-3.7-0.3-3.7-0.4c0-0.1,1.3-0.2,3.8-0.3
					c2.4-0.1,5.9-0.1,10.2-0.2c8.6-0.1,20.6-0.2,33.7-0.3c13.2-0.2,25.1-0.3,33.7-0.4c4.3,0,7.8-0.1,10.2,0
					C185.5,322.2,186.8,322.3,186.8,322.4z"/>
			</g>
		</g>
	</g>
	<g>
		<g>
			<g>
				<path class="st1" d="M184.1,332c0,0.1-1.3,0.3-3.7,0.5c-2.4,0.2-5.8,0.4-10,0.7c-8.5,0.5-20.1,1-33,1.4
					c-12.9,0.4-24.6,0.6-33.1,0.7c-4.2,0-7.7,0-10,0c-2.4-0.1-3.7-0.1-3.7-0.2c0-0.1,1.3-0.2,3.7-0.4c2.4-0.1,5.8-0.3,10-0.5
					c8.5-0.3,20.1-0.7,33-1.1c12.9-0.4,24.6-0.8,33-1c4.2-0.1,7.7-0.2,10-0.2C182.8,331.9,184.1,331.9,184.1,332z"/>
			</g>
		</g>
	</g>
	<g>
		<g>
			<g>
				<path class="st1" d="M186.6,332.8c-0.4,0-1-2.1-1.3-4.8c-0.3-2.7-0.1-4.9,0.3-5c0.4,0,1,2.1,1.3,4.8
					C187.2,330.5,187,332.8,186.6,332.8z"/>
			</g>
		</g>
	</g>
	<g>
		<g>
			<g>
				
					<ellipse transform="matrix(0.1035 -0.9946 0.9946 0.1035 -144.3906 488.2342)" class="st1" cx="198.6" cy="324.2" rx="0.8" ry="13.4"/>
			</g>
		</g>
	</g>
	<g>
		<g>
			<g>
				<path class="st1" d="M210.8,332.2c0.1,0.2-1.3,0.9-3.6,1.2c-2.3,0.4-5.5,0.4-9,0.4c-3.5,0-6.6,0-8.9-0.2
					c-2.4-0.2-3.7-0.9-3.6-1.1c0.1-0.2,1.4,0.1,3.7,0c2.2-0.1,5.4-0.3,8.9-0.3c3.5,0,6.6,0.1,8.9,0
					C209.4,332.2,210.7,331.9,210.8,332.2z"/>
			</g>
		</g>
	</g>
	<g>
		<g>
			<g>
				<path class="st1" d="M210.1,331.2c-0.4,0.1-1.1-0.9-1.2-2.2c-0.1-1.4,0.3-2.5,0.8-2.4c0.5,0,0.7,1.1,0.9,2.3
					C210.6,330.1,210.5,331.1,210.1,331.2z"/>
			</g>
		</g>
	</g>
	<g>
		<g>
			<g>
				
					<ellipse transform="matrix(0.9868 -0.1619 0.1619 0.9868 -53.1696 22.1846)" class="st1" cx="109.6" cy="337.4" rx="10.5" ry="0.8"/>
			</g>
		</g>
	</g>
</g>
<g id="tablet">
	<path class="st0" d="M149.5,513.8c13.7,12.2,27.4,24.3,41.1,36.5c35.3-9.9,70.6-19.8,105.9-29.7c-13.5-10.5-27-21-40.5-31.6
		C220.5,497.3,185,505.6,149.5,513.8z"/>
	<g>
		<g>
			<g>
				<path class="st1" d="M189.3,550c-0.2,0.2-2.5-1.8-6.2-5.2c-3.7-3.3-8.8-7.9-14.5-13c-5.7-5.1-10.8-9.7-14.5-13
					c-3.7-3.3-6-5.5-5.8-5.6c0.1-0.2,2.7,1.6,6.6,4.8c3.9,3.1,9.2,7.6,14.9,12.7c5.7,5.1,10.7,9.9,14.2,13.4
					C187.4,547.5,189.4,549.8,189.3,550z"/>
			</g>
		</g>
	</g>
	<g>
		<g>
			<g>
				<path class="st1" d="M257.1,488.8c0,0.1-1.4,0.6-4.1,1.5c-2.7,0.9-6.5,2-11.3,3.4c-9.6,2.7-23,6.3-37.8,9.7
					c-14.9,3.4-28.4,6.2-38.2,7.9c-4.9,0.9-8.9,1.6-11.7,2c-2.8,0.4-4.3,0.6-4.3,0.5c0-0.1,1.5-0.5,4.2-1.1
					c2.7-0.6,6.7-1.4,11.6-2.5c9.8-2.1,23.3-4.9,38.1-8.4c14.8-3.4,28.2-6.8,37.9-9.3c4.8-1.2,8.8-2.2,11.5-2.9
					C255.5,489.1,257.1,488.7,257.1,488.8z"/>
			</g>
		</g>
	</g>
	<g>
		<g>
			<g>
				<path class="st1" d="M286.2,524.1c0.1,0.4-21.4,6.7-48,14c-26.6,7.3-48.3,12.9-48.4,12.4c-0.1-0.4,21.4-6.7,48-14
					S286.1,523.7,286.2,524.1z"/>
			</g>
		</g>
	</g>
	<g>
		<g>
			<g>
				<path class="st1" d="M294.4,519.1c-0.1,0.2-2.4-1.4-5.9-4.1c-3.5-2.7-8.3-6.4-13.6-10.6c-5.3-4.1-10.1-7.9-13.5-10.6
					c-3.4-2.7-5.5-4.5-5.4-4.7c0.1-0.2,2.5,1.3,6.1,3.8c3.6,2.5,8.5,6.1,13.8,10.3c5.3,4.1,10,8,13.3,11
					C292.6,517,294.6,518.9,294.4,519.1z"/>
			</g>
		</g>
	</g>
	<g>
		<g>
			<g>
				<path class="st1" d="M280.5,523.9c-0.1,0.2-2.4-1.3-5.9-3.7c-3.5-2.5-8.3-5.9-13.5-9.9c-5.2-3.9-9.9-7.6-13.2-10.3
					c-3.3-2.7-5.3-4.5-5.2-4.6c0.1-0.2,2.4,1.3,5.9,3.7c3.5,2.5,8.3,5.9,13.5,9.9c5.2,3.9,9.9,7.6,13.2,10.3
					C278.6,522,280.6,523.7,280.5,523.9z"/>
			</g>
		</g>
	</g>
	<g>
		<g>
			<g>
				<path class="st1" d="M268.7,506.3c-0.2-0.1-0.1-0.9-0.9-1.8c-0.3-0.4-0.9-0.8-1.6-1.2c-0.4-0.2-0.7-0.3-1.2-0.5
					c-0.4-0.1-1.1-0.4-1-0.3c-0.1,0-0.3,0-0.3,0.1c0,0.1,0,0.1,0,0.2l0,0.1l0.1,0.3c0.4,0.7,0.8,1.3,1.2,1.7
					c0.8,0.9,1.5,1.4,1.4,1.6c-0.1,0.2-1,0.1-2.1-0.8c-0.6-0.4-1.2-1-1.7-1.8c-0.1-0.1-0.1-0.2-0.2-0.3c-0.1-0.2-0.2-0.3-0.3-0.5
					c-0.2-0.4-0.2-0.7-0.1-1.1c0.2-0.8,1-1.2,1.8-1.2c1,0.1,1.3,0.3,1.8,0.5c0.5,0.2,0.9,0.4,1.3,0.7c0.8,0.5,1.5,1.2,1.8,1.9
					c0.3,0.7,0.4,1.4,0.3,1.8C268.9,506.2,268.8,506.3,268.7,506.3z"/>
			</g>
		</g>
	</g>
	<g>
		<g>
			<g>
				<path class="st1" d="M195.8,541.5c-0.3,0.3-6.3-4.9-13.4-11.7c-7.1-6.8-12.5-12.6-12.2-12.9c0.3-0.3,6.3,4.9,13.4,11.7
					C190.7,535.4,196.2,541.2,195.8,541.5z"/>
			</g>
		</g>
	</g>
	<g>
		<g>
			<g>
				<path class="st1" d="M240.2,499.9c0.1,0.4-15.3,4.2-34.4,8.4c-19.1,4.2-34.7,7.2-34.8,6.8c-0.1-0.4,15.3-4.2,34.4-8.4
					C224.5,502.5,240.1,499.5,240.2,499.9z"/>
			</g>
		</g>
	</g>
	<g>
		<g>
			<g>
				<path class="st1" d="M258.4,523c0.1,0.2-3.2,1.5-8.6,3.5c-5.4,1.9-12.9,4.4-21.3,6.9c-8.4,2.5-16,4.6-21.6,6
					c-5.6,1.4-9,2.1-9.1,1.9c-0.1-0.2,3.3-1.3,8.8-3c5.5-1.7,13.1-4,21.4-6.5c8.4-2.5,16-4.8,21.4-6.5
					C254.9,523.7,258.3,522.8,258.4,523z"/>
			</g>
		</g>
	</g>
	<g>
		<g>
			<g>
				<path class="st1" d="M261.9,517.7c-0.1,0.2-1.6-0.2-3.7-1.4c-2.1-1.2-4.8-3.3-7.4-5.7c-2.7-2.5-5.1-4.6-6.9-6.1
					c-1.8-1.5-3.1-2.2-3-2.5c0.1-0.2,1.5,0.3,3.6,1.5c2.1,1.2,4.7,3.4,7.4,5.8c2.7,2.4,5.1,4.6,7,6
					C260.8,516.7,262,517.4,261.9,517.7z"/>
			</g>
		</g>
	</g>
	<g>
		<g>
			<g>
				<path class="st1" d="M198.8,530.9c-0.4,0.3-3.2-2.4-6.8-5.6c-3.6-3.2-6.7-5.6-6.4-6c0.2-0.4,3.8,1.5,7.5,4.8
					C196.8,527.3,199.2,530.6,198.8,530.9z"/>
			</g>
		</g>
	</g>
	<g>
		<g>
			<g>
				<path class="st1" d="M204.1,527.8c-0.4,0.3-2.7-1.9-5.4-4.6c-2.8-2.7-5-5-4.7-5.4c0.3-0.3,3,1.4,5.9,4.2
					C202.6,524.7,204.4,527.5,204.1,527.8z"/>
			</g>
		</g>
	</g>
	<g>
		<g>
			<g>
				<path class="st1" d="M215.4,530.7c-0.4,0.3-3.7-3.7-8.3-8.1c-4.5-4.5-8.5-7.8-8.2-8.2c0.2-0.4,4.7,2.4,9.3,7
					C213,526,215.8,530.5,215.4,530.7z"/>
			</g>
		</g>
	</g>
	<g>
		<g>
			<g>
				<path class="st1" d="M221.3,525.8c-0.4,0.3-2.8-2.6-5.8-6c-3-3.4-5.6-6.1-5.3-6.4c0.3-0.3,3.4,1.9,6.5,5.4
					C219.8,522.2,221.6,525.6,221.3,525.8z"/>
			</g>
		</g>
	</g>
	<g>
		<g>
			<g>
				<path class="st1" d="M237.2,525.4c-0.1,0.2-1.4-0.4-3-2c-1.6-1.5-3.3-4.1-5.3-6.6c-1.9-2.5-4.4-4.2-5.9-5.8
					c-1.6-1.6-2.2-2.9-2-3c0.2-0.1,1.1,0.9,2.7,2.1c0.9,0.7,1.9,1.4,3,2.3c1.1,0.9,2.4,2,3.4,3.4c2.1,2.7,3.5,5.3,4.8,6.9
					C236.3,524.4,237.4,525.2,237.2,525.4z"/>
			</g>
		</g>
	</g>
</g>
<g id="laptop">
	<path class="st0" d="M220,350.7c5.1,25.8,10.2,51.6,15.3,77.4c17.3,8.7,34.5,17.4,51.8,26.1c10.4-2,20.9-4.1,31.6-6.4
		c22.7-4.9,44.7-10.2,65.7-15.8c-16.3-7.1-32.7-14.3-49-21.4c-5.6-23.3-11.2-46.7-16.8-70C285.8,343.9,252.9,347.3,220,350.7z"/>
	<g>
		<g>
			<g>
				
					<ellipse transform="matrix(0.9797 -0.2003 0.2003 0.9797 -73.2933 53.5356)" class="st1" cx="227.9" cy="388.9" rx="0.8" ry="38.9"/>
			</g>
		</g>
	</g>
	<g>
		<g>
			<g>
				<path class="st1" d="M319,340.9c0,0.1-1.4,0.3-3.9,0.6c-2.5,0.2-6.1,0.6-10.6,1c-9,0.8-21.3,1.9-35,3.3
					c-13.6,1.4-26,2.9-34.9,3.9c-4.5,0.5-8.1,0.9-10.6,1.2c-2.5,0.3-3.9,0.4-3.9,0.2c0-0.1,1.3-0.4,3.8-0.9
					c2.5-0.5,6.1-1.1,10.5-1.7c8.9-1.4,21.2-3,34.9-4.4c13.7-1.4,26.1-2.3,35.1-2.8c4.5-0.2,8.1-0.4,10.7-0.5
					C317.6,340.8,319,340.8,319,340.9z"/>
			</g>
		</g>
	</g>
	<g>
		<g>
			<g>
				<path class="st1" d="M335.1,410c-0.2,0.1-1.4-3.8-3.2-10c-1.8-6.2-4-14.9-6.3-24.5c-2.3-9.6-4.1-18.4-5.3-24.7
					c-1.2-6.4-1.8-10.3-1.6-10.4c0.2,0,1.2,3.8,2.7,10.1c1.5,6.3,3.5,15,5.8,24.6c2.3,9.6,4.3,18.3,5.8,24.6
					C334.4,406.1,335.3,410,335.1,410z"/>
			</g>
		</g>
	</g>
	<g>
		<g>
			<g>
				<path class="st1" d="M335.5,409.8c0,0.1-1.3,0.5-3.8,1.2c-2.5,0.7-6,1.6-10.5,2.6c-8.9,2.1-21.2,4.7-34.9,7
					c-13.7,2.4-26.2,4.1-35.3,5.1c-4.5,0.5-8.2,0.9-10.7,1.1c-2.5,0.2-4,0.3-4,0.2c0-0.1,1.4-0.4,3.9-0.8c2.5-0.4,6.2-0.9,10.7-1.6
					c9-1.3,21.5-3.2,35.1-5.6c13.7-2.4,26-4.8,35-6.6c4.5-0.9,8.1-1.6,10.6-2.1C334.1,409.9,335.5,409.7,335.5,409.8z"/>
			</g>
		</g>
	</g>
	<g>
		<g>
			<g>
				
					<ellipse transform="matrix(0.9794 -0.2017 0.2017 0.9794 -73.406 54.7311)" class="st1" cx="231.9" cy="387.6" rx="0.8" ry="33.7"/>
			</g>
		</g>
	</g>
	<g>
		<g>
			<g>
				<path class="st1" d="M315,343.8c0,0.1-1.2,0.4-3.5,0.8c-2.3,0.4-5.5,1-9.6,1.6c-8.1,1.3-19.3,2.9-31.8,4.4
					c-12.4,1.5-23.7,2.6-31.9,3.3c-4.1,0.3-7.4,0.6-9.7,0.7c-2.3,0.1-3.6,0.1-3.6,0c0-0.1,1.2-0.3,3.5-0.7c2.3-0.3,5.6-0.7,9.6-1.2
					c8.1-1,19.4-2.3,31.8-3.8c12.4-1.5,23.6-2.9,31.8-3.9c4.1-0.5,7.4-0.9,9.6-1.1C313.7,343.7,315,343.7,315,343.8z"/>
			</g>
		</g>
	</g>
	<g>
		<g>
			<g>
				<path class="st1" d="M327.6,406.1c-0.2,0-1-3.3-2.2-8.8c-1.2-5.5-2.8-13.1-4.5-21.5c-1.8-8.4-3.4-16-4.5-21.5
					c-1.1-5.5-1.8-8.9-1.5-9c0.2-0.1,1.2,3.3,2.7,8.7c1.4,5.4,3.2,13,5,21.4c1.8,8.4,3.2,16.1,4.1,21.6
					C327.4,402.6,327.8,406.1,327.6,406.1z"/>
			</g>
		</g>
	</g>
	<g>
		<g>
			<g>
				<path class="st1" d="M325,406.5c0.1,0.4-18.8,4.2-42.2,8.4c-23.4,4.2-42.4,7.2-42.5,6.8c-0.1-0.4,18.8-4.2,42.2-8.4
					C305.9,409,325,406,325,406.5z"/>
			</g>
		</g>
	</g>
	<g>
		<g>
			<g>
				<path class="st1" d="M263.9,402.5c-0.4,0.1-2.3-7.2-4.2-16.2c-1.9-9-3-16.4-2.6-16.5s2.3,7.2,4.2,16.2
					C263.2,395,264.3,402.4,263.9,402.5z"/>
			</g>
		</g>
	</g>
	<g>
		<g>
			<g>
				<path class="st1" d="M298.7,381.7c-0.1,0.4-9.4-1.2-20.6-4.4c-11.2-3.1-20-6.6-19.9-7c0.2-0.4,9.2,2.3,20.3,5.5
					C289.7,379,298.8,381.3,298.7,381.7z"/>
			</g>
		</g>
	</g>
	<g>
		<g>
			<g>
				<path class="st1" d="M298.4,382.1c0.2,0.4-7,5.3-16.5,10.6c-9.4,5.3-17.4,9-17.6,8.6c-0.2-0.4,7.4-4.7,16.8-10
					C290.5,386.1,298.1,381.8,298.4,382.1z"/>
			</g>
		</g>
	</g>
	<g>
		<g>
			<g>
				<path class="st1" d="M287.1,454.6c-0.1,0.2-3.1-1-7.9-3.1c-4.8-2.1-11.4-5.2-18.5-8.9c-7.2-3.7-13.5-7.2-18.1-9.8
					c-4.5-2.7-7.3-4.4-7.2-4.6c0.1-0.2,3,1.2,7.7,3.6c4.7,2.4,11.1,5.7,18.3,9.4c7.1,3.6,13.6,6.9,18.3,9.3
					C284.3,452.8,287.2,454.4,287.1,454.6z"/>
			</g>
		</g>
	</g>
	<g>
		<g>
			<g>
				<path class="st1" d="M366.7,436.7c0,0.1-1.1,0.5-3,1.1c-2,0.6-4.9,1.4-8.4,2.3c-7.1,1.9-17,4.3-28,6.7c-11,2.4-21,4.4-28.2,5.7
					c-3.6,0.7-6.6,1.1-8.6,1.4c-2,0.3-3.2,0.4-3.2,0.3s1.1-0.4,3.1-0.9c2-0.5,4.9-1.2,8.5-1.9c7.2-1.6,17.1-3.8,28.1-6.2
					c11-2.4,20.9-4.6,28.1-6.2c3.6-0.8,6.5-1.4,8.5-1.8C365.5,436.8,366.7,436.6,366.7,436.7z"/>
			</g>
		</g>
	</g>
	<g>
		<g>
			<g>
				<path class="st1" d="M379.8,427.6c-0.1,0.2-2.6-0.3-6.7-1.5c-4.1-1.2-9.7-3-15.7-5.4c-6.1-2.4-11.4-4.8-15.2-6.8
					c-3.8-1.9-6-3.3-5.9-3.5c0.2-0.4,9.7,4.1,21.7,8.8C369.9,424,379.9,427.1,379.8,427.6z"/>
			</g>
		</g>
	</g>
	<g>
		<g>
			<g>
				<path class="st1" d="M283.9,448.2c-0.2,0.4-7.8-3.8-17.1-9c-9.3-5.3-16.7-9.7-16.5-10.1c0.2-0.4,8,3.4,17.3,8.7
					C276.9,443,284.1,447.8,283.9,448.2z"/>
			</g>
		</g>
	</g>
	<g>
		<g>
			<g>
				<path class="st1" d="M329,414.9c0,0.1-1,0.5-2.9,1.1c-1.9,0.6-4.7,1.3-8.1,2.2c-6.9,1.8-16.5,3.9-27.2,5.9
					c-10.7,2-20.4,3.4-27.5,4.3c-3.5,0.4-6.4,0.7-8.4,0.9c-2,0.2-3.1,0.2-3.1,0.1c0-0.2,4.3-0.9,11.3-2.1c7-1.1,16.7-2.7,27.4-4.7
					c10.7-2,20.3-4,27.2-5.5C324.6,415.6,328.9,414.7,329,414.9z"/>
			</g>
		</g>
	</g>
	<g>
		<g>
			<g>
				<path class="st1" d="M361.4,425.3c-0.1,0.4-6.9-0.7-14.7-3.8c-3.9-1.5-7.3-3.2-9.7-4.6c-2.3-1.4-3.9-1.9-3.9-2.1
					c0-0.2,1.8-0.1,4.4,1.1c2.5,1.1,5.9,2.6,9.8,4.1C355,423.1,361.5,424.9,361.4,425.3z"/>
			</g>
		</g>
	</g>
	<g>
		<g>
			<g>
				<path class="st1" d="M337.6,418.3c0,0.1-1,0.5-2.9,1.1c-1.9,0.6-4.7,1.4-8.1,2.3c-6.9,1.9-16.4,4.2-27.1,6.4
					c-10.6,2.2-20.3,3.8-27.4,4.8c-3.5,0.5-6.4,0.9-8.4,1.1c-2,0.2-3.1,0.3-3.1,0.1c0-0.2,4.3-1.1,11.3-2.4c7-1.3,16.6-3.1,27.3-5.3
					c10.6-2.2,20.2-4.3,27.1-5.9C333.3,419,337.6,418,337.6,418.3z"/>
			</g>
		</g>
	</g>
	<g>
		<g>
			<g>
				<path class="st1" d="M331.7,423.8c0.1,0.2-3.2,1.4-8.4,3.1c-5.3,1.7-12.7,3.8-20.9,5.8c-8.2,2-15.7,3.7-21.1,4.7
					c-5.4,1-8.8,1.5-8.9,1.3c0-0.2,3.3-1.1,8.6-2.4c5.4-1.3,12.8-3.1,21-5.1c8.2-2.1,15.6-4,20.9-5.3
					C328.3,424.4,331.6,423.6,331.7,423.8z"/>
			</g>
		</g>
	</g>
	<g>
		<g>
			<g>
				<path class="st1" d="M340.6,425.4c0.1,0.2-2.9,1.5-7.8,3.4c-4.9,1.8-11.7,4.2-19.4,6.5c-7.6,2.3-14.6,4.1-19.7,5.3
					c-5.1,1.2-8.3,1.7-8.3,1.5c-0.1-0.2,3-1.2,8.1-2.6c5-1.5,11.9-3.5,19.6-5.8c7.6-2.3,14.5-4.5,19.5-6
					C337.4,426.1,340.5,425.2,340.6,425.4z"/>
			</g>
		</g>
	</g>
	<g>
		<g>
			<g>
				<path class="st1" d="M287.9,441.9c-0.3,0.4-3.8-1.9-8.1-4.7c-4.3-2.8-7.8-5.1-7.6-5.5c0.2-0.4,4.1,1.3,8.4,4.1
					C285.1,438.7,288.2,441.6,287.9,441.9z"/>
			</g>
		</g>
	</g>
	<g>
		<g>
			<g>
				<path class="st1" d="M302,441c-0.3,0.3-4.8-2.9-10-7.3s-9.2-8.2-8.9-8.5c0.3-0.4,4.8,2.9,10,7.3
					C298.3,436.9,302.3,440.7,302,441z"/>
			</g>
		</g>
	</g>
	<g>
		<g>
			<g>
				<path class="st1" d="M312.7,436.5c-0.3,0.4-4.3-2.2-8.8-5.9c-4.5-3.7-7.8-7.2-7.5-7.5c0.3-0.3,4.1,2.5,8.6,6.2
					C309.4,433.1,313,436.2,312.7,436.5z"/>
			</g>
		</g>
	</g>
	<g>
		<g>
			<g>
				<path class="st1" d="M324.3,431.9c-0.3,0.3-3.3-2.1-6.6-5.3s-5.8-6.2-5.5-6.5s3.3,2.1,6.6,5.3S324.6,431.6,324.3,431.9z"/>
			</g>
		</g>
	</g>
</g>
<g id="guy">
	<g id="leg_right">
		<path d="M442.8,448.1c1.1-0.7,1.8,0,5.2-0.2c4.1-0.1,5.2-1.2,11.2-2.3c2.3-0.4,4.7-0.8,6.2-0.9c6.8-0.6,11.7,2.1,16.3,3.9
			c14.6,5.4,25.8,1.2,26.5,4.4c0.5,2.3-4.9,5.4-6.9,6.6c-2.1,1.2-5.3,2.7-11,3.4c-6.7,0.9-11.9,0.2-20.8-1.1
			c-7.7-1.1-8.3-1.6-12.3-1.8c-6.6-0.2-12,1-15.5,2.1C439.8,452.7,440.9,449.2,442.8,448.1z"/>
		<path class="st0" d="M421.1,384.2c-4.1,1.4-10.4,3.6-18.1,6.3c-19.3,6.6-22.7,7.6-31.9,11c-13.3,5-20,7.6-28,12.3
			c-6.8,4-13.8,9.1-20.1,16.8c-8.3,10.1-7.9,15.7-7.6,17.8c0.5,3.5,2.3,6,3,7c5.1,7,14.1,8.6,18.3,9.4c39.6,7.1,33.1,6.6,40.7,7.4
			c16.3,1.6,27.1,2.6,42.2,1.7c9.7-0.6,17.8-1.9,23.7-3c1-2.2,1.9-5.1,2.2-8.7c0.7-10-4.5-17.3-6.3-19.7c4.8-2,11.9-5.7,19-12.4
			c8.4-7.8,12.4-15.8,13.5-17.9c5.8-12,6.2-23.1,5.9-29.2C458.8,383.5,440,383.9,421.1,384.2z"/>
		<g>
			<g>
				<g>
					<path class="st1" d="M443.1,470.4c0,0.1-0.9,0.3-2.6,0.7c-0.9,0.2-1.9,0.5-3.2,0.8c-1.3,0.2-2.7,0.5-4.4,0.8
						c-6.6,1.2-16.3,2.3-28.4,2.2c-6-0.1-12.6-0.4-19.7-1.1c-7-0.7-14.5-1.7-22.4-3c-3.9-0.6-7.9-1.4-12-2.1
						c-4.1-0.8-8.3-1.5-12.5-2.6c-4.2-1.1-8.5-2.5-12.5-4.6c-2-1-4-2.2-5.8-3.7c-1.8-1.5-3.4-3.4-4.3-5.8c-0.9-2.3-1-4.8-0.6-7.1
						c0.4-2.3,1.2-4.5,2.2-6.6c1-2.1,2.3-3.9,3.6-5.8c1.3-1.8,2.7-3.5,4.2-5.1c5.9-6.5,12.9-11.4,19.8-15.3c7-3.9,14-6.7,20.7-9.2
						c6.7-2.4,12.9-4.4,18.6-6.3c11.4-3.8,20.6-6.8,27-8.8c3.2-1,5.7-1.8,7.4-2.3c1.7-0.5,2.6-0.8,2.6-0.7c0,0.1-0.8,0.4-2.5,1
						c-1.7,0.6-4.1,1.5-7.3,2.6c-6.3,2.2-15.5,5.4-26.9,9.3c-5.7,2-11.9,4-18.5,6.5c-6.6,2.5-13.5,5.4-20.4,9.2
						c-6.8,3.9-13.7,8.7-19.4,15c-1.4,1.6-2.8,3.2-4.1,5c-1.3,1.8-2.5,3.6-3.4,5.5c-1,1.9-1.7,4-2.1,6.1c-0.3,2.1-0.3,4.3,0.5,6.3
						c0.7,2,2.1,3.7,3.8,5.1c1.7,1.4,3.6,2.5,5.5,3.5c3.9,2,8,3.4,12.2,4.5c4.1,1.1,8.3,1.9,12.4,2.7c4.1,0.8,8.1,1.5,12,2.2
						c7.8,1.3,15.3,2.4,22.3,3.1c7,0.8,13.6,1.1,19.5,1.3c12,0.3,21.6-0.7,28.3-1.6c1.7-0.3,3.1-0.5,4.4-0.7
						c1.3-0.2,2.3-0.5,3.2-0.6C442.1,470.5,443.1,470.3,443.1,470.4z"/>
				</g>
			</g>
		</g>
		<g>
			<g>
				<g>
					<path class="st1" d="M399.7,452.2c0-0.1,1.3-0.4,3.8-0.9c2.4-0.5,6-1.2,10.3-2.1c4.3-0.9,9.4-2.2,15-3.9
						c5.6-1.8,11.5-4.1,17.4-7.4c5.8-3.3,10.9-7.2,14.9-11.4c4-4.2,7.1-8.4,9.1-12.3c2-3.9,3.2-7.3,3.9-9.6c0.2-0.6,0.3-1.1,0.4-1.6
						c0.1-0.5,0.2-0.9,0.3-1.2c0.2-0.6,0.3-1,0.3-1c0.1,0,0,0.4,0,1c0,0.3-0.1,0.7-0.1,1.2c0,0.5-0.1,1-0.3,1.6
						c-0.4,2.5-1.5,6-3.5,10c-2,4-5,8.5-9.1,12.8c-4.1,4.3-9.3,8.4-15.2,11.8c-6,3.3-12.1,5.7-17.7,7.4c-5.7,1.7-10.8,2.8-15.2,3.6
						c-4.4,0.8-7.9,1.3-10.4,1.6C401.1,452.2,399.7,452.3,399.7,452.2z"/>
				</g>
			</g>
		</g>
		<g>
			<g>
				<g>
					<path class="st1" d="M443.3,471c-0.2-0.1,0-1.8,0.4-4.5c0.4-2.8,0.9-6.6,0.6-10.7c-0.3-4.1-1.6-7.7-3-10.1
						c-1.4-2.3-2.7-3.5-2.5-3.7c0.1-0.2,1.7,0.7,3.5,3c1.8,2.3,3.4,6.2,3.7,10.6c0.3,4.4-0.5,8.3-1.1,11.1
						C444.2,469.4,443.6,471,443.3,471z"/>
				</g>
			</g>
		</g>
		<g>
			<g>
				<g>
					<path class="st1" d="M502.1,453.4c-0.1,0.2-3.4-0.4-8.8-1.5c-5.4-1.1-12.8-2.8-21-4.8c-2-0.5-4-1-5.9-1.4
						c-0.9-0.2-1.8-0.4-2.7-0.4c-0.8,0-1.7,0.2-2.5,0.4c-1.7,0.5-3.4,1.1-5,1.5c-1.6,0.4-3.1,0.7-4.5,0.8c-2.8,0.4-5,0.4-6.6,0.3
						c-1.5-0.1-2.4-0.2-2.4-0.3c0-0.3,3.4-0.2,8.8-1.2c1.3-0.3,2.8-0.6,4.3-1c1.6-0.4,3.1-1,4.9-1.6c0.9-0.3,1.9-0.5,3-0.5
						c1,0,2.1,0.2,3.1,0.4c1.9,0.5,3.9,0.9,6,1.4c8.2,2,15.5,3.8,20.8,5.2C498.9,452.2,502.2,453.2,502.1,453.4z"/>
				</g>
			</g>
		</g>
		<g>
			<g>
				<g>
					<path class="st1" d="M504.8,457.2c0.1,0.1-0.6,0.7-1.9,1.7c-1.3,0.9-3.3,2.1-6.1,3.1c-2.7,1-6.1,1.7-9.9,2
						c-3.8,0.3-8,0.1-12.3-0.5c-4.4-0.6-8.4-1.5-12.1-2.1c-3.7-0.6-7-0.9-9.8-0.6c-2.8,0.2-4.9,0.8-6.4,1.4
						c-0.7,0.3-1.3,0.6-1.7,0.7c-0.4,0.2-0.6,0.2-0.6,0.2c0,0,0.1-0.2,0.5-0.5c0.3-0.3,0.8-0.7,1.6-1c1.4-0.8,3.7-1.7,6.5-2
						c2.9-0.4,6.4-0.2,10.1,0.3c3.8,0.5,7.8,1.4,12,2c8.5,1.2,16.4,0.7,21.7-1c2.7-0.8,4.7-1.8,6.1-2.6
						C504,457.6,504.8,457.1,504.8,457.2z"/>
				</g>
			</g>
		</g>
	</g>
	<g id="leg_left">
		<path d="M472.1,457.9c1.6-1.9,4.4-1.3,10.6-3.2c3.9-1.2,6.9-2.7,8.8-3.8c5,1.3,12.8,3.4,22.3,5.7c22.8,5.6,32.1,7.3,32.3,11
			c0.2,2.9-5.3,5.5-7.6,6.6c-6.9,3.2-13.5,2.4-23.6,1c-8.4-1.2-15.1-2.9-15.1-2.9c-5.7-1.5-8-2.5-12-2.5c-5.1,0-9.3,1.8-12.1,3.3
			C470.2,463.5,470.7,459.7,472.1,457.9z"/>
		<path class="st0" d="M509.4,403.2c-0.1,2.5-0.4,6.1-1.6,10.3c0,0-2,7-7,14.1c-9.6,13.7-29.2,23.3-31.7,24.5c1,1.8,2.1,3.7,3,5.8
			c3.6,8,5,15.5,5.4,21.4c-3.5,0.8-8.4,1.9-14.4,3.1c-8.1,1.6-19.5,3.9-30.9,5.3c-15,1.8-26.1,1.7-38.8,1.4
			c-9.5-0.2-30.9-0.8-50.7-6.8c-3.5-1-10.3-3.3-15.5-9.5c-1.7-2-5.3-6.3-5.4-12.4c-0.1-5.5,2.7-9.8,5.3-13
			c13.2-16.6,33.4-25.6,33.4-25.6c16.1-7.2,36.9-15.6,62.1-23.9c-1.9-0.7-4-1.6-4-2.7c0-3.5,20.5-6.5,33.7-6.9
			C464.6,388.3,484.7,390.1,509.4,403.2z"/>
		<g>
			<g>
				<g>
					<path class="st1" d="M425.8,398.4c-0.2,0.4-1.9,0.1-3.9-0.7c-2-0.8-3.5-1.8-3.3-2.2c0.2-0.4,1.9-0.1,3.9,0.7
						C424.5,397,426,398,425.8,398.4z"/>
				</g>
			</g>
		</g>
		<g>
			<g>
				<g>
					<path class="st1" d="M422.5,398.2c0,0.1-1.4,0.7-4,1.6c-2.6,0.9-6.5,2.2-11.2,3.8c-9.4,3.2-22.5,7.6-36.3,14
						c-6.9,3.2-13.2,6.7-18.8,10.1c-5.6,3.5-10.4,7-14.2,10.1c-3.8,3.1-6.8,5.9-8.8,7.8c-2,1.9-3.1,3-3.2,3
						c-0.1-0.1,0.9-1.3,2.7-3.4c1.9-2.1,4.7-5,8.5-8.3c3.8-3.3,8.6-6.9,14.1-10.5c5.6-3.6,12-7.1,18.9-10.4
						c13.9-6.4,27.1-10.7,36.6-13.7c4.8-1.5,8.7-2.6,11.4-3.3C421,398.4,422.5,398,422.5,398.2z"/>
				</g>
			</g>
		</g>
		<g>
			<g>
				<g>
					<path class="st1" d="M477.9,478.9c0,0.1-0.6,0.3-1.8,0.6c-1.2,0.4-3,0.9-5.3,1.5c-2.3,0.6-5.1,1.3-8.4,2.1
						c-1.6,0.4-3.4,0.8-5.3,1.2c-1.9,0.4-3.9,0.9-6,1.2c-8.4,1.6-18.4,3.2-29.7,4.2c-11.3,1-23.7,1.3-36.7,0.3
						c-13-0.9-25.3-3.2-36.2-6.3c-2.7-0.8-5.3-1.7-7.9-2.5c-2.5-0.9-5-1.8-7.3-3c-2.3-1.1-4.4-2.5-6.2-4.1c-1.8-1.6-3.2-3.4-4.2-5.4
						c-2-4-1.9-8.2-1.3-11.6c0.7-3.4,2-6.1,3.2-8.2c1.2-2.1,2.4-3.5,3.2-4.5c0.8-0.9,1.3-1.4,1.4-1.4c0.1,0.1-1.7,2-4,6.2
						c-1.1,2.1-2.3,4.8-2.9,8c-0.6,3.2-0.5,7.2,1.4,10.9c0.9,1.8,2.3,3.5,4,5c1.7,1.5,3.7,2.7,5.9,3.8c2.2,1.1,4.6,2,7.1,2.8
						c2.5,0.8,5.2,1.6,7.8,2.4c10.8,3,23,5.2,35.9,6.2c12.9,1,25.3,0.7,36.5-0.2c11.2-0.9,21.2-2.3,29.6-3.8c2.1-0.3,4.1-0.8,6-1.1
						c1.9-0.4,3.7-0.7,5.3-1c3.3-0.7,6.2-1.3,8.5-1.8c2.3-0.5,4.1-0.9,5.4-1.2C477.3,478.9,477.9,478.8,477.9,478.9z"/>
				</g>
			</g>
		</g>
		<g>
			<g>
				<g>
					<path class="st1" d="M420.5,463c0-0.1,1.6-0.4,4.5-0.9c2.9-0.5,7.1-1.2,12.2-2.1c5.2-0.9,11.3-2.2,17.9-4
						c6.6-1.8,13.8-4.4,20.9-8.1c3.5-1.9,6.8-3.9,9.8-6.2c3-2.2,5.7-4.6,8.1-7.1c4.8-4.9,8.4-10,10.6-14.7c1.2-2.3,2-4.5,2.7-6.5
						c0.3-1,0.6-1.9,0.9-2.8c0.2-0.9,0.4-1.7,0.6-2.4c0.1-0.4,0.2-0.7,0.2-1c0.1-0.3,0.1-0.6,0.1-0.9c0.1-0.6,0.2-1,0.2-1.4
						c0.1-0.8,0.2-1.2,0.3-1.2c0.1,0,0.1,0.4,0,1.2c0,0.4-0.1,0.9-0.1,1.4c0,0.3,0,0.6-0.1,0.9c-0.1,0.3-0.1,0.7-0.2,1
						c-0.1,0.7-0.3,1.5-0.4,2.4c-0.2,0.9-0.5,1.8-0.7,2.8c-0.6,2-1.4,4.3-2.5,6.7c-2.2,4.8-5.8,10.2-10.6,15.2
						c-2.5,2.5-5.2,5-8.2,7.3c-3.1,2.3-6.4,4.4-10,6.3c-7.2,3.7-14.5,6.3-21.2,8.1c-6.7,1.8-12.9,2.9-18.1,3.7
						c-5.2,0.8-9.4,1.3-12.4,1.6C422.1,463.1,420.5,463.2,420.5,463z"/>
				</g>
			</g>
		</g>
		<g>
			<g>
				<g>
					<path class="st1" d="M477.5,479.3c-0.5,0-0.8-6.6-2.9-14.5c-0.5-2-1-3.8-1.6-5.5c-0.6-1.6-1.3-3-2-4c-1.5-2.1-3.2-2.5-3.1-2.7
						c0-0.1,0.5-0.1,1.2,0.1c0.8,0.2,1.8,0.8,2.8,1.9c1,1,1.9,2.5,2.6,4.2c0.7,1.7,1.3,3.6,1.8,5.6
						C478.3,472.5,477.9,479.3,477.5,479.3z"/>
				</g>
			</g>
		</g>
		<g>
			<g>
				<g>
					<path class="st1" d="M545.8,468c0,0.1-1.1-0.1-3-0.6c-1.9-0.5-4.6-1.2-7.9-2.2c-6.7-1.9-15.9-4.6-26-7.7
						c-2.5-0.8-5-1.5-7.4-2.3c-2.4-0.7-4.7-1.5-6.8-1.8c-4.4-0.8-8.3,0.6-11.5,1.8c-3.2,1.2-5.9,2.2-7.9,2.6c-1.9,0.4-3,0.3-3,0.2
						c0-0.1,1.1-0.3,2.9-0.8c1.9-0.5,4.4-1.6,7.6-3c1.6-0.7,3.4-1.4,5.5-1.9c2-0.5,4.4-0.7,6.7-0.3c2.4,0.3,4.7,1.1,7.1,1.8
						c2.4,0.7,4.9,1.5,7.4,2.3c10.1,3.1,19.3,6,25.9,8.2c3.3,1.1,6,2,7.8,2.7C544.8,467.4,545.8,467.8,545.8,468z"/>
				</g>
			</g>
		</g>
		<g>
			<g>
				<g>
					<path class="st1" d="M546.2,469.4c0.1,0-0.3,1-1.6,2.4c-1.3,1.4-3.5,3-6.7,4.1c-3.2,1.1-7.2,1.4-11.6,1.2
						c-4.4-0.2-9.1-0.7-14.1-1.4c-5-0.8-9.6-1.8-13.8-2.9c-4.2-1.1-7.9-2.1-11.1-2.3c-3.2-0.3-5.8,0.2-7.4,0.8
						c-1.7,0.6-2.5,1.2-2.6,1.1c0-0.1,0.7-0.8,2.3-1.7c0.8-0.4,1.9-0.8,3.3-1.1c1.3-0.2,2.8-0.4,4.5-0.3c3.3,0.1,7.2,1,11.4,2
						c4.2,1,8.8,2,13.7,2.7c4.9,0.8,9.6,1.3,13.9,1.6c4.3,0.3,8.1,0.1,11.2-0.8c3.1-0.9,5.3-2.3,6.6-3.4
						C545.5,470.2,546.1,469.4,546.2,469.4z"/>
				</g>
			</g>
		</g>
	</g>
	<g id="hand_right">
		<path class="st0" d="M443.2,251.4c-1.8,3-3.7,6.1-5.5,9.1l0,0c-2.9,10-5.7,20.5-8.2,31.4c-1.4,5.9-2.7,11.8-3.9,17.5
			c-4.1,0.2-8.5,0.2-13,0.2c-7-0.1-13.6-0.5-19.8-1.1c-0.5,0.6-1.1,1.3-1.6,1.9c-1.4-1-4.9-3.3-9.6-3.1c-0.2,0-4.9,0.3-5.1,1.7
			c-0.2,1,1.9,2.7,11.1,5.8c0.1,2.4,0.5,5.6,1.8,9.1c2.8,7.5,7.9,12,10.5,13.9c2.1,0,5.3-0.1,9.2-0.3c6.1-0.3,12.8-0.7,21-2.7
			c6.3-1.5,9.5-2.3,12.9-4.9c2.7-2,4.5-4.4,7.3-9.1c5.1-8.8,6.9-14.6,10.3-22.6c6-14.2,7-11.3,8.9-18.3c2.4-8.8,1.5-15.9-0.3-29.3
			c-1.4-10.7-2.7-12-3.8-12.6C458.8,234.5,445,249.4,443.2,251.4z"/>
		<g>
			<g>
				<g>
					<path class="st1" d="M425.6,309.3c-0.2,0,0.4-3.9,1.6-10.1c1.2-6.2,3.1-14.8,5.9-24.1c2.8-9.3,6.2-17.4,9.2-23.1
						c0.8-1.4,1.6-2.6,2.4-3.6c0.8-1,1.7-1.7,2.5-2.2c1.5-1,2.6-1.1,2.6-1c0.1,0.1-0.9,0.4-2.2,1.5c-1.3,1.1-2.9,3.1-4.3,5.9
						c-2.7,5.7-5.9,13.8-8.6,23c-2.8,9.2-4.8,17.7-6.3,23.9C426.8,305.6,425.8,309.4,425.6,309.3z"/>
				</g>
			</g>
		</g>
		<g>
			<g>
				<g>
					<path class="st1" d="M427.1,308.1c0.1,0.4-7.5,2.4-17.1,2.3c-9.6,0-17.2-2-17.1-2.4c0.1-0.5,7.7,0.8,17.1,0.7
						C419.4,308.8,427,307.6,427.1,308.1z"/>
				</g>
			</g>
		</g>
		<g>
			<g>
				<g>
					<path class="st1" d="M400.8,338.2c-0.1,0.1-0.5-0.1-1.2-0.6c-0.6-0.6-1.3-1.6-2-2.9c-1.3-2.6-3-6.3-4.3-10.6
						c-1.3-4.3-1.8-8.4-1.8-11.3c0-1.5,0.1-2.7,0.2-3.5c0-0.5,0.3-0.8,0.5-0.9c0.2-0.1,0.4,0.1,0.4,0.1c0,0.1-0.1,0-0.2,0.1
						c-0.1,0.2-0.2,0.4-0.1,0.7c0.1,0.8,0.1,2,0.3,3.4c0.3,2.8,1,6.7,2.2,10.9c1.2,4.2,2.7,7.9,3.7,10.6c0.5,1.3,1,2.3,1.4,3
						C400.6,337.8,400.9,338.1,400.8,338.2z"/>
				</g>
			</g>
		</g>
		<g>
			<g>
				<g>
					<path class="st1" d="M465.2,289.7c0.1,0.1-0.4,1.2-1.5,3.3c-1,2-2.6,5-4.4,8.6c-1.8,3.7-3.9,8-5.8,13.1c-1,2.5-2,5.2-3.4,7.9
						c-1.4,2.7-3.3,5.3-5.9,7.3c-2.6,2-5.5,3.3-8.4,4.2c-2.9,0.9-5.7,1.5-8.4,1.9c-5.4,0.9-10.2,1.4-14.3,1.7
						c-4.1,0.3-7.4,0.3-9.7,0.3c-2.3-0.1-3.6-0.2-3.6-0.3c0-0.1,1.3-0.2,3.6-0.4c2.3-0.2,5.6-0.4,9.6-0.8c4.1-0.4,8.9-1,14.2-2
						c2.7-0.5,5.4-1.1,8.2-1.9c2.7-0.9,5.5-2.1,7.9-4c2.4-1.8,4.1-4.3,5.5-6.8c1.4-2.5,2.4-5.2,3.4-7.7c2-5.1,4.2-9.5,6.1-13.1
						c2-3.6,3.7-6.5,4.9-8.4C464.4,290.7,465.1,289.6,465.2,289.7z"/>
				</g>
			</g>
		</g>
		<g>
			<g>
				<g>
					<path class="st1" d="M385.6,313.3c-0.1,0.2-1.7,0-4.3-0.5c-1.3-0.3-2.9-0.6-4.6-1c-0.2-0.1-0.4-0.1-0.7-0.2
						c-0.2-0.1-0.5-0.1-0.8-0.3c-0.4-0.2-0.7-0.5-0.8-0.9c-0.2-0.4-0.2-0.8-0.1-1.2c0.1-0.7,0.5-1.2,1-1.7c0.5-0.4,1-0.7,1.5-0.9
						c1.1-0.4,2.2-0.5,3.3-0.4c1,0.1,2,0.2,2.9,0.4c1.7,0.4,3.3,0.8,4.6,1.3c2.6,1,3.9,2.1,3.8,2.3c-0.1,0.2-1.6-0.5-4.1-1.2
						c-1.3-0.3-2.8-0.7-4.5-1c-1.7-0.3-3.6-0.6-5.2,0c-0.4,0.1-0.8,0.4-1.1,0.6c-0.2,0.2-0.4,0.5-0.5,0.8c0,0.2,0,0.3,0.1,0.3
						c0,0,0.3,0.1,0.5,0.2c0.2,0.1,0.4,0.1,0.6,0.2c1.7,0.5,3.2,0.9,4.5,1.3C384.1,312.4,385.6,313,385.6,313.3z"/>
				</g>
			</g>
		</g>
	</g>
	<g id="book">
		<path class="st0" d="M298.6,291.4c13.6,15.5,29.5,31.6,48,47.6c6.4,5.5,12.7,10.6,18.9,15.5c6.1-2,13.2-4.9,20.8-9.2
			c6.1-3.4,11.3-7,15.5-10.3c-1.7-2.2-4.4-5.7-7.8-9.7c-6.1-7.4-8.7-9.8-17.6-19.7c-10-11-16.7-19-18.3-20.9
			c-4.4-5.3-8-9.7-10.4-12.7c-1.6-0.1-4.7-0.1-8.1,1.6c-2.2,1.1-3.8,2.5-4.8,3.5c-3.9-2-7.1-2.3-9.3-2.2c-5.2,0.4-7.6,3.4-14.4,6
			c-4.1,1.5-7.7,2.1-10.1,2.4c1.4,1.8,2.8,3.7,4.2,5.5C303,289.6,300.8,290.5,298.6,291.4z"/>
		<g>
			<g>
				<g>
					<path class="st1" d="M366.7,355.4c-0.1,0.1-1.2-0.6-3.1-2c-1-0.7-2.1-1.5-3.5-2.5c-1.3-1-2.9-2.1-4.5-3.5
						c-3.3-2.6-7.2-5.8-11.4-9.5c-4.2-3.7-8.7-7.8-13.4-12.3c-9.3-8.9-17.5-17.3-23.3-23.3c-2.9-3-5.3-5.5-6.9-7.3
						c-1.6-1.7-2.4-2.7-2.4-2.8c0.1-0.1,1.1,0.8,2.8,2.4c1.7,1.6,4.2,4,7.2,6.9c6,5.9,14.3,14.1,23.6,23c4.7,4.4,9.1,8.6,13.3,12.3
						c4.1,3.7,7.9,7,11.1,9.7c1.6,1.4,3.1,2.6,4.4,3.7c1.3,1.1,2.4,2,3.3,2.7C365.8,354.4,366.8,355.3,366.7,355.4z"/>
				</g>
			</g>
		</g>
		<g>
			<g>
				<g>
					<path class="st1" d="M304.6,287.5c0.4,0.3-0.4,1.9-2.3,3.1c-1.8,1.2-3.6,1.2-3.7,0.8c-0.1-0.4,1.3-1.2,2.9-2.2
						C303,288.2,304.2,287.2,304.6,287.5z"/>
				</g>
			</g>
		</g>
		<g>
			<g>
				<g>
					<path class="st1" d="M367.2,350.3c-0.1,0.1-1.1-0.7-2.9-2.2c-1.8-1.5-4.4-3.7-7.6-6.5c-6.3-5.6-14.9-13.6-24-22.7
						c-9.1-9.2-17-17.8-22.5-24.1c-2.8-3.2-5-5.8-6.5-7.6c-1.5-1.8-2.3-2.9-2.2-3c0.1-0.1,1,0.8,2.7,2.5c1.6,1.7,4,4.2,6.8,7.3
						c5.8,6.2,13.8,14.6,22.8,23.8c9.1,9.1,17.5,17.2,23.6,23c3.1,2.9,5.5,5.3,7.2,6.9C366.3,349.2,367.3,350.2,367.2,350.3z"/>
				</g>
			</g>
		</g>
		<g>
			<g>
				<g>
					<path class="st1" d="M339.6,281.4c-0.1,0.1-0.6-0.3-1.4-0.9c-0.8-0.7-2-1.6-3.6-2.7c-1.6-1-3.5-2.1-5.9-2.4
						c-2.3-0.3-5,0.5-7.6,1.5c-2.7,1-5.1,2.3-7.5,3.3c-2.3,1.1-4.5,1.9-6.4,2.4c-1.9,0.5-3.5,0.7-4.6,0.7c-1.1,0-1.7-0.1-1.7-0.2
						c0-0.1,0.6-0.2,1.6-0.4c1-0.2,2.5-0.5,4.3-1.1c1.8-0.6,3.8-1.6,6.1-2.7c2.3-1.1,4.7-2.4,7.5-3.5c1.4-0.5,2.8-1,4.2-1.3
						c1.4-0.3,2.9-0.4,4.2-0.2c2.7,0.4,4.8,1.8,6.3,2.9c1.5,1.2,2.6,2.3,3.4,3.1C339.4,280.8,339.7,281.3,339.6,281.4z"/>
				</g>
			</g>
		</g>
		<g>
			<g>
				<path class="st2" d="M338.7,274.5"/>
			</g>
		</g>
		<g>
			<g>
				<g>
					<path class="st1" d="M347.6,272c0.1,0.2-0.5,0.7-1.7,1.2c-1.2,0.5-2.9,1-4.8,1.1c-1,0.1-1.9,0-2.7,0c-0.7,0-1.3,0-1.7,0.2
						c-0.9,0.4-1,1.1-1.2,1.2c-0.1,0-0.3-0.2-0.3-0.6c0-0.4,0.3-1,0.8-1.5c0.6-0.5,1.5-0.7,2.4-0.8c0.9,0,1.7,0,2.6-0.1
						C344.6,272.4,347.5,271.5,347.6,272z"/>
				</g>
			</g>
		</g>
		<g>
			<g>
				<g>
					<path class="st1" d="M401.3,333.2c-0.1,0.1-0.9-0.7-2.4-2.1c-1.4-1.4-3.5-3.6-6-6.2c-5-5.3-11.8-12.8-19.2-21.1
						c-7.4-8.4-13.9-16-18.6-21.7c-2.3-2.8-4.2-5.1-5.4-6.7c-1.3-1.6-1.9-2.5-1.8-2.6c0.1-0.1,0.9,0.7,2.3,2.2
						c1.4,1.5,3.4,3.7,5.8,6.4c4.9,5.4,11.6,13,19,21.3c7.4,8.3,14.1,15.9,18.8,21.4c2.4,2.8,4.3,5,5.6,6.6
						C400.7,332.2,401.4,333.2,401.3,333.2z"/>
				</g>
			</g>
		</g>
		<g>
			<g>
				<g>
					<path class="st1" d="M390.3,339.9c-0.1,0.3-1.6-0.1-3.9,0.6c-1.2,0.3-2.5,0.8-3.9,1.6c-1.4,0.8-2.9,1.7-4.5,2.8
						c-1.6,1.1-3.1,2.1-4.7,2.8c-1.5,0.8-3,1.2-4.4,1.4c-1.3,0.2-2.4,0.1-3.1-0.1c-0.7-0.2-1-0.5-1-0.6c0.1-0.2,1.6,0.2,3.9-0.4
						c1.2-0.3,2.5-0.8,3.9-1.6c1.4-0.8,2.9-1.8,4.5-2.8c1.6-1.1,3.2-2.1,4.7-2.8c1.5-0.7,3-1.2,4.3-1.4c1.3-0.2,2.4-0.1,3.1,0.1
						C389.9,339.6,390.3,339.8,390.3,339.9z"/>
				</g>
			</g>
		</g>
		<g>
			<g>
				<g>
					<path class="st1" d="M401.8,331.1c0.2,0,0.2,0.9-0.6,2c-0.4,0.6-1,1-1.7,1.5c-0.7,0.4-1.5,0.8-2.4,1.2c-0.8,0.4-1.6,0.7-2.3,1
						c-0.6,0.3-1.2,0.7-1.6,1c-0.8,0.7-1.2,1.3-1.4,1.2c-0.2,0-0.2-0.9,0.6-2c0.4-0.6,1-1,1.7-1.5c0.7-0.4,1.5-0.8,2.4-1.2
						c0.8-0.4,1.6-0.7,2.3-1c0.6-0.3,1.2-0.7,1.6-1C401.2,331.6,401.5,331,401.8,331.1z"/>
				</g>
			</g>
		</g>
		<g>
			<g>
				<g>
					<path class="st1" d="M393.6,341.5c0.1,0.2-1.2,1.1-3.5,2.4c-1.1,0.7-2.5,1.4-4,2.2c-1.5,0.8-3.2,1.6-5.1,2.4
						c-7.3,3.3-13.4,5.3-13.5,4.9c-0.2-0.4,5.7-3.1,12.9-6.4c1.8-0.8,3.5-1.6,5.1-2.3c1.6-0.7,2.9-1.4,4.1-1.9
						C391.9,341.9,393.5,341.3,393.6,341.5z"/>
				</g>
			</g>
		</g>
		<g>
			<g>
				<g>
					<path class="st1" d="M392.4,341.4c-0.4,0.1-0.9-0.4-1-1.1c-0.1-0.7,0.2-1.2,0.7-1.3c0.4-0.1,0.9,0.4,1,1.1
						C393.1,340.8,392.8,341.3,392.4,341.4z"/>
				</g>
			</g>
		</g>
		<g>
			<g>
				<g>
					<path class="st1" d="M401.5,333.2c0.4,0.3-1,2.7-3.4,5c-2.4,2.3-4.9,3.5-5.2,3.2c-0.3-0.4,1.7-2.1,4.1-4.4
						C399.3,334.8,401.2,332.9,401.5,333.2z"/>
				</g>
			</g>
		</g>
		<g>
			<g>
				<g>
					<path class="st1" d="M381.6,329.1c-0.3,0.3-9.4-10-20.2-22.9c-10.8-13-19.3-23.7-18.9-24c0.3-0.3,9.4,10,20.2,22.9
						C373.5,318.1,381.9,328.9,381.6,329.1z"/>
				</g>
			</g>
		</g>
		<g>
			<g>
				<g>
					<path class="st1" d="M331,279.9c0.1,0.4-2.9,1.6-6.6,3.2c-3.6,1.6-6.5,3.2-6.8,2.8c-0.3-0.4,2.3-2.6,6.1-4.3
						C327.5,279.9,330.9,279.4,331,279.9z"/>
				</g>
			</g>
		</g>
		<g>
			<g>
				<g>
					<path class="st1" d="M343.3,287.3c0,0.2-1.4,0.4-3.5,0.9c-1.1,0.3-2.3,0.6-3.4,1.4c-1.2,0.7-2.4,1.8-3.6,2.9
						c-1.2,1.2-2.5,2.3-3.7,3.2c-1.2,0.9-2.4,1.6-3.4,2.2c-2,1.1-3.4,1.5-3.5,1.3c-0.2-0.4,4.7-3,9.5-7.9c1.3-1.2,2.6-2.3,4-3
						c1.4-0.8,2.8-1.1,4-1.2C341.9,286.8,343.3,287.1,343.3,287.3z"/>
				</g>
			</g>
		</g>
		<g>
			<g>
				<g>
					<path class="st1" d="M340.2,294.6c0.3,0.3-2,3-5.2,6c-1.6,1.5-3.2,2.8-4.5,3.5c-1.4,0.7-2.3,0.7-2.4,0.5
						c-0.1-0.2,0.7-0.6,1.8-1.5c1.1-0.8,2.4-2.2,4-3.7C337.1,296.5,339.9,294.3,340.2,294.6z"/>
				</g>
			</g>
		</g>
		<g>
			<g>
				<g>
					<path class="st1" d="M351.7,294c0,0.2-0.9,0.5-2.4,1c-0.7,0.2-1.6,0.5-2.4,1c-0.8,0.4-1.6,1.1-2.4,1.9c-3.1,3.5-6,6.2-6.3,5.9
						c-0.3-0.3,1.9-3.4,5.2-7c0.9-0.9,1.9-1.7,2.9-2.1c1-0.4,2-0.6,2.8-0.7C350.7,293.7,351.6,293.8,351.7,294z"/>
				</g>
			</g>
		</g>
		<g>
			<g>
				<g>
					<path class="st1" d="M353.7,299.2c0,0.2-1.2,0.5-2.8,1.6c-1.7,1-3.7,2.8-5.6,5.1c-2,2.3-3.8,4.5-5.5,5.8
						c-0.8,0.7-1.6,1.1-2.2,1.3c-0.6,0.2-1,0.1-1,0c0-0.1,0.3-0.2,0.7-0.5c0.4-0.3,1-0.8,1.6-1.6c1.4-1.4,3-3.6,5-6
						c2-2.4,4.4-4.2,6.4-5C352.3,298.9,353.7,299,353.7,299.2z"/>
				</g>
			</g>
		</g>
		<g>
			<g>
				<g>
					<path class="st1" d="M362.9,308.3c0,0.3-1.2,0.3-2.7,1.4c-0.8,0.5-1.6,1.3-2.4,2.2c-0.9,0.9-1.8,2-2.9,3.1
						c-4.3,4.4-8.6,6.9-8.8,6.6c-0.3-0.4,3.5-3.5,7.6-7.7c1-1.1,2-2.1,3-3c1-0.9,2-1.7,2.9-2.2c1-0.5,1.8-0.6,2.4-0.6
						C362.6,308,362.9,308.2,362.9,308.3z"/>
				</g>
			</g>
		</g>
	</g>
	<g id="torso">
		<path class="st0" d="M452.8,242.6c-2,0.9-5.3,2.7-7.9,6.2c-5.9,8.1-2.6,18-2.2,19.1c1.4,1.9,2.8,3.8,4.2,5.6
			c-0.1,8.5-0.2,15.1-0.2,19c-0.1,9-0.2,32.3-2.8,51.5c-0.3,2.5-1,6.6-3,11.4c-2,4.9-4.3,7.8-8.1,12.8c-2.8,3.8-6.9,9.3-11.8,16.5
			c1.9,0.8,4.9,2,8.6,3.4c10.4,3.9,30.3,11.3,56.4,14c7.5,0.8,17.9,1.4,30.4,0.7c1-5.1,2.4-12.5,3.8-21.3c3-18.4,5.9-36.8,6.2-60.8
			c0.4-33-4.6-38-4.2-57.1c0.1-2.7,0.3-10.1-3.2-18.4c-1.7-4-3.9-7-5.4-8.9c0.2-0.3,2.5-3.6,1.2-7.6c-1.2-3.7-4.4-5.1-4.8-5.3
			c0.3-1.2,1.7-6.8-1.4-10.3c-2.8-3.2-7.7-2.8-12.5-2.4c-6.3,0.5-10.9,2.5-12.7,3.4C468.8,221.3,454.9,239.8,452.8,242.6z"/>
		<g>
			<g>
				<g>
					<path class="st1" d="M447.4,275.3c-0.4,0.2-1.5-1.5-2.7-3.4c-1.3-2-2.3-3.6-2-3.9c0.3-0.3,2,0.9,3.4,3
						C447.4,273.1,447.8,275.2,447.4,275.3z"/>
				</g>
			</g>
		</g>
		<g>
			<g>
				<g>
					<path class="st1" d="M440.9,355.5c-0.2-0.1,1.6-4.3,2.4-11.7c0.4-3.7,0.6-8.1,0.9-13c0.3-4.9,0.6-10.3,0.8-16
						c0.5-11.4,0.9-21.6,1.1-29.1c0.1-3.7,0.2-6.7,0.3-8.8c0.1-2.1,0.2-3.2,0.3-3.2c0.1,0,0.2,1.2,0.3,3.2c0.1,2.1,0.2,5.1,0.2,8.8
						c0,7.5-0.1,17.8-0.7,29.1c-0.3,5.7-0.6,11.1-1,16c-0.4,4.9-0.7,9.4-1.3,13.1c-0.6,3.7-1.4,6.7-2.1,8.6
						C441.6,354.6,441,355.6,440.9,355.5z"/>
				</g>
			</g>
		</g>
		<g>
			<g>
				<g>
					<path class="st1" d="M421.2,384.2c-0.2-0.1,0.4-2.2,2.3-5c1.9-2.9,5-6.3,8-10.4c6.1-8.2,9.8-15.6,10.2-15.4
						c0.4,0.2-2.7,8-8.9,16.4c-3.1,4.2-6.4,7.5-8.4,10.1C422.3,382.5,421.4,384.3,421.2,384.2z"/>
				</g>
			</g>
		</g>
		<g>
			<g>
				<g>
					<path class="st1" d="M499.7,219c0.1,0.2-2.3,1.3-6,3.5c-0.9,0.6-1.9,1.2-2.9,1.9c-1,0.7-2.1,1.5-3.2,2.3
						c-2.2,1.7-4.5,3.8-6.7,6.1c-2.2,2.4-4.1,4.8-5.7,7.1c-0.8,1.2-1.5,2.3-2.1,3.4c-0.7,1.1-1.2,2.1-1.7,3c-2,3.8-2.9,6.3-3.1,6.2
						c-0.2-0.1,0.4-2.7,2.1-6.7c0.4-1,0.9-2.1,1.6-3.2c0.6-1.1,1.3-2.3,2.1-3.5c1.6-2.4,3.5-4.9,5.8-7.4c2.3-2.4,4.7-4.5,7-6.2
						c1.2-0.8,2.3-1.6,3.4-2.3c1.1-0.7,2.1-1.3,3.1-1.8C497,219.5,499.7,218.8,499.7,219z"/>
				</g>
			</g>
		</g>
		<g>
			<g>
				<g>
					<path class="st1" d="M509.3,228.2c-0.1,0-0.1-0.6-0.1-1.6c0-1,0.1-2.5,0.1-4.2c-0.1-1.7-0.3-3.8-1.4-5.7
						c-1.1-1.9-3.1-3.4-5.6-4.2c-2.5-0.8-5-0.8-7.3-0.6c-2.3,0.2-4.3,0.7-6,1.3c-3.4,1.1-5.3,2.2-5.4,2c-0.1-0.2,1.6-1.7,5-3.1
						c1.7-0.7,3.8-1.3,6.2-1.7c2.4-0.3,5.2-0.3,8,0.6c2.8,0.8,5.2,2.7,6.4,5c1.2,2.3,1.3,4.6,1.3,6.5c-0.1,1.8-0.4,3.3-0.6,4.3
						C509.6,227.6,509.4,228.2,509.3,228.2z"/>
				</g>
			</g>
		</g>
		<g>
			<g>
				<g>
					<path class="st1" d="M513.7,236.5c-0.2-0.1-0.1-1,0.1-2.3c0.2-1.4,0.6-3.2,0.3-5.1c-0.3-1.9-1.3-3.4-2.2-4.2
						c-1-0.8-1.8-1-1.8-1.2c0-0.2,1-0.5,2.4,0.3c1.4,0.7,2.9,2.5,3.2,4.9c0.3,2.3-0.3,4.3-0.8,5.7
						C514.4,235.8,513.9,236.5,513.7,236.5z"/>
				</g>
			</g>
		</g>
		<g>
			<g>
				<g>
					<path class="st1" d="M517.1,398c-0.1,0,0-0.6,0.2-1.7c0.2-1.1,0.5-2.7,0.8-4.8c0.4-2.1,0.8-4.6,1.3-7.5c0.2-1.5,0.5-3,0.8-4.7
						c0.2-1.7,0.5-3.4,0.8-5.3c0.1-0.9,0.3-1.9,0.4-2.8c0.1-1,0.2-2,0.4-3c0.3-2,0.5-4.1,0.8-6.3c0.4-4.4,1-9,1.3-14
						c0.8-9.9,1.3-20.7,1.3-32.1c0-22.8-2.1-43.4-4.3-58.2c-0.5-3.7-1-7.1-1.6-9.9c-0.6-2.9-1.3-5.3-2.1-7.2c-1.6-3.9-3.2-5.6-3-5.7
						c0,0,0.5,0.4,1.1,1.3c0.7,0.9,1.6,2.3,2.5,4.2c0.9,1.9,1.7,4.4,2.4,7.3c0.7,2.9,1.3,6.3,1.9,10c2.5,14.8,4.8,35.5,4.8,58.4
						c0,11.5-0.6,22.4-1.4,32.3c-0.4,4.9-1,9.6-1.5,14c-0.3,2.2-0.6,4.3-0.9,6.3c-0.1,1-0.3,2-0.4,3c-0.2,1-0.3,1.9-0.5,2.8
						c-0.3,1.8-0.6,3.6-0.9,5.3c-0.3,1.7-0.6,3.2-0.9,4.7c-0.6,2.9-1.1,5.4-1.6,7.5c-0.5,2-0.9,3.6-1.1,4.7
						C517.3,397.5,517.1,398,517.1,398z"/>
				</g>
			</g>
		</g>
		<g>
			<g>
				<g>
					<path class="st1" d="M516.4,402.9c0,0.1-1.3,0.5-3.8,0.9c-2.5,0.4-6.1,0.6-10.5,0.5c-8.9-0.3-21.2-1.5-34.5-4.2
						c-13.3-2.7-25.1-6.4-33.4-9.5c-4.2-1.6-7.5-2.9-9.7-4c-2.3-1-3.5-1.7-3.4-1.8c0-0.1,1.4,0.3,3.7,1.2c2.3,0.8,5.7,2,9.9,3.5
						c8.4,2.8,20.1,6.3,33.3,9c13.2,2.7,25.4,4,34.2,4.6c4.4,0.3,8,0.2,10.4,0C515,403,516.4,402.8,516.4,402.9z"/>
				</g>
			</g>
		</g>
	</g>
	<g id="hand_left">
		<path class="st0" d="M488.8,239.7c-5.1,2.3-7.8,6.8-7.8,6.8c-2.1,3.5-2.2,6.9-2.2,8.5c-0.3,8-2.6,15.8-2.9,23.8
			c-0.3,8.1-2.8,21.8-12.9,46.4c-1.9,1-4.4,2.2-7.5,3.3c-3.3,1.2-10.2,3.7-19,3.9c-10.2,0.3-18.4-2.6-23.4-4.8
			c-2.1-3-5.6-7.3-11.2-10.4c-1-0.6-7.1-3.9-8.4-2.4c-0.6,0.6-0.9,2.7,5.5,11.1c-6.5,5.4-12.4,8.1-16.7,9.6
			c-6.3,2.1-14.6,3.5-21.6,4.6c-7.7,1.2-11.3,1.5-11.5,2.7c-0.1,1,2.2,2.5,12.7,5.3c1.1,1.6,2.7,3.9,4.2,6.8
			c2.5,4.7,2.8,6.9,5.2,8.5c1.9,1.3,4,1.3,6.6,1.2c5-0.1,8.8-1.6,11-2.6c9.4-4.2,17.8-11.4,20.9-14.2c0.1,3.1,0.1,6.2,0.2,9.3
			c8,4.9,15,8,20.1,10c10,3.8,17.3,6.6,27.1,5.9c9-0.6,15.4-3.8,17.3-4.8c3.4-1.8,9.1-5.3,21.1-22.7c8.3-12.1,14.2-20.6,19.3-34.1
			c2.5-6.5,5.8-15.4,6.8-27.6c1.2-13.3,2.3-26.2-6.1-35.7C509,240.8,497.1,236,488.8,239.7z"/>
		<g>
			<g>
				<g>
					<path class="st1" d="M461.9,327.4c-0.2-0.1,1.6-4.1,4-10.8c0.3-0.8,0.6-1.7,0.9-2.6c0.3-0.9,0.6-1.9,0.9-2.9
						c0.7-2,1.2-4.1,1.9-6.4c1.2-4.5,2.4-9.6,3.5-14.9c2.1-10.7,3.3-20.4,4.3-27.5c0.9-7.1,1.5-11.4,1.8-11.4c0.1,0,0.1,1.1,0,3.1
						c-0.1,2-0.3,4.9-0.6,8.4c-0.7,7.1-1.7,16.9-3.8,27.7c-1.1,5.4-2.3,10.4-3.6,15c-0.7,2.3-1.3,4.4-2.1,6.4c-0.4,1-0.7,2-1,2.9
						c-0.4,0.9-0.7,1.8-1,2.6c-0.6,1.7-1.3,3.1-1.9,4.4c-0.6,1.3-1.1,2.4-1.6,3.3C462.6,326.5,462,327.4,461.9,327.4z"/>
				</g>
			</g>
		</g>
		<g>
			<g>
				<g>
					<path class="st1" d="M463.8,323.8c0.1,0.1-2.1,2.2-6.4,4.4c-0.5,0.3-1.1,0.6-1.7,0.8c-0.6,0.3-1.2,0.5-1.9,0.8
						c-1.3,0.6-2.8,1-4.3,1.5c-3.1,0.9-6.5,1.5-10.2,1.8c-3.7,0.2-7.2,0-10.4-0.5c-1.6-0.3-3.1-0.6-4.4-1c-0.7-0.2-1.3-0.3-2-0.6
						c-0.6-0.2-1.2-0.4-1.8-0.6c-4.5-1.7-6.9-3.5-6.9-3.6c0.1-0.3,2.7,1.1,7.2,2.5c0.6,0.2,1.2,0.3,1.8,0.5c0.6,0.2,1.3,0.3,1.9,0.5
						c1.3,0.3,2.8,0.5,4.3,0.8c3.1,0.4,6.5,0.6,10,0.4c3.6-0.2,6.9-0.8,9.9-1.6c1.5-0.4,2.9-0.8,4.2-1.3c0.6-0.2,1.3-0.4,1.9-0.7
						c0.6-0.3,1.2-0.5,1.7-0.7C461.2,325.3,463.6,323.6,463.8,323.8z"/>
				</g>
			</g>
		</g>
		<g>
			<g>
				<g>
					<path class="st1" d="M410.5,356.7c-0.2,0.1-1-1.5-1.3-4.2c-0.3-2.7-0.3-6.5,0.2-10.6c0.5-4.1,1.5-7.8,2.4-10.3
						c0.9-2.6,1.7-4,1.9-4c0.5,0.2-1.7,6.4-2.7,14.5c-0.5,4-0.6,7.7-0.6,10.3C410.4,355,410.7,356.6,410.5,356.7z"/>
				</g>
			</g>
		</g>
		<g>
			<g>
				<g>
					<path class="st1" d="M521.8,285c0.1,0,0,0.6-0.2,1.7c-0.2,1.1-0.5,2.7-1.1,4.7c-1,4.1-2.6,10-5.2,17
						c-2.6,7.1-6.2,15.3-10.9,24.1c-2.4,4.4-5.1,8.9-8.1,13.4c-3,4.5-6.2,9.1-10.1,13.4c-3.9,4.3-8.2,8.1-13.1,10.7
						c-2.4,1.3-5,2.2-7.6,2.9c-2.6,0.6-5.2,0.9-7.7,0.9c-5.1,0-9.8-0.8-14.1-1.8c-4.3-1.1-8.3-2.3-11.8-3.6
						c-7.1-2.6-12.5-5.5-16.2-7.6c-1.8-1.1-3.2-1.9-4.1-2.6c-0.9-0.6-1.4-1-1.4-1c0,0,0.6,0.2,1.5,0.7c1,0.5,2.4,1.3,4.3,2.3
						c3.7,1.9,9.2,4.6,16.3,7c3.5,1.2,7.5,2.4,11.7,3.4c4.3,1,8.9,1.7,13.8,1.7c2.4-0.1,4.9-0.3,7.4-0.9c2.5-0.6,4.9-1.5,7.2-2.8
						c4.7-2.5,8.9-6.1,12.7-10.4c3.8-4.2,7-8.8,10-13.2c3-4.5,5.7-8.9,8.1-13.2c4.8-8.6,8.5-16.8,11.2-23.8c2.7-7,4.5-12.8,5.7-16.8
						C521.1,287.2,521.7,284.9,521.8,285z"/>
				</g>
			</g>
		</g>
		<g>
			<g>
				<g>
					<path class="st1" d="M400.1,326.5c-0.2,0.1-1.7-1.5-3.7-4.4c-1-1.5-2.1-3.3-3.2-5.3c-0.1-0.3-0.3-0.5-0.4-0.8
						c-0.1-0.3-0.3-0.8-0.1-1.3c0.1-0.5,0.5-1,0.9-1.2c0.4-0.2,0.8-0.3,1.2-0.4c0.8-0.1,1.5,0.1,2.2,0.2c0.7,0.2,1.4,0.5,2,0.8
						c2.5,1.4,4.3,3.4,5.9,5c1.6,1.7,3,3.1,4.3,4.3c2.5,2.4,4.1,3.9,3.9,4.1c-0.1,0.2-2-1-4.7-3.3c-1.4-1.1-2.9-2.5-4.6-4.2
						c-1.7-1.6-3.4-3.5-5.6-4.6c-0.5-0.3-1.1-0.5-1.7-0.7c-0.6-0.1-1.2-0.3-1.6-0.2c-0.2,0-0.4,0.1-0.6,0.2
						c-0.1,0.1-0.2,0.1-0.2,0.2c-0.1,0.1,0.1,0.6,0.4,1.1c1,2.1,2,3.9,2.8,5.4C399.1,324.5,400.3,326.4,400.1,326.5z"/>
				</g>
			</g>
		</g>
		<g>
			<g>
				<g>
					<path class="st1" d="M377.4,348.7c0,0.1-1.2,0.2-3.3,0.3c-2.1,0-5.2,0-9-0.3c-1.9-0.1-4-0.4-6.2-0.7c-1.1-0.1-2.2-0.3-3.4-0.5
						c-0.6-0.1-1.2-0.2-1.8-0.3c-0.6-0.1-1.3-0.2-1.9-0.4c-0.6-0.2-1.3-0.5-1.9-0.9c-0.6-0.4-1.2-1-1.5-2c-0.1-0.3-0.1-0.6-0.1-0.8
						c0.1-0.3-0.1-0.6,0.2-0.7c0.2-0.2,0.5-0.3,0.7-0.4c0.2-0.1,0.3-0.2,0.5-0.2c0.6-0.3,1.3-0.5,2-0.8c2.7-0.9,5.6-1.2,8.4-1.5
						c2.9-0.2,5.6-0.4,8.3-0.9c2.6-0.4,5.2-1,7.6-1.7c4.8-1.3,8.9-3.1,12.2-4.7c3.4-1.7,5.9-3.3,7.7-4.4c1.8-1.1,2.7-1.8,2.8-1.7
						c0.1,0.1-0.8,0.9-2.4,2.2c-1.7,1.3-4.2,3.1-7.5,4.9c-3.3,1.8-7.5,3.7-12.3,5.1c-2.4,0.7-5,1.3-7.7,1.8
						c-2.7,0.5-5.6,0.7-8.4,0.9c-2.9,0.2-5.6,0.6-8.1,1.4c-0.6,0.2-1.2,0.4-1.8,0.7c-0.1,0.1-0.3,0.2-0.4,0.2l-0.1,0.1
						c-0.1,0,0,0.2,0,0.2c0.1,0.3,0.4,0.7,0.8,1c0.4,0.3,1,0.6,1.5,0.7c0.6,0.2,1.1,0.3,1.7,0.4c0.6,0.1,1.2,0.2,1.8,0.3
						c1.2,0.2,2.3,0.4,3.4,0.6c2.2,0.4,4.2,0.6,6.1,0.8C372.7,348.3,377.4,348.4,377.4,348.7z"/>
				</g>
			</g>
		</g>
		<g>
			<g>
				<g>
					<path class="st1" d="M378.4,355.7c0,0.2-1.1,0.4-2.8,0.3c-1.7-0.1-4.1-0.6-6.5-1.7c-2.4-1.1-4.4-2.6-5.6-3.8
						c-1.2-1.2-1.8-2.2-1.6-2.3c0.4-0.3,3.3,2.6,7.8,4.7C374.3,354.9,378.4,355.2,378.4,355.7z"/>
				</g>
			</g>
		</g>
		<g>
			<g>
				<g>
					<path class="st1" d="M377.8,360.8c0,0.2-1.1,0.2-2.8-0.1c-1.7-0.3-4-1-6.2-2.4c-2.3-1.4-3.8-3.4-4.6-5
						c-0.7-1.6-0.8-2.7-0.6-2.8c0.2-0.1,0.6,0.9,1.6,2.2c0.9,1.3,2.4,2.9,4.4,4.2c2,1.3,4.1,2.1,5.6,2.7
						C376.9,360.2,377.9,360.6,377.8,360.8z"/>
				</g>
			</g>
		</g>
		<g>
			<g>
				<g>
					<path class="st1" d="M379.4,364.3c0,0.2-0.8,0.5-2.1,0.6c-1.3,0-3.2-0.3-5-1.3c-1.8-1-3.1-2.4-3.8-3.6c-0.7-1.2-0.8-2-0.6-2.1
						c0.4-0.2,2,2.5,5.2,4.2C376.2,364,379.3,363.9,379.4,364.3z"/>
				</g>
			</g>
		</g>
		<g>
			<g>
				<g>
					<path class="st1" d="M408.5,348.1c0.3,0.3-5.4,6.3-14.1,11.6c-2.2,1.3-4.3,2.5-6.3,3.4c-2,1-3.9,1.6-5.6,1.9
						c-1.7,0.3-3.1,0.2-4-0.1c-0.9-0.2-1.4-0.6-1.3-0.6c0.1-0.3,2.1,0.4,5.1-0.4c3.1-0.7,7-3,11.3-5.6
						C402.1,353.2,408.1,347.8,408.5,348.1z"/>
				</g>
			</g>
		</g>
	</g>
	<g id="head">
		<path class="st0" d="M404.9,186.7c-0.8,4,0.3,9.2,1,12.7c0.9,4.2,2.1,7.6,3,9.9c0.8,7.6,1.5,15.2,2.3,22.9c0.5,0.6,1.5,1.4,3.1,2
			c2.2,0.8,4.2,0.5,4.9,0.3c1.8,2.9,3.7,5.2,5.1,6.9c3.7,4.2,6.2,7,10.4,8.2c1.1,0.3,4,1,7.2,0.1c4.5-1.3,4.3-4.4,8.5-5.9
			c3.9-1.5,7.7-0.3,11.6,0.8c3.5,1,6.1,2.5,7.9,3.6c1.4-3,3.2-6.3,5.5-9.8c3.8-5.8,7.8-10.4,11.4-13.9c-1.7-0.3-4.1-0.9-6.4-2.6
			c-6.2-4.5-5.1-11.8-8.4-22.6c-1.7-5.5-5.1-17-14.7-24.1c-7.2-5.4-14.9-6.1-17.5-6.3C424.6,167.6,407,175.8,404.9,186.7z"/>
		<path d="M399.2,197.3c2.2-2.7,5.1-5.8,8.9-8.8c7.2-5.6,14.4-8.4,19.2-9.7c1,3.6,2.2,6.5,3.1,8.5c2.4,5.2,4.1,8.9,7.9,11.1
			c1.3,0.7,4.3,2.5,6.7,1.4c2.3-1,1.8-3.5,4.8-5.9c0.7-0.6,3.3-2.7,6.3-2.2c4,0.6,5.8,5.4,6.1,6.3c1.2,3.4,0.9,8.2-1.7,10.1
			c-1.7,1.2-3.2,0.4-3.8,1.4c-1.2,1.9,2.5,7.4,7.4,10.2c1.6,0.9,7.5,4.3,13.6,1.5c5.7-2.6,7.2-8.6,7.3-9.3c0.5-2.2,0.4-4.1-1.2-10.3
			c-2.5-9.7-3.4-9.4-4.2-13.7c-1.7-8.8,1.9-10.8-0.1-20.2c-0.9-4.2-1.6-7.6-4.5-10c-3.2-2.6-7.3-2.4-15.4-1.8
			c-21,1.6-19.8,1.7-21.4,1.6c-6.7-0.2-6.5-1.1-24.3-3.1c-7.3-0.8-9.2-0.8-11.7-0.4c-7.6,1.4-13,6.3-16.2,9.9
			c-0.6-2.5-1.2-3.1-1.8-3.2c-2.1-0.3-5,6.7-6.3,11c-1.3,4.3-2.3,7.7-1.6,12.3c0.4,2.4,1.6,10,8.3,13.4
			C391.5,201,398.3,197.8,399.2,197.3z"/>
		<g>
			<g>
				<path class="st3" d="M409.4,211.4"/>
			</g>
		</g>
		<g>
			<g>
				<g>
					<path class="st1" d="M419.5,234.3c0,0.2-1.8,0.4-4.9,0.4c-0.8,0-1.8-0.1-2.7-0.7c-0.9-0.6-1.5-1.7-1.7-2.8
						c-0.3-1.1-0.3-2.2-0.4-3.2c-0.1-1.1-0.1-2.2-0.2-3.3c-0.5-9.2-0.6-16.6-0.1-16.6s1.2,7.4,1.7,16.5c0.1,1.1,0.1,2.3,0.2,3.3
						c0.1,1.1,0.1,2.1,0.3,3c0.2,0.9,0.5,1.6,1.1,2c0.5,0.4,1.3,0.6,2,0.6C417.7,233.9,419.6,234.1,419.5,234.3z"/>
				</g>
			</g>
		</g>
		<g>
			<g>
				<g>
					<path class="st1" d="M468,247.5c0,0.1-0.9,0-2.3-0.6c-1.4-0.5-3.3-1.6-5.7-2.7c-1.2-0.5-2.5-1-3.9-1.2c-1.4-0.2-3,0.1-4.4,0.9
						c-1.5,0.8-2.8,1.9-4.3,3.2c-1.5,1.2-3.1,2.6-5.1,3.4c-2.1,0.8-4.3,0.9-6.3,0.3c-2-0.5-3.7-1.4-5.2-2.4c-3-2.1-5.1-4.5-6.8-6.6
						c-3.4-4.2-4.9-7.2-4.7-7.3c0.2-0.1,2,2.6,5.6,6.5c1.8,1.9,4,4.2,6.8,6.1c1.4,0.9,3,1.7,4.7,2.1c1.7,0.4,3.6,0.4,5.3-0.3
						c3.5-1.4,6-4.7,9.3-6.4c1.7-0.8,3.6-1.2,5.2-0.9c1.7,0.2,3.1,0.9,4.3,1.5c2.4,1.3,4.1,2.5,5.4,3.2
						C467.3,247,468,247.3,468,247.5z"/>
				</g>
			</g>
		</g>
		<g>
			<g>
				<g>
					<path class="st1" d="M432.5,234.1c0.4,0.1,0.1,2-1.3,3.8c-1.4,1.8-3.1,2.5-3.4,2.1c-0.3-0.4,0.9-1.6,2.1-3.1
						C431.1,235.4,432.1,234,432.5,234.1z"/>
				</g>
			</g>
		</g>
		<g>
			<g>
				<g>
					<path class="st1" d="M424.5,215.3c-0.2,0.4-1.8-0.3-3.4-1.7c-1.5-1.4-2.3-2.9-2-3.2c0.4-0.3,1.6,0.7,3.1,2
						C423.7,213.8,424.8,214.9,424.5,215.3z"/>
				</g>
			</g>
		</g>
		<g>
			<g>
				<g>
					<path class="st1" d="M419.8,200c-0.2,0.2-0.7,0-1.4-0.2c-0.8-0.2-1.8-0.3-2.9,0.1c-1,0.3-1.9,1-2.4,1.6c-0.5,0.6-0.8,1.1-1,1
						c-0.2,0-0.3-0.7,0.1-1.6c0.4-0.9,1.3-2.1,2.9-2.6c1.5-0.5,3-0.1,3.8,0.4C419.6,199.3,419.9,199.9,419.8,200z"/>
				</g>
			</g>
		</g>
		<g>
			<g>
				<g>
					<path class="st1" d="M384.4,160.9c0.2,0.2-1.6,2.7-3.8,7.1c-1.1,2.2-2.3,4.9-2.9,8c-0.3,1.6-0.6,3.2-0.6,5
						c0,1.7,0.3,3.5,0.7,5.3c1,3.5,3,6.5,5.5,8.3c2.5,1.8,5.4,2.5,7.8,2.7c2.4,0.2,4.4,0.1,5.8,0.1c1.4-0.1,2.2-0.1,2.2,0
						c0,0.1-0.7,0.3-2.1,0.6c-1.4,0.2-3.4,0.5-6,0.4c-2.5-0.1-5.7-0.7-8.6-2.7c-1.4-1-2.8-2.3-3.8-3.8c-1.1-1.6-1.9-3.4-2.4-5.3
						c-0.5-1.9-0.8-3.8-0.8-5.7c0-1.9,0.3-3.7,0.7-5.3c0.8-3.3,2.1-6.1,3.4-8.2C382.1,163.1,384.3,160.8,384.4,160.9z"/>
				</g>
			</g>
		</g>
		<g>
			<g>
				<g>
					<path class="st1" d="M386.6,164.8c0,0.2-0.4,0.4-1,0.3c-0.6-0.1-1.4-0.7-1.8-1.6c-0.4-0.9-0.3-1.9,0-2.4
						c0.3-0.6,0.7-0.7,0.9-0.6c0.2,0.1,0.2,0.5,0.2,0.9c0,0.4,0.1,0.9,0.3,1.4c0.2,0.5,0.5,0.9,0.8,1.2
						C386.4,164.3,386.7,164.5,386.6,164.8z"/>
				</g>
			</g>
		</g>
		<g>
			<g>
				<g>
					<path class="st1" d="M482.7,217.2c0-0.1,0.3-0.4,0.9-1.3c0.5-0.8,1.2-2.2,1.5-4.1c0.3-1.9,0.2-4.3-0.6-6.9
						c-0.7-2.6-2.1-5.5-3.3-8.8c-1.2-3.3-2.1-7.2-2.5-11.3c-0.2-2.1-0.2-4.3-0.1-6.5c0.1-2.2,0.3-4.5,0.4-6.8c0.1-2.3,0-4.6-0.6-6.9
						c-0.6-2.2-1.7-4.4-3.4-5.9c-1.8-1.5-4.1-2.3-6.6-2.5c-2.5-0.2-5.1,0.1-7.7,0.5c-10.6,1.9-21,2.2-30.3,1.2
						c-9.4-0.8-17.4-3.7-24.3-3.5c-3.4,0-6.5,0.9-9,2c-2.5,1.2-4.5,2.5-6,3.7c-3.1,2.4-4.6,4-4.7,3.9c0,0,0.3-0.5,1-1.2
						c0.7-0.8,1.8-1.9,3.3-3.1c1.5-1.3,3.5-2.8,6-4c2.5-1.3,5.7-2.2,9.3-2.4c3.6-0.2,7.5,0.5,11.5,1.2c4.1,0.8,8.4,1.5,13,1.9
						c9.2,0.9,19.4,0.5,29.9-1.3c2.7-0.4,5.4-0.7,8.1-0.6c2.7,0.2,5.5,1.1,7.5,2.9c2.1,1.8,3.3,4.3,3.9,6.8c0.6,2.5,0.7,5,0.6,7.3
						c-0.1,2.4-0.4,4.6-0.5,6.8c-0.1,2.2-0.1,4.3,0.1,6.3c0.3,4.1,1.2,7.8,2.3,11.1c1.1,3.3,2.5,6.2,3.1,9c0.7,2.7,0.8,5.3,0.3,7.3
						c-0.4,2-1.2,3.4-1.9,4.2C483.2,216.9,482.7,217.2,482.7,217.2z"/>
				</g>
			</g>
		</g>
		<g>
			<g>
				<g>
					<path class="st1" d="M456.8,209.6c0-0.1,0.5-0.1,1.3-0.4c0.8-0.3,1.9-0.9,2.8-2.2c0.9-1.2,1.4-3,1.3-5c-0.1-1-0.2-2.1-0.5-3.2
						c-0.3-1.1-0.7-2.2-1.2-3.2c-1-2-3.1-3-5.1-3.1c-1.9-0.1-3.7,0.7-4.9,1.7c-1.2,1-1.9,2-2.1,2.8c-0.2,0.8,0,1.3-0.2,1.3
						c-0.1,0.1-0.5-0.4-0.5-1.4c0.1-1,0.8-2.4,2-3.6c1.3-1.2,3.2-2.3,5.7-2.3c1.2,0,2.5,0.3,3.6,0.9c1.2,0.6,2.2,1.7,2.8,2.9
						c0.7,1.2,1,2.4,1.3,3.6c0.3,1.2,0.5,2.4,0.5,3.5c0.1,2.3-0.7,4.5-1.9,5.8c-1.2,1.4-2.6,2-3.5,2.1
						C457.3,209.9,456.8,209.6,456.8,209.6z"/>
				</g>
			</g>
		</g>
		<g>
			<g>
				<g>
					<path class="st1" d="M427.8,177.3c0,0.2-1.8,0.7-4.8,1.8c-1.5,0.5-3.2,1.2-5,2.1c-1.8,0.9-3.8,2-5.8,3.3c-2,1.3-3.8,2.7-5.3,4
						c-1.5,1.3-2.9,2.6-3.9,3.8c-2.1,2.3-3.3,3.8-3.6,3.6c-0.2-0.1,0.7-1.9,2.7-4.4c1-1.3,2.3-2.7,3.8-4.1c1.6-1.4,3.4-2.9,5.4-4.2
						c2.1-1.3,4.1-2.4,6.1-3.3c2-0.8,3.8-1.4,5.3-1.8C425.8,177.2,427.8,177.1,427.8,177.3z"/>
				</g>
			</g>
		</g>
		<g>
			<g>
				<g>
					<path class="st1" d="M447.8,197.6c0.1,0,0,0.6-0.6,1.3c-0.6,0.7-1.7,1.5-3.3,1.8c-1.6,0.3-3.7-0.1-5.5-1.3
						c-1.8-1.2-3.3-3.1-4.5-5.1c-1.1-2.1-2-4.1-2.8-5.9c-0.8-1.8-1.5-3.5-2.1-4.9c-1.2-2.8-1.8-4.6-1.6-4.7c0.2-0.1,1.2,1.5,2.6,4.2
						c0.7,1.3,1.5,2.9,2.4,4.7c0.9,1.8,1.8,3.8,2.9,5.8c1.1,2,2.4,3.6,3.9,4.7c1.5,1.1,3.2,1.5,4.5,1.4c1.4-0.1,2.4-0.7,3.1-1.1
						C447.4,197.9,447.7,197.5,447.8,197.6z"/>
				</g>
			</g>
		</g>
		<g>
			<g>
				<g>
					<path class="st1" d="M483.4,214.3c0.1,0.1-0.1,0.5-0.5,1.2c-0.4,0.7-1,1.8-1.9,3c-0.9,1.2-2.4,2.5-4.3,3.4
						c-1.9,0.9-4.2,1.3-6.6,1.1c-2.4-0.3-4.6-1.3-6.2-2.6c-1.6-1.3-2.7-2.8-3.4-4.2c-1.4-2.8-1.2-4.8-1.1-4.8
						c0.3-0.1,0.5,1.8,2.1,4.2c0.8,1.2,1.9,2.5,3.3,3.6c1.5,1.1,3.4,1.9,5.5,2.1c2.1,0.2,4.2-0.1,5.8-0.8c1.7-0.7,3-1.7,4-2.8
						c1-1,1.7-2,2.3-2.6C483,214.6,483.3,214.3,483.4,214.3z"/>
				</g>
			</g>
		</g>
		<g>
			<g>
				<g>
					<path class="st1" d="M485.2,212c0.1,0,0.1,0.6-0.3,1.4c-0.3,0.9-0.9,2.1-2,3.4c-1.1,1.3-2.6,2.7-4.6,3.7c-2,1-4.5,1.7-7.1,1.5
						c-2.6-0.2-5-1.1-6.9-2.3c-1.9-1.2-3.3-2.7-4.2-4.1c-0.9-1.4-1.4-2.7-1.5-3.7c-0.1-1,0.3-1.5,0.4-1.4c0.1,0,0,0.5,0.3,1.3
						c0.2,0.8,0.8,1.9,1.8,3.1c0.9,1.2,2.3,2.5,4,3.5c1.7,1,3.9,1.8,6.2,1.9c2.3,0.2,4.5-0.4,6.3-1.2c1.8-0.9,3.3-2,4.4-3.1
						C484.3,213.8,484.9,211.9,485.2,212z"/>
				</g>
			</g>
		</g>
		<g>
			<g>
				<g>
					<path class="st1" d="M486.8,224.6c0,0.2-0.5,0.5-1.5,0.6c-1,0.1-2.5-0.1-3.9-0.8c-1.4-0.7-2.4-1.8-2.9-2.7
						c-0.5-0.9-0.5-1.6-0.3-1.6c0.4-0.2,1.6,1.7,4,2.9C484.4,224.2,486.7,224.1,486.8,224.6z"/>
				</g>
			</g>
		</g>
	</g>
</g>
</svg>
