<svg width="30" height="31" viewBox="0 0 30 31" fill="none" xmlns="http://www.w3.org/2000/svg">
<g filter="url(#filter0_d_3463_406553)">
<path d="M5.5 21.4998L11.0493 19.3655C11.4042 19.229 11.5817 19.1607 11.7477 19.0716C11.8952 18.9924 12.0358 18.901 12.168 18.7984C12.3169 18.6829 12.4514 18.5484 12.7203 18.2795L24 6.99982C25.1046 5.89525 25.1046 4.10438 24 2.99981C22.8955 1.89525 21.1046 1.89524 20 2.99981L8.72028 14.2795C8.45138 14.5484 8.31692 14.6829 8.20139 14.8318C8.09877 14.964 8.0074 15.1046 7.92823 15.2521C7.83911 15.4181 7.77085 15.5956 7.63433 15.9506L5.5 21.4998ZM5.5 21.4998L7.55812 16.1488C7.7054 15.7659 7.77903 15.5744 7.90534 15.4867C8.01572 15.4101 8.1523 15.3811 8.2843 15.4063C8.43533 15.4351 8.58038 15.5802 8.87048 15.8703L11.1296 18.1294C11.4197 18.4195 11.5647 18.5645 11.5936 18.7155C11.6188 18.8475 11.5898 18.9841 11.5131 19.0945C11.4254 19.2208 11.234 19.2944 10.8511 19.4417L5.5 21.4998Z" stroke="black" stroke-width="2" stroke-linecap="round" stroke-linejoin="round"/>
</g>
<defs>
<filter id="filter0_d_3463_406553" x="-1" y="0" width="32" height="32" filterUnits="userSpaceOnUse" color-interpolation-filters="sRGB">
<feFlood flood-opacity="0" result="BackgroundImageFix"/>
<feColorMatrix in="SourceAlpha" type="matrix" values="0 0 0 0 0 0 0 0 0 0 0 0 0 0 0 0 0 0 127 0" result="hardAlpha"/>
<feOffset dy="4"/>
<feGaussianBlur stdDeviation="2"/>
<feComposite in2="hardAlpha" operator="out"/>
<feColorMatrix type="matrix" values="0 0 0 0 0 0 0 0 0 0 0 0 0 0 0 0 0 0 0.25 0"/>
<feBlend mode="normal" in2="BackgroundImageFix" result="effect1_dropShadow_3463_406553"/>
<feBlend mode="normal" in="SourceGraphic" in2="effect1_dropShadow_3463_406553" result="shape"/>
</filter>
</defs>
</svg>
