<svg width="28" height="31" viewBox="0 0 28 31" fill="none" xmlns="http://www.w3.org/2000/svg">
<g filter="url(#filter0_d_3463_404363)">
<path d="M21 9C21 12.866 17.866 16 14 16M21 9C21 5.13401 17.866 2 14 2M21 9H7M14 16C10.134 16 7 12.866 7 9M14 16C15.7509 14.0832 16.7468 11.5956 16.8009 9C16.7468 6.40442 15.7509 3.91685 14 2M14 16C12.2491 14.0832 11.255 11.5956 11.2009 9C11.255 6.40442 12.2491 3.91685 14 2M14 16V18M7 9C7 5.13401 10.134 2 14 2M16 20C16 21.1046 15.1046 22 14 22C12.8954 22 12 21.1046 12 20M16 20C16 18.8954 15.1046 18 14 18M16 20H23M12 20C12 18.8954 12.8954 18 14 18M12 20H5" stroke="black" stroke-width="2" stroke-linecap="round" stroke-linejoin="round"/>
</g>
<defs>
<filter id="filter0_d_3463_404363" x="-2" y="0" width="32" height="32" filterUnits="userSpaceOnUse" color-interpolation-filters="sRGB">
<feFlood flood-opacity="0" result="BackgroundImageFix"/>
<feColorMatrix in="SourceAlpha" type="matrix" values="0 0 0 0 0 0 0 0 0 0 0 0 0 0 0 0 0 0 127 0" result="hardAlpha"/>
<feOffset dy="4"/>
<feGaussianBlur stdDeviation="2"/>
<feComposite in2="hardAlpha" operator="out"/>
<feColorMatrix type="matrix" values="0 0 0 0 0 0 0 0 0 0 0 0 0 0 0 0 0 0 0.25 0"/>
<feBlend mode="normal" in2="BackgroundImageFix" result="effect1_dropShadow_3463_404363"/>
<feBlend mode="normal" in="SourceGraphic" in2="effect1_dropShadow_3463_404363" result="shape"/>
</filter>
</defs>
</svg>
